{"glyphs":{"0":{"ha":856,"x_min":88,"x_max":768,"o":"m 428 -4 q 219 76 303 -4 q 104 304 135 156 q 88 496 88 388 q 99 656 88 582 q 213 902 128 817 q 429 989 297 988 q 638 910 554 989 q 751 681 721 831 q 768 494 768 600 q 756 329 768 400 q 644 83 729 169 q 428 -4 560 -3 m 429 107 q 544 163 496 107 q 617 307 593 218 q 642 494 642 396 q 617 681 642 594 q 545 822 593 768 q 429 876 497 876 q 313 822 361 876 q 241 681 265 768 q 217 494 217 593 q 241 306 217 394 q 313 162 265 217 q 429 107 361 107 z "},"1":{"ha":440,"x_min":29,"x_max":310,"o":"m 215 6 q 196 13 204 6 q 188 31 188 21 l 183 818 l 71 749 q 49 742 61 742 q 29 769 29 742 l 29 835 q 33 866 29 856 q 54 888 38 876 l 164 963 q 221 978 188 978 l 285 978 q 302 971 294 978 q 310 954 310 964 l 310 31 q 302 13 310 21 q 285 6 294 6 l 215 6 z "},"2":{"ha":663,"x_min":44,"x_max":600,"o":"m 557 126 q 571 121 565 126 q 576 107 576 115 l 576 26 q 571 12 576 18 q 557 6 565 6 l 71 6 q 56 12 61 6 q 50 26 50 18 l 50 111 q 105 234 56 174 q 251 383 154 294 q 367 497 324 450 q 442 597 411 543 q 472 706 472 650 q 428 816 472 775 q 325 857 385 857 q 239 831 279 857 q 176 757 199 806 q 151 740 168 740 q 140 742 143 740 l 58 776 q 44 801 44 783 l 46 814 q 162 944 90 899 q 324 989 233 989 q 465 953 401 989 q 564 853 528 917 q 600 711 600 790 q 558 554 600 631 q 459 417 515 478 q 317 278 403 357 q 220 185 251 219 q 188 126 189 151 l 557 126 z "},"3":{"ha":692,"x_min":40,"x_max":619,"o":"m 479 517 q 584 411 549 475 q 619 276 619 347 q 583 139 619 204 q 481 34 547 74 q 328 -6 415 -6 q 154 46 229 -6 q 46 167 79 97 l 44 179 q 54 200 44 193 l 131 233 q 147 238 142 238 q 175 215 163 238 q 240 142 199 167 q 329 118 282 118 q 441 159 393 118 q 490 268 489 200 q 434 419 494 369 q 249 469 374 469 q 233 476 239 469 q 226 493 226 482 l 226 547 q 235 567 226 560 q 256 575 243 575 q 414 619 356 575 q 472 736 472 663 q 432 835 472 799 q 333 872 392 872 q 238 843 283 872 q 167 758 193 814 q 143 742 160 742 q 135 744 138 742 l 63 779 q 49 807 40 792 q 172 942 96 897 q 335 988 247 988 q 474 952 413 988 q 568 858 535 917 q 601 733 601 799 q 571 615 601 672 q 479 517 540 558 z "},"4":{"ha":717,"x_min":8,"x_max":681,"o":"m 657 349 q 674 343 667 349 q 681 329 681 338 l 681 256 q 674 240 681 246 q 657 235 668 235 l 565 235 l 565 36 q 557 15 565 24 q 536 6 549 6 l 468 6 q 447 14 456 6 q 439 36 439 22 l 439 235 l 31 235 q 15 240 21 235 q 8 256 8 246 l 8 329 q 11 340 8 335 l 443 969 q 472 981 451 981 l 539 981 q 558 974 550 981 q 565 957 565 967 l 565 349 l 657 349 m 439 349 l 439 765 l 156 349 l 439 349 z "},"5":{"ha":656,"x_min":65,"x_max":614,"o":"m 215 586 q 319 599 272 599 q 479 555 413 599 q 580 441 546 511 q 614 292 614 371 q 581 147 614 215 q 485 38 549 79 q 332 -4 422 -4 q 172 35 239 -4 q 68 144 106 74 l 68 143 q 65 154 65 146 q 79 175 65 168 l 147 208 l 157 211 q 179 197 174 211 q 235 133 196 158 q 325 108 275 108 q 442 163 400 108 q 485 292 485 217 q 436 431 485 372 q 299 490 388 490 q 204 474 257 490 q 192 469 201 472 q 172 465 182 465 q 160 468 168 465 l 100 496 q 88 531 85 501 l 126 954 l 128 960 q 136 974 128 968 q 142 978 139 978 l 146 978 l 553 978 q 566 972 560 978 q 572 960 572 967 l 572 881 q 566 868 572 874 q 553 863 560 863 l 240 863 l 215 586 z "},"6":{"ha":675,"x_min":60,"x_max":640,"o":"m 639 279 q 590 118 635 182 q 482 25 546 54 q 354 -4 418 -4 q 141 83 222 -4 q 60 338 60 171 q 137 656 60 490 q 344 957 214 822 q 366 973 356 968 q 392 978 376 978 l 489 978 q 505 972 499 978 q 511 960 511 967 q 501 942 511 950 q 331 756 401 863 q 225 540 260 649 q 272 567 233 551 q 360 583 310 583 q 485 556 421 583 q 595 460 550 528 q 639 279 640 392 m 349 104 q 467 161 424 106 q 510 293 510 217 q 467 422 510 368 q 349 476 425 476 q 232 422 274 476 q 190 292 190 367 q 233 161 190 217 q 349 104 275 106 z "},"7":{"ha":565,"x_min":19,"x_max":565,"o":"m 546 978 q 559 972 553 978 q 565 960 565 967 l 565 882 q 558 869 565 874 q 353 467 436 696 q 222 21 271 238 q 215 10 221 14 q 200 6 208 6 l 122 6 q 99 18 107 6 q 94 47 92 31 q 219 467 149 268 q 413 864 290 665 l 38 864 q 19 882 19 864 l 19 960 q 26 972 19 967 q 38 978 32 978 l 546 978 z "},"8":{"ha":736,"x_min":72,"x_max":665,"o":"m 375 -4 q 215 37 283 -4 q 109 144 146 78 q 72 283 72 210 q 107 415 72 353 q 211 519 142 478 q 120 615 150 560 q 90 733 90 671 q 124 858 90 799 q 222 953 158 917 q 368 989 285 989 q 517 953 454 989 q 611 860 579 918 q 643 736 643 803 q 614 617 643 675 q 529 519 585 560 q 631 419 596 483 q 665 281 665 354 q 632 142 665 207 q 533 36 599 76 q 375 -4 467 -4 m 367 567 q 476 615 436 567 q 517 731 517 664 q 478 841 517 794 q 368 886 439 888 q 258 839 297 886 q 219 728 219 792 q 258 615 219 663 q 367 567 297 567 m 368 99 q 490 153 446 99 q 533 282 533 207 q 491 407 533 354 q 369 460 449 460 q 250 406 293 460 q 207 279 207 353 q 249 152 207 206 q 368 99 292 99 z "},"9":{"ha":675,"x_min":36,"x_max":615,"o":"m 36 704 q 86 866 40 801 q 195 960 132 931 q 318 989 258 989 q 469 949 401 989 q 576 832 536 910 q 615 646 615 754 q 538 327 615 493 q 332 26 461 161 q 276 6 310 6 l 186 6 q 171 11 176 6 q 165 25 165 17 q 174 42 165 36 q 344 228 274 122 q 451 443 415 335 q 311 407 383 407 q 173 446 236 407 q 73 553 110 485 q 36 704 36 621 m 326 504 q 444 559 403 504 q 486 690 486 614 q 444 822 486 765 q 326 878 401 878 q 207 822 250 878 q 164 689 164 765 q 207 559 164 614 q 326 504 250 504 z "}," ":{"ha":250,"x_min":0,"x_max":0,"o":""},"!":{"ha":386,"x_min":114,"x_max":272,"o":"m 194 1 q 138 25 161 1 q 114 81 114 49 q 138 137 114 114 q 194 160 161 160 q 249 137 226 160 q 272 81 272 114 q 249 25 272 49 q 194 1 226 1 m 125 949 q 133 965 125 958 q 151 972 140 972 l 239 972 q 257 965 250 972 q 264 949 264 958 l 244 288 q 237 269 244 276 q 218 263 229 263 l 164 263 q 145 269 153 263 q 138 288 138 276 l 125 949 z "},"\"":{"ha":364,"x_min":54,"x_max":329,"o":"m 54 960 q 69 974 54 974 l 144 974 q 164 950 167 974 l 144 715 q 138 702 143 708 q 125 696 132 696 l 90 696 q 68 717 68 696 l 54 957 l 54 960 m 219 961 q 235 975 219 975 l 310 975 q 329 951 329 975 l 310 717 q 303 703 308 708 q 289 697 297 697 l 256 697 q 233 718 233 697 l 219 958 l 219 961 z "},"#":{"ha":829,"x_min":44,"x_max":782,"o":"m 761 711 q 776 706 771 711 q 782 693 782 700 l 782 621 q 776 607 782 613 q 761 601 771 601 l 625 601 l 588 368 l 718 368 q 733 363 726 368 q 739 349 739 357 l 739 278 q 733 264 739 269 q 718 258 726 258 l 569 258 l 532 21 q 524 6 529 13 q 510 0 518 0 l 429 0 q 415 6 419 0 q 413 21 410 13 l 450 258 l 296 258 l 257 21 q 249 6 256 13 q 235 0 243 0 l 153 0 q 138 6 143 0 q 135 21 133 13 l 174 258 l 65 258 q 51 264 57 258 q 44 278 44 269 l 44 349 q 51 363 44 357 q 65 368 57 368 l 192 368 l 231 601 l 108 601 q 94 607 100 601 q 88 621 88 613 l 88 693 q 94 706 88 700 q 108 711 100 711 l 247 711 l 288 951 q 295 966 289 960 q 311 972 301 972 l 393 972 q 406 966 401 972 q 408 951 411 960 l 369 711 l 524 711 l 561 951 q 570 966 564 960 q 585 972 576 972 l 665 972 q 678 966 674 972 q 681 951 683 960 l 643 711 l 761 711 m 468 368 l 506 601 l 351 601 l 314 368 l 468 368 z "},"'":{"ha":199,"x_min":54,"x_max":167,"o":"m 54 958 q 69 972 54 972 l 144 972 q 164 949 167 972 l 144 714 q 138 701 143 707 q 125 694 132 694 l 90 694 q 68 715 68 694 l 54 956 l 54 958 z "},"(":{"ha":451,"x_min":67,"x_max":424,"o":"m 414 -74 q 424 -90 424 -81 q 418 -104 424 -96 l 381 -156 q 364 -165 372 -165 q 351 -161 358 -165 q 140 86 213 -64 q 67 401 67 236 q 140 717 67 568 q 351 963 213 867 q 365 967 358 967 q 381 958 375 967 l 418 907 q 424 893 424 896 q 414 876 424 883 q 251 668 307 793 q 194 403 194 543 q 251 135 194 263 q 414 -74 307 8 z "},")":{"ha":450,"x_min":28,"x_max":383,"o":"m 36 -74 q 199 135 143 8 q 256 403 256 263 q 199 668 256 543 q 36 876 143 793 q 28 893 28 883 q 32 907 28 899 l 69 958 q 85 967 76 967 q 99 963 93 967 q 310 717 238 867 q 383 401 383 568 q 310 86 383 236 q 99 -161 238 -64 q 86 -165 93 -165 q 69 -156 78 -165 l 32 -104 q 28 -90 28 -99 q 36 -74 28 -81 z "},"*":{"ha":464,"x_min":33,"x_max":429,"o":"m 414 701 q 426 688 422 697 q 425 671 429 679 l 407 639 q 390 629 403 629 q 376 633 383 629 l 272 694 l 272 568 q 266 551 272 558 q 253 543 260 543 l 211 543 q 198 551 204 543 q 192 568 192 558 l 192 692 l 86 629 q 72 625 81 625 q 54 635 61 625 l 38 667 q 35 676 35 672 q 49 699 35 689 l 157 760 l 49 824 q 36 838 39 829 q 38 854 33 847 l 54 885 q 71 894 61 894 q 85 890 79 894 l 192 829 l 192 949 q 198 965 192 958 q 211 972 204 972 l 253 972 q 266 965 260 972 q 272 949 272 958 l 272 828 l 376 888 q 390 892 385 892 q 408 881 401 892 l 426 851 q 428 843 428 849 q 414 819 428 829 l 311 760 l 414 701 z "},",":{"ha":328,"x_min":56,"x_max":271,"o":"m 121 143 q 143 160 124 160 l 247 160 q 263 136 271 160 l 164 -101 q 140 -118 158 -118 l 79 -118 q 61 -96 56 -118 l 121 143 z "},"-":{"ha":533,"x_min":101,"x_max":432,"o":"m 101 428 q 108 444 101 438 q 125 450 115 450 l 407 450 q 425 443 418 450 q 432 425 432 436 l 432 365 q 425 347 432 354 q 407 339 418 339 l 126 339 q 108 347 115 339 q 101 365 101 354 l 101 425 l 101 428 z "},".":{"ha":286,"x_min":64,"x_max":222,"o":"m 142 158 q 199 135 175 158 q 222 79 222 111 q 199 23 222 46 q 142 0 175 0 q 87 23 110 0 q 64 79 64 46 q 87 135 64 111 q 142 158 110 158 z "},"/":{"ha":500,"x_min":39,"x_max":481,"o":"m 360 950 q 370 965 363 958 q 386 971 378 971 l 465 971 q 476 965 472 971 q 478 950 481 958 l 160 19 q 150 4 157 10 q 135 -1 143 -1 l 57 -1 q 43 4 47 -1 q 42 19 39 10 l 360 950 z "},":":{"ha":329,"x_min":85,"x_max":244,"o":"m 163 157 q 219 133 196 157 q 243 78 243 110 q 219 22 243 44 q 163 -1 196 -1 q 108 22 131 -1 q 85 78 85 44 q 108 133 85 110 q 163 157 131 157 m 86 439 q 109 494 86 471 q 164 518 132 518 q 221 494 197 518 q 244 439 244 471 q 221 383 244 406 q 164 360 197 360 q 109 383 132 360 q 86 439 86 406 z "},";":{"ha":364,"x_min":79,"x_max":288,"o":"m 142 125 q 164 143 146 143 l 268 143 q 283 137 279 143 q 283 119 288 131 l 185 -119 q 161 -136 178 -136 l 100 -136 q 84 -130 89 -136 q 82 -112 79 -124 l 142 125 m 122 442 q 145 497 122 474 q 200 521 168 521 q 257 497 233 521 q 281 442 281 474 q 257 385 281 408 q 200 363 233 363 q 145 385 168 363 q 122 442 122 408 z "},"<":{"ha":301,"x_min":21,"x_max":267,"o":"m 263 113 q 265 104 265 107 q 261 95 265 99 q 251 92 257 92 l 169 92 q 147 103 156 92 l 25 257 q 21 267 21 264 q 25 281 21 272 l 146 439 q 169 450 151 450 l 251 450 q 263 444 260 450 q 263 429 267 438 l 136 268 l 263 113 z "},">":{"ha":301,"x_min":33,"x_max":281,"o":"m 39 429 q 36 438 36 435 q 40 447 36 443 q 50 450 44 450 l 132 450 q 156 439 149 450 l 276 281 q 281 268 281 272 q 276 257 281 264 l 154 103 q 132 92 146 92 l 50 92 q 38 98 42 92 q 39 113 33 104 l 165 268 l 39 429 z "},"?":{"ha":631,"x_min":49,"x_max":569,"o":"m 532 597 q 500 540 519 568 q 449 471 481 513 q 378 367 401 408 q 358 286 356 326 l 358 283 q 351 269 358 275 q 336 263 344 263 l 251 263 q 238 268 243 263 q 231 282 232 274 q 254 389 226 336 q 339 519 282 442 q 376 571 347 531 q 424 649 406 611 q 447 739 447 694 q 407 837 447 799 q 311 875 367 875 q 227 847 267 875 q 163 764 188 819 q 144 750 157 750 l 136 751 l 63 796 q 49 815 49 803 q 51 828 49 819 q 166 951 96 910 q 313 992 236 992 q 438 961 379 992 q 533 876 497 931 q 569 749 569 821 q 532 597 569 674 m 218 81 q 242 139 218 115 q 299 163 265 163 q 353 139 331 163 q 376 81 376 115 q 353 25 376 49 q 299 1 331 1 q 242 25 265 1 q 218 81 218 49 z "},"@":{"ha":1174,"x_min":46,"x_max":1110,"o":"m 753 625 q 757 633 753 629 q 767 638 761 638 l 856 638 q 862 633 858 638 q 864 625 865 629 l 806 189 q 829 168 801 168 q 897 195 858 168 q 965 281 935 222 q 1003 428 996 339 q 1004 461 1004 439 q 945 651 1004 574 q 792 768 886 729 q 593 807 699 807 q 376 747 476 807 q 216 585 275 686 q 157 368 157 483 q 220 150 157 246 q 435 8 283 54 q 540 -6 472 -3 q 569 -25 569 -6 l 571 -90 l 571 -93 q 565 -105 571 -100 q 553 -110 560 -110 q 528 -111 546 -111 q 389 -87 469 -111 q 238 -15 308 -64 q 99 142 151 46 q 46 367 46 239 q 114 631 46 506 q 309 833 182 756 q 606 911 436 911 q 846 858 735 911 q 1028 707 957 806 q 1108 478 1099 608 q 1110 447 1110 468 q 1066 248 1110 346 q 939 99 1022 150 q 825 67 886 67 q 728 102 765 67 q 699 206 692 138 q 515 128 619 128 q 402 156 454 128 q 318 234 350 183 q 286 350 286 285 q 327 494 286 428 q 435 601 368 561 q 578 643 503 642 q 684 617 639 643 q 747 550 729 590 l 753 625 m 408 367 q 445 273 408 311 q 538 235 482 235 q 651 280 600 235 q 708 386 701 325 q 710 408 710 393 q 672 498 710 463 q 578 533 635 533 q 494 511 533 533 q 432 451 456 489 q 408 367 408 413 z "},"A":{"ha":936,"x_min":25,"x_max":908,"o":"m 907 24 q 908 15 908 21 q 902 3 908 8 q 889 -1 896 -1 l 788 -1 q 769 11 774 -1 l 672 276 l 271 276 l 168 13 q 150 0 164 0 l 46 0 q 31 6 38 0 q 29 24 25 13 l 399 950 q 410 965 401 960 q 426 971 418 971 l 521 971 q 541 965 532 971 q 553 950 550 960 l 907 24 m 628 394 l 475 806 l 315 394 l 628 394 z "},"B":{"ha":815,"x_min":131,"x_max":746,"o":"m 603 507 q 703 411 660 479 q 746 261 746 343 q 705 129 746 189 q 594 35 664 69 q 442 0 525 0 l 151 0 q 137 6 143 0 q 131 21 131 13 l 131 951 q 137 966 131 960 q 151 972 143 972 l 428 972 q 631 903 556 971 q 706 719 706 835 q 681 594 706 654 q 603 507 656 533 m 438 117 q 570 162 518 117 q 622 275 622 207 q 570 401 622 353 q 438 450 518 450 l 261 450 l 261 115 l 438 117 m 418 557 q 544 592 501 557 q 586 708 586 628 q 542 817 586 779 q 418 856 499 856 l 261 856 l 261 557 l 418 557 z "},"C":{"ha":843,"x_min":60,"x_max":792,"o":"m 783 97 q 786 85 786 89 q 772 61 786 67 q 529 -8 656 -8 q 297 56 404 -8 q 124 234 189 121 q 60 488 60 347 q 126 740 60 628 q 301 917 192 853 q 535 981 410 981 q 781 911 663 981 q 790 899 788 907 q 788 883 792 890 q 746 837 763 854 q 722 817 729 819 q 707 818 715 814 q 539 863 626 863 q 368 814 447 863 q 242 680 289 765 q 194 488 194 594 q 242 297 194 382 q 370 163 290 211 q 542 114 450 114 q 707 157 626 114 q 718 161 714 161 q 742 144 726 161 q 783 97 757 128 z "},"D":{"ha":968,"x_min":131,"x_max":907,"o":"m 907 485 q 846 240 907 351 q 678 65 785 129 q 439 0 571 0 l 151 0 q 137 6 143 0 q 131 21 131 13 l 131 951 q 137 966 131 960 q 151 972 143 972 l 439 972 q 679 906 572 971 q 847 729 786 840 q 907 485 907 618 m 436 129 q 613 176 535 129 q 734 306 690 224 q 778 489 778 388 q 735 669 778 589 q 614 797 692 750 q 438 843 536 843 l 261 843 l 261 129 l 436 129 z "},"E":{"ha":776,"x_min":131,"x_max":707,"o":"m 683 125 q 699 119 692 125 q 707 104 707 113 l 707 21 q 701 6 707 13 q 686 0 696 0 l 153 0 q 137 6 143 0 q 131 21 131 13 l 131 951 q 137 966 131 960 q 153 972 143 972 l 686 972 q 701 966 694 972 q 707 951 707 960 l 707 868 q 701 853 707 860 q 686 847 694 847 l 263 847 l 263 540 l 629 540 q 644 535 638 540 q 650 521 650 529 l 650 444 q 644 429 650 435 q 629 424 638 424 l 263 424 l 263 125 l 683 125 z "},"F":{"ha":747,"x_min":131,"x_max":710,"o":"m 689 972 q 703 966 697 972 q 710 951 710 960 l 710 868 q 703 853 710 860 q 689 847 697 847 l 263 847 l 263 515 l 614 515 q 628 509 622 515 q 635 494 635 503 l 635 418 q 628 403 635 410 q 614 397 622 397 l 263 397 l 263 21 q 256 6 263 13 q 242 0 250 0 l 153 0 q 137 6 143 0 q 131 21 131 13 l 131 951 q 137 966 131 960 q 153 972 143 972 l 689 972 z "},"G":{"ha":960,"x_min":60,"x_max":881,"o":"m 60 486 q 135 764 60 650 q 320 933 210 878 q 539 989 431 989 q 682 970 606 989 q 818 900 758 951 q 826 883 826 894 q 821 869 826 875 l 772 810 q 757 803 765 803 q 746 806 754 803 q 549 868 654 868 q 368 818 450 868 q 238 679 286 768 q 190 476 190 590 q 239 290 190 375 q 369 156 288 206 q 549 107 451 107 q 661 119 604 107 q 749 156 718 131 l 749 401 l 569 401 q 555 408 561 401 q 549 422 549 414 l 549 496 q 555 510 549 504 q 569 517 561 517 l 861 517 q 875 510 869 517 q 881 496 881 504 l 881 161 q 879 110 881 115 q 823 49 867 78 q 708 1 779 19 q 551 -17 638 -17 q 303 51 417 -17 q 125 233 190 118 q 60 486 60 349 z "},"H":{"ha":994,"x_min":131,"x_max":864,"o":"m 843 972 q 858 966 851 972 q 864 951 864 960 l 864 21 q 858 6 864 13 q 843 0 851 0 l 754 0 q 738 6 744 0 q 731 21 731 13 l 731 408 l 263 408 l 263 21 q 256 6 263 13 q 242 0 250 0 l 153 0 q 137 6 143 0 q 131 21 131 13 l 131 951 q 137 966 131 960 q 153 972 143 972 l 242 972 q 256 966 250 972 q 263 951 263 960 l 263 532 l 731 532 l 731 951 q 738 966 731 960 q 754 972 744 972 l 843 972 z "},"I":{"ha":393,"x_min":131,"x_max":263,"o":"m 131 951 q 137 966 131 960 q 153 972 143 972 l 242 972 q 256 966 250 972 q 263 951 263 960 l 263 21 q 256 6 263 13 q 242 0 250 0 l 153 0 q 137 6 143 0 q 131 21 131 13 l 131 951 z "},"J":{"ha":415,"x_min":-43,"x_max":326,"o":"m 306 972 q 320 968 314 972 q 326 958 326 964 l 325 300 q 238 65 325 139 q 22 -10 150 -10 q -25 -7 6 -10 q -38 0 -33 -6 q -43 13 -43 6 l -43 96 q -35 113 -43 107 q -17 118 -28 119 q 24 115 11 115 q 146 160 97 115 q 194 303 194 206 l 194 958 q 201 968 194 964 q 217 972 207 972 l 306 972 z "},"K":{"ha":858,"x_min":131,"x_max":831,"o":"m 814 46 q 825 24 825 35 q 815 6 825 13 q 792 0 806 0 l 707 0 q 679 6 689 0 q 663 19 669 11 q 654 29 657 26 l 263 468 l 263 21 q 256 6 263 13 q 242 0 250 0 l 153 0 q 137 6 143 0 q 131 21 131 13 l 131 951 q 137 966 131 960 q 153 972 143 972 l 242 972 q 256 966 250 972 q 263 951 263 960 l 263 521 l 675 957 q 711 972 690 972 l 799 972 q 822 965 813 972 q 831 949 831 958 q 824 932 831 942 l 411 490 l 814 46 z "},"L":{"ha":739,"x_min":131,"x_max":711,"o":"m 690 125 q 706 119 700 125 q 711 104 711 113 l 711 21 q 706 6 711 13 q 690 0 700 0 l 153 0 q 137 6 143 0 q 131 21 131 13 l 131 951 q 137 966 131 960 q 153 972 143 972 l 242 972 q 256 966 250 972 q 263 951 263 960 l 263 125 l 690 125 z "},"M":{"ha":1108,"x_min":58,"x_max":1049,"o":"m 1049 18 q 1043 6 1049 11 q 1029 0 1038 0 l 933 0 q 920 6 926 0 q 913 21 914 13 l 871 669 l 617 26 q 597 4 610 8 q 554 0 585 0 q 513 4 526 0 q 492 26 499 8 l 235 669 l 194 21 q 188 6 194 13 q 175 0 182 0 l 78 0 q 64 6 69 0 q 60 21 58 13 l 140 954 q 147 967 142 963 q 160 972 151 972 l 229 972 q 247 966 240 971 q 261 946 254 961 l 554 193 l 847 946 q 879 972 857 969 l 949 972 q 962 967 957 972 q 968 954 967 963 l 1049 21 l 1049 18 z "},"N":{"ha":1057,"x_min":131,"x_max":926,"o":"m 906 972 q 920 966 914 972 q 926 951 926 960 l 926 21 q 920 6 926 13 q 906 0 914 0 l 854 0 q 826 10 839 0 q 807 28 814 19 l 263 735 l 263 21 q 256 6 263 13 q 242 0 250 0 l 151 0 q 137 6 143 0 q 131 21 131 13 l 131 951 q 137 966 131 960 q 151 972 143 972 l 204 972 q 228 967 218 972 q 249 946 238 961 l 794 250 l 794 951 q 801 966 794 960 q 817 972 807 972 l 906 972 z "},"O":{"ha":1101,"x_min":60,"x_max":1042,"o":"m 551 -6 q 305 60 418 -6 q 126 240 192 126 q 60 486 60 353 q 126 733 60 621 q 306 912 193 846 q 551 978 418 978 q 797 912 685 978 q 976 733 910 846 q 1042 486 1042 619 q 976 240 1042 353 q 797 60 910 126 q 551 -6 685 -6 m 192 486 q 240 300 192 385 q 372 165 289 215 q 551 115 454 115 q 731 165 649 115 q 860 300 813 215 q 908 486 908 385 q 860 673 908 588 q 731 808 813 758 q 551 857 649 857 q 372 808 454 857 q 240 673 289 758 q 192 486 192 588 z "},"P":{"ha":775,"x_min":131,"x_max":744,"o":"m 436 972 q 593 928 522 972 q 704 810 664 885 q 744 647 744 736 q 702 490 744 563 q 587 373 660 417 q 429 329 514 329 l 261 329 l 261 21 q 256 6 261 13 q 242 0 250 0 l 153 0 q 137 6 143 0 q 131 21 131 13 l 131 951 q 137 966 131 960 q 151 972 143 972 l 436 972 m 425 451 q 563 510 508 451 q 618 656 618 568 q 563 799 618 742 q 425 857 508 857 l 261 857 l 261 451 l 425 451 z "},"Q":{"ha":1103,"x_min":60,"x_max":1042,"o":"m 950 40 q 956 24 956 33 q 947 6 956 13 q 925 0 939 0 l 854 0 q 828 18 842 0 l 797 61 q 551 -6 685 -6 q 305 60 418 -6 q 126 240 192 126 q 60 486 60 353 q 126 733 60 621 q 306 912 193 846 q 551 978 418 978 q 797 912 685 978 q 976 733 910 846 q 1042 486 1042 619 q 1001 290 1042 382 q 889 131 961 199 l 950 40 m 190 488 q 239 301 190 386 q 369 167 288 217 q 549 117 451 117 q 725 165 642 117 l 606 336 q 600 354 600 343 q 608 374 600 367 q 628 382 615 382 l 696 382 q 729 367 718 382 l 815 240 q 882 355 858 292 q 906 488 906 418 q 858 674 906 589 q 728 808 810 758 q 549 857 646 857 q 369 808 451 857 q 239 674 288 758 q 190 488 190 589 z "},"R":{"ha":842,"x_min":131,"x_max":765,"o":"m 758 31 q 760 24 760 28 q 755 7 760 14 q 742 0 750 0 l 651 0 q 635 6 643 0 q 624 18 628 11 l 475 331 q 450 329 467 329 l 261 329 l 261 21 q 256 6 261 13 q 240 0 250 0 l 151 0 q 137 6 143 0 q 131 21 131 13 l 131 951 q 137 966 131 960 q 151 972 143 972 l 457 972 q 613 928 543 972 q 724 810 683 885 q 765 647 765 736 q 720 483 765 558 q 599 368 675 408 l 758 31 m 446 451 q 584 510 529 451 q 639 656 639 568 q 584 799 639 742 q 446 857 529 857 l 261 857 l 261 451 l 446 451 z "},"S":{"ha":715,"x_min":60,"x_max":667,"o":"m 374 -14 q 193 31 281 -14 q 63 165 106 76 l 60 176 q 64 188 60 183 q 72 194 68 193 l 153 235 q 160 236 156 236 q 178 222 172 236 q 256 134 201 165 q 372 103 310 103 q 491 141 442 103 q 540 249 540 179 q 515 329 540 296 q 453 385 490 363 q 354 436 417 407 q 257 486 288 467 q 140 587 183 531 q 96 724 96 643 q 133 857 96 797 q 236 951 171 917 q 378 985 301 985 q 549 938 474 985 q 663 814 625 890 q 664 806 664 811 q 653 786 664 790 l 575 754 q 568 753 572 753 q 549 765 554 753 q 478 842 524 815 q 382 868 433 868 q 270 828 318 868 q 222 721 222 788 q 254 635 222 674 q 335 572 286 597 l 396 543 q 543 467 490 500 q 631 383 596 435 q 667 251 667 331 q 624 112 667 172 q 515 19 582 51 q 374 -14 447 -14 z "},"T":{"ha":668,"x_min":0,"x_max":668,"o":"m 649 972 q 663 966 657 972 q 668 951 668 960 l 668 868 q 663 853 668 860 q 649 847 657 847 l 400 847 l 400 21 q 394 6 400 13 q 379 0 389 0 l 292 0 q 275 6 282 0 q 268 21 268 13 l 268 847 l 19 847 q 6 853 11 847 q 0 868 0 860 l 0 951 q 6 966 0 960 q 19 972 11 972 l 649 972 z "},"U":{"ha":979,"x_min":118,"x_max":861,"o":"m 840 972 q 855 966 849 972 q 861 951 861 960 l 861 333 q 808 160 858 239 q 673 36 757 82 q 489 -10 589 -10 q 308 35 392 -10 q 174 158 225 81 q 118 328 122 236 l 118 951 q 124 966 118 960 q 139 972 131 972 l 229 972 q 244 966 238 972 q 250 951 250 960 l 250 343 q 283 226 251 279 q 369 142 315 174 q 489 111 424 111 q 610 142 556 111 q 697 226 665 174 q 729 343 729 279 l 729 951 q 735 966 729 960 q 750 972 742 972 l 840 972 z "},"V":{"ha":871,"x_min":-4,"x_max":876,"o":"m 854 972 q 869 965 861 972 q 874 951 876 958 l 501 21 q 490 6 499 13 q 474 0 482 0 l 396 0 q 377 6 386 0 q 365 21 368 13 l -3 943 q -4 950 -4 946 q 1 965 -4 958 q 14 972 6 972 l 118 972 q 135 966 126 972 q 146 951 143 960 l 433 190 l 721 951 q 732 966 724 960 q 750 972 740 972 l 854 972 z "},"W":{"ha":1242,"x_min":39,"x_max":1206,"o":"m 1185 974 q 1200 967 1194 974 q 1203 953 1206 961 l 947 19 q 933 2 943 4 q 911 0 924 0 l 833 0 q 818 6 825 0 q 808 21 811 13 l 621 733 l 433 18 q 424 5 432 10 q 408 0 417 0 l 333 0 q 296 22 303 0 l 39 953 l 39 957 q 58 974 39 974 l 151 974 q 182 953 176 974 l 368 215 l 553 940 q 583 972 563 972 l 657 972 q 676 965 667 972 q 688 946 685 958 l 875 217 l 1060 953 q 1090 974 1065 974 l 1185 974 z "},"X":{"ha":839,"x_min":40,"x_max":797,"o":"m 793 32 q 797 18 797 24 q 792 6 797 11 q 776 1 786 1 l 688 1 q 661 6 672 1 q 640 28 650 11 l 419 374 l 197 28 q 177 6 188 11 q 150 1 167 1 l 61 1 q 46 6 51 1 q 40 19 40 11 q 44 32 40 26 l 338 488 l 342 493 l 56 942 q 51 956 51 950 q 57 967 51 963 q 72 972 63 972 l 161 972 q 188 967 176 972 q 208 946 199 963 l 421 614 l 522 774 q 631 946 567 846 q 651 967 642 963 q 678 972 661 972 l 767 972 q 782 967 776 972 q 788 954 788 963 q 783 942 788 949 l 497 494 l 793 32 z "},"Y":{"ha":731,"x_min":-12,"x_max":744,"o":"m 724 967 q 739 961 733 967 q 744 949 744 956 q 740 935 744 943 l 433 476 l 433 22 q 427 7 433 13 q 413 1 421 1 l 324 1 q 308 7 314 1 q 301 22 301 13 l 301 476 l -8 935 q -12 949 -12 942 q -7 961 -12 956 q 8 967 -1 967 l 97 967 q 124 962 114 967 q 144 939 135 957 l 367 596 l 588 939 q 608 962 597 957 q 635 967 619 967 l 724 967 z "},"Z":{"ha":703,"x_min":31,"x_max":669,"o":"m 649 125 q 663 119 657 125 q 669 104 669 113 l 669 22 q 663 6 669 13 q 647 0 657 0 l 63 0 q 39 7 47 0 q 31 25 31 14 q 36 46 31 32 l 439 847 l 53 847 q 38 853 44 847 q 32 868 32 860 l 32 950 q 38 966 32 960 q 53 972 44 972 l 597 972 q 621 965 613 972 q 629 947 629 958 q 624 926 629 940 l 222 125 l 649 125 z "},"[":{"ha":397,"x_min":94,"x_max":376,"o":"m 354 867 q 269 871 313 871 l 214 874 l 214 -69 l 269 -67 q 354 -62 313 -67 l 357 -62 q 370 -69 364 -62 q 376 -82 376 -75 l 376 -143 q 369 -156 376 -150 q 354 -161 363 -161 l 115 -161 q 100 -156 106 -161 q 94 -142 94 -150 l 94 947 q 100 961 94 956 q 115 967 106 967 l 354 967 q 369 961 363 967 q 376 949 376 956 l 376 888 q 369 873 376 879 q 354 867 363 867 z "},"\\":{"ha":499,"x_min":21,"x_max":458,"o":"m 457 18 q 458 11 458 15 q 454 2 458 6 q 443 -1 450 -1 l 365 -1 q 350 4 357 -1 q 340 18 343 10 l 22 950 q 21 957 21 953 q 25 966 21 963 q 35 969 29 969 l 113 969 q 130 964 122 969 q 140 950 138 958 l 457 18 z "},"]":{"ha":397,"x_min":21,"x_max":303,"o":"m 282 967 q 297 961 292 967 q 303 947 303 956 l 303 -142 q 297 -156 303 -150 q 282 -161 292 -161 l 43 -161 q 27 -156 33 -161 q 21 -143 21 -150 l 21 -82 q 27 -67 21 -74 q 43 -62 33 -61 q 128 -67 85 -67 l 183 -69 l 183 874 l 128 871 q 43 867 85 871 q 27 873 33 867 q 21 888 21 879 l 21 949 q 27 961 21 956 q 43 967 33 967 l 282 967 z "},"_":{"ha":589,"x_min":21,"x_max":568,"o":"m 21 -46 q 28 -29 21 -36 q 44 -22 35 -22 l 543 -22 q 561 -30 554 -22 q 568 -49 568 -37 l 568 -108 q 561 -127 568 -119 q 543 -135 554 -135 l 46 -135 q 28 -127 35 -135 q 21 -108 21 -119 l 21 -49 l 21 -46 z "},"a":{"ha":704,"x_min":63,"x_max":610,"o":"m 496 508 q 499 516 496 513 q 508 519 503 519 l 599 519 q 606 516 601 519 q 610 508 610 513 l 610 21 q 590 4 610 4 l 511 4 q 494 21 494 4 l 496 82 q 415 21 463 44 q 315 -3 367 -3 q 188 35 246 -1 q 97 134 131 72 q 63 267 63 196 q 97 397 63 338 q 188 490 131 456 q 315 526 246 525 q 425 500 376 526 q 499 432 474 474 l 496 508 m 178 265 q 199 187 178 224 q 255 128 219 150 q 332 106 290 106 q 411 128 375 106 q 468 187 447 150 q 489 265 489 224 q 443 374 489 329 q 332 418 397 418 q 223 374 268 418 q 178 265 178 329 z "},"b":{"ha":711,"x_min":100,"x_max":653,"o":"m 396 526 q 524 492 465 526 q 618 396 583 457 q 653 260 653 335 q 618 129 653 189 q 524 34 583 69 q 396 -3 465 -1 q 294 21 344 -3 q 213 82 244 44 l 217 21 l 217 19 q 211 8 217 13 q 199 4 206 4 l 119 4 q 106 9 113 4 q 100 21 100 14 l 100 957 q 106 970 100 964 q 119 976 113 976 l 199 976 q 211 970 206 976 q 217 957 217 964 l 214 431 q 283 494 233 463 q 396 526 333 526 m 224 256 q 269 148 224 194 q 378 101 315 101 q 484 148 439 101 q 529 256 529 194 q 485 371 529 324 q 378 418 440 418 q 269 371 315 418 q 224 256 224 324 z "},"c":{"ha":518,"x_min":57,"x_max":483,"o":"m 481 74 q 483 65 483 71 q 479 54 483 58 q 315 -3 407 -3 q 271 1 294 -3 q 143 63 199 13 q 68 185 88 114 q 57 260 57 229 q 61 311 57 282 q 124 440 74 383 q 243 515 174 496 q 319 526 278 526 q 456 488 389 526 q 460 467 467 479 l 422 404 q 414 397 421 399 q 400 399 407 396 q 322 421 365 421 q 218 375 258 421 q 178 260 178 329 q 220 151 178 196 q 324 106 263 106 q 414 133 368 106 q 424 136 419 136 q 438 129 432 136 l 481 74 z "},"d":{"ha":710,"x_min":58,"x_max":610,"o":"m 314 526 q 422 499 375 526 q 496 435 469 472 l 494 957 q 500 970 494 964 q 513 976 506 976 l 590 976 q 604 970 599 976 q 610 957 610 964 l 610 21 q 604 9 610 14 q 590 4 599 4 l 513 4 q 499 9 504 4 q 494 21 493 14 l 499 82 q 416 21 465 44 q 314 -3 367 -3 q 186 33 244 -1 q 93 127 128 68 q 58 257 58 186 q 93 394 58 332 q 186 491 128 456 q 314 526 244 526 m 181 256 q 226 148 181 194 q 333 101 272 101 q 441 147 396 101 q 486 256 486 193 q 441 371 486 324 q 333 418 396 418 q 226 371 271 418 q 181 256 181 324 z "},"e":{"ha":608,"x_min":58,"x_max":561,"o":"m 246 8 q 109 101 160 31 q 58 261 58 171 q 67 331 58 296 q 133 456 83 404 q 254 519 182 507 q 311 525 281 525 q 447 485 390 525 q 533 378 504 446 q 554 228 561 311 q 548 216 553 221 q 536 211 543 211 l 183 211 q 224 133 186 168 q 319 97 263 97 q 377 108 346 97 q 432 138 408 118 l 453 154 q 465 158 457 158 q 481 151 476 158 q 517 100 493 138 q 522 85 522 89 q 517 74 522 79 q 440 22 489 46 q 325 -3 390 -3 q 246 8 290 -3 m 453 308 q 405 397 442 364 q 317 429 368 429 q 223 393 261 429 q 181 307 185 357 l 453 308 z "},"f":{"ha":408,"x_min":32,"x_max":485,"o":"m 144 672 q 197 890 144 797 q 379 982 249 982 q 464 972 421 982 q 481 949 485 968 l 464 871 q 456 858 463 863 q 443 857 450 854 q 383 868 413 868 q 263 650 263 868 l 263 519 l 360 519 q 371 516 367 519 q 375 507 375 513 l 375 435 q 360 421 375 421 l 263 421 l 263 31 q 256 12 263 19 q 238 4 249 4 l 167 4 q 151 12 157 4 q 144 31 144 19 l 144 421 l 47 421 q 36 425 40 421 q 32 435 32 429 l 32 507 q 36 516 32 513 q 47 519 40 519 l 144 519 l 144 672 z "},"g":{"ha":690,"x_min":43,"x_max":607,"o":"m 590 519 q 602 515 597 519 q 607 503 607 510 l 607 15 q 547 -200 607 -119 q 349 -281 486 -281 q 282 -276 318 -281 q 268 -268 274 -274 q 263 -254 263 -262 l 264 -185 q 272 -168 264 -175 q 292 -164 281 -161 q 339 -167 308 -167 q 458 -119 426 -167 q 490 17 490 -71 l 492 89 q 401 19 450 42 q 300 -4 351 -4 q 174 31 233 -4 q 79 128 115 67 q 43 264 43 190 q 78 395 43 335 q 174 492 114 456 q 304 528 233 528 q 486 438 406 528 l 483 503 l 483 504 q 488 515 483 511 q 499 519 493 519 l 590 519 m 164 263 q 209 153 164 199 q 318 108 254 108 q 428 155 382 108 q 475 265 475 201 q 428 374 475 329 q 318 419 382 419 q 210 372 256 419 q 164 263 164 325 z "},"h":{"ha":688,"x_min":100,"x_max":611,"o":"m 610 28 q 602 11 610 18 q 585 4 594 4 l 508 4 q 492 10 499 4 q 486 26 486 17 l 486 269 q 452 378 486 342 q 369 415 418 415 q 299 396 333 415 q 244 340 265 376 q 222 258 222 304 l 222 29 q 215 10 222 15 q 194 4 208 4 l 122 4 q 106 10 113 4 q 100 26 100 17 l 100 957 q 106 971 100 965 q 118 976 111 976 l 201 976 q 214 971 208 976 q 219 957 219 965 l 218 447 q 294 506 249 486 q 390 526 339 526 q 498 503 447 526 q 580 434 549 479 q 611 329 611 389 l 610 28 z "},"i":{"ha":311,"x_min":76,"x_max":235,"o":"m 154 801 q 211 778 188 801 q 235 722 235 754 q 211 666 235 689 q 154 643 188 643 q 99 666 122 643 q 76 722 76 689 q 99 778 76 754 q 154 801 122 801 m 96 494 q 103 513 96 506 q 122 519 111 519 l 194 519 q 213 513 206 519 q 221 494 221 506 l 221 31 q 214 12 221 19 q 197 4 207 4 l 122 4 q 103 11 111 4 q 96 29 96 18 l 96 494 z "},"j":{"ha":344,"x_min":13,"x_max":263,"o":"m 243 -35 q 185 -306 243 -235 q 38 -385 128 -378 l 35 -385 q 19 -378 26 -385 q 14 -364 13 -372 l 21 -278 q 26 -264 22 -269 q 38 -260 31 -258 q 107 -206 90 -264 q 124 -62 124 -149 l 124 494 q 131 513 124 506 q 147 519 138 519 l 218 519 q 236 513 229 519 q 243 494 243 506 l 243 -35 m 104 722 q 127 778 104 754 q 182 801 150 801 q 239 777 215 801 q 263 719 263 753 q 240 665 263 688 q 185 643 217 643 q 128 666 151 643 q 104 722 104 689 z "},"k":{"ha":585,"x_min":100,"x_max":565,"o":"m 560 32 q 565 19 565 26 q 560 9 565 14 q 549 4 554 4 l 456 4 l 449 4 q 419 15 429 4 l 253 228 l 221 199 l 222 29 q 215 12 222 19 q 197 4 208 4 l 126 4 q 108 11 115 4 q 100 29 100 18 l 100 950 q 108 969 100 961 q 126 976 115 976 l 197 976 q 215 969 208 976 q 222 950 222 961 l 221 343 l 371 503 q 392 517 382 514 q 419 519 401 519 l 524 519 q 543 507 543 519 q 536 492 543 499 l 340 308 l 560 32 z "},"l":{"ha":325,"x_min":100,"x_max":225,"o":"m 125 4 q 108 12 115 4 q 100 29 100 19 l 100 951 q 108 969 100 961 q 125 976 115 976 l 200 976 q 217 969 210 976 q 225 951 225 961 l 225 31 q 218 13 225 21 q 203 4 211 4 l 125 4 z "},"m":{"ha":1035,"x_min":99,"x_max":958,"o":"m 847 508 q 929 447 900 488 q 958 369 958 407 l 958 28 q 949 12 958 19 q 932 4 940 4 l 856 4 q 839 10 846 4 q 832 26 832 17 l 832 322 q 797 395 832 368 q 715 422 763 422 q 642 403 675 422 q 594 349 608 385 q 593 336 593 346 l 593 29 q 584 12 593 19 q 563 4 575 4 l 488 4 q 472 10 479 4 q 465 26 465 17 l 465 317 q 429 393 465 365 q 343 421 393 421 q 272 403 304 421 q 224 349 239 385 l 224 29 q 216 12 224 19 q 196 4 208 4 l 121 4 q 105 11 111 4 q 99 26 99 18 l 99 497 q 105 513 99 507 q 121 519 111 519 l 193 519 q 210 513 203 519 q 217 497 217 507 l 213 446 q 278 507 236 486 q 372 528 321 528 q 479 503 428 528 q 558 439 531 479 q 640 506 590 482 q 746 529 690 529 q 847 508 800 529 z "},"n":{"ha":682,"x_min":99,"x_max":590,"o":"m 590 29 q 582 10 590 17 q 561 4 574 4 l 490 4 q 475 12 482 4 q 468 29 468 19 l 468 290 q 437 392 468 357 q 360 426 406 426 q 292 407 325 426 q 240 350 260 388 q 219 264 219 313 l 221 31 q 189 4 221 4 l 122 4 q 106 11 113 4 q 99 28 99 18 l 99 499 q 106 514 99 508 q 122 519 113 519 l 192 519 q 207 514 201 519 q 213 499 213 508 l 208 439 q 281 506 233 482 q 382 529 328 529 q 526 476 465 529 q 589 328 588 424 l 590 29 z "},"o":{"ha":644,"x_min":58,"x_max":586,"o":"m 322 -3 q 190 33 250 -3 q 94 129 129 68 q 58 263 58 190 q 94 395 58 335 q 190 491 129 456 q 322 526 250 526 q 455 491 394 526 q 551 395 515 456 q 586 263 586 335 q 551 129 586 190 q 455 33 515 68 q 322 -3 394 -3 m 172 263 q 215 153 172 199 q 319 108 258 108 q 426 153 382 108 q 469 263 469 199 q 445 349 469 314 q 385 400 421 383 q 319 417 350 417 q 216 371 260 417 q 172 263 172 325 z "},"p":{"ha":682,"x_min":69,"x_max":624,"o":"m 624 263 q 589 132 624 193 q 495 34 554 71 q 367 -3 436 -3 q 188 79 260 -1 l 186 -328 q 181 -342 186 -336 q 167 -347 175 -347 l 88 -347 q 75 -342 81 -347 q 69 -328 69 -336 l 71 501 q 76 514 71 508 q 89 519 82 519 l 168 519 q 182 514 176 519 q 188 501 188 508 l 183 440 q 263 502 214 478 q 363 526 313 526 q 494 491 435 526 q 589 395 554 456 q 624 263 624 335 m 197 263 q 242 153 197 200 q 350 107 288 107 q 457 153 413 107 q 501 263 501 200 q 457 370 501 325 q 350 415 413 415 q 242 370 288 415 q 197 263 197 325 z "},"q":{"ha":713,"x_min":58,"x_max":613,"o":"m 58 263 q 93 395 58 335 q 188 491 128 456 q 319 526 247 526 q 419 502 369 526 q 499 440 468 478 l 494 501 q 500 514 494 508 q 514 519 506 519 l 593 519 q 606 514 600 519 q 611 501 611 508 l 613 -328 q 607 -342 613 -336 q 594 -347 601 -347 l 515 -347 q 501 -342 507 -347 q 496 -328 496 -336 l 494 79 q 315 -3 422 -1 q 187 34 246 -3 q 93 132 128 71 q 58 263 58 193 m 181 263 q 225 153 181 200 q 332 107 269 107 q 440 153 394 107 q 485 263 485 200 q 440 370 485 325 q 332 415 394 415 q 225 370 269 415 q 181 263 181 325 z "},"r":{"ha":393,"x_min":69,"x_max":381,"o":"m 364 519 q 381 501 381 515 q 378 488 381 496 q 354 424 361 436 q 335 411 347 411 q 313 413 328 411 q 282 415 299 415 q 215 388 240 415 q 186 335 190 360 l 186 29 q 157 4 186 4 l 92 4 q 76 11 82 4 q 69 28 69 18 l 69 496 q 76 513 69 506 q 92 519 82 519 l 160 519 q 176 513 169 519 q 182 496 183 506 l 178 444 q 241 506 203 485 q 319 526 279 526 q 364 519 340 526 z "},"s":{"ha":496,"x_min":42,"x_max":444,"o":"m 276 306 q 399 245 353 285 q 440 135 444 206 q 381 34 436 71 q 249 -3 325 -3 q 143 17 194 -3 q 57 76 92 38 q 42 110 42 96 q 51 125 42 121 l 97 143 q 126 151 114 151 q 154 136 143 151 q 197 103 171 114 q 251 93 224 93 q 301 106 281 93 q 322 142 322 119 q 297 185 322 167 q 189 229 271 203 q 88 290 118 253 q 57 372 57 328 q 65 421 57 399 q 124 494 79 463 q 244 526 169 526 q 356 501 304 526 q 432 429 407 476 q 435 419 435 421 q 421 403 435 410 l 382 386 q 349 378 365 378 q 325 389 333 378 q 290 421 313 410 q 242 432 267 432 q 190 417 211 432 q 169 374 169 403 q 194 336 169 350 q 276 306 219 322 z "},"t":{"ha":439,"x_min":38,"x_max":401,"o":"m 261 214 q 276 133 261 158 q 310 103 292 107 q 358 99 328 99 q 381 90 375 101 q 385 38 386 78 q 381 16 385 24 q 364 6 378 8 q 307 -1 339 -1 q 192 43 239 -1 q 144 201 144 88 l 144 421 l 58 421 q 44 427 50 421 q 38 443 38 433 l 38 499 q 44 513 38 507 q 58 519 50 519 l 144 519 l 144 776 q 151 794 144 788 q 168 800 158 800 l 244 800 q 262 794 256 800 q 268 776 268 788 l 268 519 l 381 519 q 395 513 389 519 q 401 499 401 507 l 401 443 q 395 428 401 435 q 381 421 389 421 l 261 421 l 261 214 z "},"u":{"ha":682,"x_min":92,"x_max":583,"o":"m 560 519 q 576 513 568 519 q 583 496 583 506 l 583 25 q 576 10 583 17 q 560 4 568 4 l 490 4 q 474 10 481 4 q 469 25 468 15 l 474 86 q 403 18 450 42 q 301 -6 356 -6 q 200 17 247 -6 q 123 85 153 40 q 93 196 93 131 l 92 494 q 100 513 92 507 q 121 519 108 519 l 190 519 q 206 512 199 519 q 214 494 214 504 l 214 235 q 247 129 214 165 q 325 93 279 93 q 392 113 360 93 q 443 171 424 133 q 463 260 463 208 l 460 493 q 492 519 460 519 l 560 519 z "},"v":{"ha":565,"x_min":19,"x_max":550,"o":"m 522 519 q 542 508 535 519 q 544 485 550 497 l 343 22 q 317 4 335 4 l 250 4 q 229 13 235 4 q 222 22 224 21 l 22 485 q 19 496 19 493 q 27 513 19 506 q 44 519 35 519 l 131 519 q 153 504 147 519 l 282 151 l 414 504 q 436 519 419 519 l 522 519 z "},"w":{"ha":889,"x_min":44,"x_max":844,"o":"m 819 519 q 838 515 831 519 q 844 500 844 510 q 842 486 844 492 l 675 25 q 665 10 672 17 q 646 4 657 4 l 586 4 q 560 25 571 4 l 444 329 l 329 25 q 319 10 326 17 q 303 4 313 4 l 243 4 q 214 25 225 4 l 47 486 q 44 500 44 492 q 52 515 44 510 q 69 519 60 519 l 140 519 q 165 514 157 519 q 175 494 172 508 l 269 167 l 403 504 q 425 519 407 519 l 467 519 q 488 506 482 519 l 619 167 l 714 494 q 725 513 717 507 q 750 519 733 519 l 819 519 z "},"x":{"ha":588,"x_min":46,"x_max":540,"o":"m 50 494 q 46 507 46 503 q 65 519 46 519 l 153 519 q 188 503 178 519 l 288 342 l 383 506 q 417 519 390 519 l 494 519 q 515 508 515 519 q 511 494 515 503 l 372 263 l 535 29 q 540 17 540 24 q 518 4 540 4 l 435 4 q 400 21 408 4 l 292 183 l 189 13 q 167 4 183 4 l 72 4 q 58 8 64 4 q 53 19 53 13 q 57 31 53 25 l 207 269 l 50 494 z "},"y":{"ha":547,"x_min":17,"x_max":532,"o":"m 501 519 q 524 509 515 519 q 526 488 532 499 l 214 -328 q 203 -342 211 -336 q 185 -347 194 -347 l 121 -347 q 101 -336 108 -347 q 97 -314 93 -325 l 233 42 l 19 488 q 17 499 17 496 q 23 513 17 507 q 39 519 29 519 l 121 519 q 144 506 139 519 l 283 197 l 400 506 q 422 519 404 519 l 501 519 z "},"z":{"ha":514,"x_min":50,"x_max":472,"o":"m 68 4 q 54 14 58 4 q 56 31 50 24 l 288 415 l 69 415 q 56 423 63 415 q 50 438 50 431 l 50 503 q 69 522 50 522 l 444 519 q 458 510 454 519 q 456 493 463 500 l 228 113 l 450 113 q 466 106 461 113 q 471 93 471 100 l 472 25 q 466 9 472 14 q 453 4 460 4 l 68 4 z "},"{":{"ha":461,"x_min":21,"x_max":440,"o":"m 417 879 q 277 851 315 882 q 239 760 239 821 q 250 667 239 733 q 261 563 261 597 q 254 507 261 529 q 221 438 239 456 q 187 414 203 419 q 171 403 171 408 q 188 392 171 397 q 222 367 204 386 q 254 300 239 349 q 261 244 261 278 q 249 140 261 203 q 238 46 238 74 q 276 -45 238 -14 q 417 -74 315 -76 l 419 -74 q 434 -79 428 -74 q 440 -93 440 -85 l 440 -140 q 434 -155 440 -149 q 419 -161 428 -161 l 415 -161 q 231 -133 294 -162 q 148 -52 168 -104 q 128 83 128 0 l 129 165 q 132 285 133 228 q 112 334 131 321 q 60 354 93 347 q 44 358 57 356 q 26 366 32 361 q 21 378 21 371 l 21 429 q 30 443 21 439 q 58 451 39 447 q 111 472 92 458 q 132 522 131 486 q 129 642 133 579 l 128 724 q 148 859 128 807 q 231 940 168 911 q 415 967 294 969 l 419 967 q 434 960 428 967 q 440 946 440 954 l 440 899 q 434 885 440 890 q 419 879 428 879 l 417 879 z "},"}":{"ha":461,"x_min":21,"x_max":440,"o":"m 42 879 q 27 885 33 879 q 21 899 21 890 l 21 946 q 27 960 21 954 q 42 967 33 967 l 46 967 q 229 941 167 969 q 312 861 292 913 q 332 726 332 810 l 331 644 q 328 592 331 631 q 328 522 326 554 q 349 472 329 486 q 403 451 369 458 q 430 443 421 447 q 440 429 439 439 l 440 378 q 431 364 439 368 q 401 354 424 360 q 348 334 367 347 q 328 285 329 321 q 328 215 326 253 q 331 163 331 176 l 332 81 q 312 -54 332 -3 q 229 -134 292 -106 q 46 -161 167 -162 l 42 -161 q 27 -155 33 -161 q 21 -140 21 -149 l 21 -93 q 27 -79 21 -85 q 42 -74 33 -74 l 43 -74 q 183 -45 144 -76 q 222 47 222 -14 q 211 140 222 74 q 200 244 200 210 q 207 300 200 278 q 240 368 222 350 q 274 392 258 386 q 290 403 290 397 q 274 414 290 408 q 240 439 257 419 q 207 507 222 458 q 200 563 200 529 q 211 665 200 599 q 222 758 222 732 q 183 851 222 819 q 43 879 144 882 l 42 879 z "}," ":{"ha":388,"x_min":0,"x_max":0,"o":""},"¡":{"ha":290,"x_min":67,"x_max":225,"o":"m 144 972 q 201 949 178 972 q 225 893 225 925 q 201 837 225 860 q 144 814 178 814 q 90 837 113 814 q 67 893 67 860 q 90 949 67 925 q 144 972 113 972 m 96 686 q 103 704 96 697 q 121 711 110 711 l 176 711 q 194 704 188 711 q 201 686 201 697 l 214 25 q 206 8 214 15 q 189 0 199 0 l 101 0 q 82 8 89 0 q 75 25 75 15 l 96 686 z "},"«":{"ha":538,"x_min":38,"x_max":483,"o":"m 279 182 q 282 174 282 176 q 278 165 282 168 q 268 161 274 161 l 186 161 q 164 172 172 161 l 42 326 q 38 336 38 333 q 42 350 38 342 l 163 508 q 186 519 168 519 l 268 519 q 280 513 276 519 q 279 499 283 507 l 153 338 l 279 182 m 240 325 q 236 336 236 332 q 240 349 236 340 l 361 507 q 385 518 368 518 l 467 518 q 479 512 475 518 q 478 499 483 506 l 351 338 l 478 181 q 481 172 481 175 q 476 163 481 167 q 467 160 472 160 l 385 160 q 363 171 371 160 l 240 325 z "},"­":{"ha":0,"x_min":0,"x_max":0,"o":""},"·":{"ha":303,"x_min":65,"x_max":236,"o":"m 236 313 q 211 251 236 276 q 151 225 186 225 q 90 251 115 225 q 65 313 65 276 q 90 373 65 349 q 151 397 115 397 q 211 372 186 397 q 236 313 236 347 z "},"»":{"ha":538,"x_min":53,"x_max":499,"o":"m 58 499 q 56 507 56 504 q 60 515 56 511 q 69 518 64 518 l 151 518 q 175 507 168 518 l 296 349 q 300 336 300 340 q 296 325 300 332 l 174 171 q 151 160 165 160 l 69 160 q 57 166 61 160 q 58 181 53 172 l 185 338 l 58 499 m 385 338 l 257 499 q 254 507 254 504 q 258 516 254 513 q 268 519 263 519 l 350 519 q 374 508 368 519 l 494 350 q 499 337 499 342 q 494 326 499 332 l 372 172 q 350 161 364 161 l 268 161 q 256 167 260 161 q 257 182 253 174 l 385 338 z "},"¿":{"ha":329,"x_min":-104,"x_max":417,"o":"m -67 375 q 15 500 -44 422 q 86 603 63 561 q 108 686 110 644 l 108 689 q 115 703 108 697 q 129 708 121 708 l 215 708 q 228 703 222 708 q 236 689 235 697 q 213 583 240 635 q 129 453 186 532 q 43 322 67 372 q 19 233 19 276 q 60 135 19 174 q 156 97 100 97 q 240 124 200 97 q 304 207 279 151 q 321 222 310 222 q 329 219 324 222 l 404 175 q 413 167 410 174 q 417 156 417 161 q 414 144 417 149 q 300 20 369 61 q 153 -21 231 -21 q 26 10 85 -21 q -69 96 -33 40 q -104 224 -104 151 q -67 375 -104 296 m 89 890 q 112 946 89 922 q 168 969 135 969 q 225 946 201 969 q 249 890 249 922 q 225 832 249 856 q 168 808 201 808 q 112 832 135 808 q 89 890 89 856 z "},"–":{"ha":735,"x_min":104,"x_max":631,"o":"m 104 394 q 111 410 104 404 q 128 417 118 417 l 606 417 q 624 410 617 417 q 631 392 631 403 l 631 332 q 624 313 631 321 q 606 306 617 306 l 129 306 q 111 313 118 306 q 104 332 104 321 l 104 392 l 104 394 z "},"—":{"ha":961,"x_min":104,"x_max":857,"o":"m 104 381 q 111 397 104 390 q 128 403 118 403 l 833 403 q 850 396 843 403 q 857 378 857 389 l 857 318 q 850 299 857 307 q 833 292 843 292 l 129 292 q 111 299 118 292 q 104 318 104 307 l 104 378 l 104 381 z "},"‘":{"ha":232,"x_min":39,"x_max":189,"o":"m 117 843 q 165 830 142 846 q 189 772 189 814 q 166 722 188 739 q 117 704 144 704 q 77 714 94 704 q 50 742 60 724 q 39 788 39 767 q 51 844 39 811 q 82 901 61 868 q 128 961 103 933 q 144 972 139 972 l 172 972 q 181 965 179 972 q 176 953 182 958 q 140 898 158 932 q 117 843 121 864 z "},"’":{"ha":229,"x_min":46,"x_max":196,"o":"m 119 839 q 70 852 94 836 q 46 910 46 868 q 69 960 47 943 q 118 978 90 978 q 158 968 140 978 q 185 940 175 958 q 196 892 196 921 q 185 838 196 865 q 154 782 175 814 q 108 721 133 750 q 90 710 97 710 l 64 710 q 56 717 57 710 q 60 729 54 724 q 95 785 76 751 q 119 839 114 818 z "},"‚":{"ha":272,"x_min":60,"x_max":210,"o":"m 133 4 q 83 19 107 3 q 60 75 60 35 q 83 126 61 108 q 133 144 104 144 q 172 135 154 144 q 199 107 189 125 q 210 58 210 85 q 199 3 210 32 q 168 -53 189 -21 q 122 -114 147 -85 q 104 -124 111 -124 l 78 -124 q 69 -117 71 -124 q 74 -106 68 -111 q 109 -50 90 -85 q 133 4 128 -15 z "},"“":{"ha":425,"x_min":39,"x_max":382,"o":"m 117 843 q 165 830 142 846 q 189 772 189 814 q 166 722 188 739 q 117 704 144 704 q 77 714 94 704 q 50 742 60 724 q 39 788 39 767 q 51 844 39 811 q 82 901 61 868 q 128 961 103 933 q 144 972 139 972 l 172 972 q 181 965 179 972 q 176 953 182 958 q 140 898 158 932 q 117 843 121 864 m 242 742 q 231 788 231 767 q 243 844 231 811 q 274 901 253 868 q 319 961 294 933 q 338 972 331 972 l 364 972 q 372 965 371 972 q 368 953 374 958 q 331 897 350 931 q 308 843 313 863 q 358 830 333 846 q 382 772 382 814 q 359 722 381 739 q 308 704 338 704 q 269 714 286 704 q 242 742 251 724 z "},"”":{"ha":422,"x_min":46,"x_max":389,"o":"m 119 840 q 70 853 94 838 q 46 911 46 869 q 69 962 47 944 q 118 979 90 979 q 158 969 140 979 q 185 942 175 960 q 196 893 196 922 q 185 839 196 867 q 154 783 175 815 q 108 722 133 751 q 90 711 97 711 l 64 711 q 56 718 57 711 q 60 731 54 725 q 95 786 76 753 q 119 840 114 819 m 238 911 q 260 962 239 944 q 310 979 282 979 q 350 969 332 979 q 378 942 368 960 q 389 896 389 917 q 376 839 389 872 q 346 783 367 815 q 300 722 325 750 q 282 711 289 711 l 256 711 q 247 718 249 711 q 251 731 246 725 q 287 786 268 753 q 311 840 306 819 q 262 853 286 838 q 238 911 238 869 z "},"„":{"ha":465,"x_min":60,"x_max":403,"o":"m 133 -8 q 83 6 107 -10 q 60 64 60 22 q 83 115 61 97 q 132 132 104 132 q 172 122 154 132 q 199 94 189 113 q 210 46 210 72 q 199 -8 210 19 q 168 -65 189 -33 q 122 -125 147 -97 q 104 -136 111 -136 l 78 -136 q 69 -130 71 -136 q 74 -118 68 -124 q 109 -62 90 -96 q 133 -8 128 -28 m 251 64 q 274 115 253 97 q 324 132 296 132 q 363 122 346 132 q 390 94 381 113 q 403 47 403 72 q 390 -8 403 25 q 360 -66 381 -33 q 314 -125 339 -99 q 296 -136 303 -136 l 269 -136 q 261 -130 263 -136 q 265 -118 260 -124 q 301 -62 282 -96 q 325 -8 319 -28 q 275 6 299 -10 q 251 64 251 22 z "},"•":{"ha":397,"x_min":83,"x_max":314,"o":"m 197 468 q 279 434 244 468 q 314 354 314 400 q 280 272 314 306 q 197 239 246 239 q 116 272 149 239 q 83 354 83 306 q 117 434 83 400 q 197 468 150 468 z "},"…":{"ha":303,"x_min":69,"x_max":233,"o":"m 233 71 q 208 15 233 38 q 150 -8 183 -8 q 92 15 114 -8 q 69 71 69 38 q 94 128 69 106 q 153 151 118 151 q 210 128 186 151 q 233 71 233 104 z "},"™":{"ha":608,"x_min":56,"x_max":538,"o":"m 233 253 q 243 243 243 253 l 243 211 q 233 201 243 201 l 178 201 l 178 10 q 168 0 178 0 l 131 0 q 119 10 119 0 l 119 201 l 65 201 q 56 211 56 201 l 56 243 q 65 253 56 253 l 233 253 m 282 243 q 285 250 282 247 q 293 253 289 253 l 328 253 q 338 247 333 253 l 399 90 l 461 247 q 471 253 465 253 l 506 253 q 514 250 511 253 q 517 243 517 247 l 538 11 q 535 3 538 7 q 528 0 532 0 l 490 0 q 479 10 479 0 l 469 143 l 418 8 q 412 1 417 3 q 399 0 407 0 q 386 1 389 0 q 381 8 383 3 l 329 143 l 318 10 q 308 0 318 0 l 271 0 q 264 3 267 0 q 261 11 261 7 l 282 243 z "},"Ă":{"ha":921,"x_min":17,"x_max":900,"o":"m 899 24 q 900 15 900 21 q 894 3 900 8 q 881 -1 888 -1 l 779 -1 q 761 11 765 -1 l 664 276 l 263 276 l 160 13 q 142 0 156 0 l 38 0 q 23 6 29 0 q 21 24 17 13 l 390 950 q 402 965 394 960 q 418 971 410 971 l 513 971 q 533 965 524 971 q 544 950 542 960 l 899 24 m 300 1169 q 306 1183 300 1176 q 319 1189 311 1189 l 364 1189 q 376 1184 371 1189 q 383 1172 382 1179 q 410 1128 389 1146 q 460 1110 432 1110 q 507 1128 486 1110 q 535 1172 528 1146 q 541 1184 536 1179 q 553 1189 546 1189 l 603 1189 q 617 1182 611 1189 q 622 1167 624 1175 q 568 1067 614 1107 q 461 1026 522 1026 q 353 1067 399 1026 q 300 1167 307 1107 l 300 1169 m 619 394 l 467 806 l 307 394 l 619 394 z "},"Ä":{"ha":936,"x_min":25,"x_max":908,"o":"m 907 24 q 908 15 908 21 q 902 3 908 8 q 889 -1 896 -1 l 788 -1 q 769 11 774 -1 l 672 276 l 271 276 l 168 13 q 150 0 164 0 l 46 0 q 31 6 38 0 q 29 24 25 13 l 399 950 q 410 965 401 960 q 426 971 418 971 l 521 971 q 541 965 532 971 q 553 950 550 960 l 907 24 m 628 394 l 475 806 l 315 394 l 628 394 m 322 1192 q 369 1173 350 1192 q 388 1126 388 1154 q 369 1081 388 1100 q 322 1063 350 1063 q 277 1081 296 1063 q 258 1126 258 1100 q 277 1173 258 1154 q 322 1192 296 1192 m 493 1126 q 511 1173 493 1154 q 557 1192 529 1192 q 603 1173 583 1192 q 622 1126 622 1154 q 603 1081 622 1100 q 557 1063 583 1063 q 512 1081 531 1063 q 493 1126 493 1100 z "},"Ā":{"ha":921,"x_min":17,"x_max":900,"o":"m 899 24 q 900 15 900 21 q 894 3 900 8 q 881 -1 888 -1 l 779 -1 q 761 11 765 -1 l 664 276 l 263 276 l 160 13 q 142 0 156 0 l 38 0 q 23 6 29 0 q 21 24 17 13 l 390 950 q 402 965 394 960 q 418 971 410 971 l 513 971 q 533 965 524 971 q 544 950 542 960 l 899 24 m 269 1119 q 276 1138 269 1131 q 293 1146 283 1146 l 639 1146 q 657 1138 650 1146 q 664 1119 664 1131 l 664 1074 q 657 1055 664 1063 q 639 1047 650 1047 l 294 1047 q 276 1055 283 1047 q 269 1074 269 1063 l 269 1119 m 619 394 l 467 806 l 307 394 l 619 394 z "},"Ą":{"ha":850,"x_min":17,"x_max":900,"o":"m 899 24 q 900 15 900 21 q 894 3 900 8 q 881 -1 888 -1 l 779 -1 q 761 11 765 -1 l 664 276 l 263 276 l 160 13 q 147 1 157 4 q 121 -48 132 -21 q 110 -99 110 -75 q 160 -147 110 -146 q 186 -142 175 -147 q 193 -140 189 -140 q 206 -146 200 -140 q 211 -158 211 -151 l 211 -200 q 197 -218 211 -214 q 160 -222 181 -222 q 54 -191 89 -222 q 19 -112 19 -160 q 32 -54 19 -85 q 65 0 44 -24 l 38 0 q 23 6 29 0 q 21 24 17 13 l 390 950 q 402 965 394 960 q 418 971 410 971 l 513 971 q 533 965 524 971 q 544 950 542 960 l 899 24 m 619 394 l 467 806 l 307 394 l 619 394 z "},"Æ":{"ha":1421,"x_min":0,"x_max":1326,"o":"m 746 394 l 750 482 l 750 786 l 447 394 l 746 394 m 731 950 q 764 971 747 971 q 772 972 767 972 l 1306 972 q 1320 966 1314 972 q 1326 951 1326 960 l 1326 868 q 1320 853 1326 860 q 1306 847 1314 847 l 885 847 l 885 540 l 1249 540 q 1263 535 1257 540 q 1269 521 1269 529 l 1269 444 q 1263 429 1269 435 q 1249 424 1257 424 l 883 424 l 883 125 l 1303 125 q 1319 119 1311 125 q 1326 104 1326 113 l 1326 21 q 1321 6 1326 13 q 1306 0 1315 0 l 864 0 q 856 -1 861 -1 l 754 -1 q 740 11 740 -1 l 744 276 l 357 276 l 153 13 q 131 0 144 0 l 13 0 q 0 10 0 0 q 6 24 0 17 l 731 950 z "},"Ć":{"ha":893,"x_min":85,"x_max":817,"o":"m 808 97 q 811 85 811 89 q 797 61 811 67 q 554 -8 681 -8 q 322 56 429 -8 q 149 234 214 121 q 85 488 85 347 q 151 740 85 628 q 326 917 217 853 q 560 981 435 981 q 806 911 688 981 q 815 899 813 907 q 813 883 817 890 q 771 837 788 854 q 747 817 754 819 q 732 818 740 814 q 564 863 651 863 q 393 814 472 863 q 267 680 314 765 q 219 488 219 594 q 267 297 219 382 q 395 163 315 211 q 567 114 475 114 q 732 157 651 114 q 743 161 739 161 q 767 144 751 161 q 808 97 782 128 m 481 1183 q 501 1208 492 1200 q 535 1215 511 1215 l 631 1215 q 649 1210 642 1215 q 656 1199 656 1206 q 647 1183 656 1192 l 536 1085 q 474 1058 507 1058 l 429 1058 q 414 1072 414 1058 q 421 1092 414 1082 l 481 1183 z "},"Č":{"ha":893,"x_min":85,"x_max":817,"o":"m 808 97 q 811 85 811 89 q 797 61 811 67 q 554 -8 681 -8 q 322 56 429 -8 q 149 234 214 121 q 85 488 85 347 q 151 740 85 628 q 326 917 217 853 q 560 981 435 981 q 806 911 688 981 q 815 899 813 907 q 813 883 817 890 q 771 837 788 854 q 747 817 754 819 q 732 818 740 814 q 564 863 651 863 q 393 814 472 863 q 267 680 314 765 q 219 488 219 594 q 267 297 219 382 q 395 163 315 211 q 567 114 475 114 q 732 157 651 114 q 743 161 739 161 q 767 144 751 161 q 808 97 782 128 m 347 1185 q 338 1203 338 1194 q 343 1212 338 1208 q 356 1215 349 1215 l 403 1215 q 438 1212 426 1215 q 457 1199 449 1208 l 510 1135 l 564 1199 q 584 1212 574 1208 q 618 1215 594 1215 l 668 1215 q 681 1201 681 1215 q 674 1185 681 1192 l 567 1071 q 553 1060 560 1063 q 532 1058 547 1058 l 496 1058 q 473 1061 479 1058 q 460 1071 467 1064 l 347 1185 z "},"Ċ":{"ha":893,"x_min":85,"x_max":817,"o":"m 808 97 q 811 85 811 89 q 797 61 811 67 q 554 -8 681 -8 q 322 56 429 -8 q 149 234 214 121 q 85 488 85 347 q 151 740 85 628 q 326 917 217 853 q 560 981 435 981 q 806 911 688 981 q 815 899 813 907 q 813 883 817 890 q 771 837 788 854 q 747 817 754 819 q 732 818 740 814 q 564 863 651 863 q 393 814 472 863 q 267 680 314 765 q 219 488 219 594 q 267 297 219 382 q 395 163 315 211 q 567 114 475 114 q 732 157 651 114 q 743 161 739 161 q 767 144 751 161 q 808 97 782 128 m 442 1125 q 466 1185 442 1161 q 525 1210 490 1210 q 584 1185 560 1210 q 608 1125 608 1161 q 584 1067 608 1090 q 525 1043 560 1043 q 466 1067 490 1043 q 442 1125 442 1090 z "},"Ð":{"ha":1094,"x_min":96,"x_max":1008,"o":"m 1008 485 q 947 240 1008 351 q 779 65 886 129 q 540 0 672 0 l 253 0 q 238 6 244 0 q 232 21 232 13 l 232 436 l 121 436 q 103 444 110 436 q 96 463 96 451 l 96 522 q 103 541 96 533 q 119 549 110 549 l 232 549 l 232 951 q 238 966 232 960 q 253 972 244 972 l 540 972 q 781 907 674 972 q 948 730 888 842 q 1008 485 1008 618 m 538 129 q 714 176 636 129 q 835 306 792 224 q 879 489 879 388 q 836 669 879 589 q 715 797 793 750 q 539 843 638 843 l 363 843 l 363 549 l 563 549 q 581 541 574 549 q 588 522 588 533 l 588 463 q 581 444 588 451 q 563 436 574 436 l 363 436 l 363 129 l 538 129 z "},"Ď":{"ha":1018,"x_min":156,"x_max":932,"o":"m 932 485 q 871 240 932 351 q 703 65 810 129 q 464 0 596 0 l 176 0 q 162 6 168 0 q 156 21 156 13 l 156 951 q 162 966 156 960 q 176 972 168 972 l 464 972 q 704 907 597 972 q 872 730 811 842 q 932 485 932 618 m 461 129 q 638 176 560 129 q 759 306 715 224 q 803 489 803 388 q 760 669 803 589 q 639 797 717 750 q 463 843 561 843 l 286 843 l 286 129 l 461 129 m 304 1183 q 294 1201 294 1193 q 300 1210 294 1207 q 313 1214 306 1214 l 360 1214 q 394 1210 383 1214 q 414 1197 406 1207 l 467 1133 l 521 1197 q 541 1210 531 1207 q 575 1214 551 1214 l 625 1214 q 638 1200 638 1214 q 631 1183 638 1190 l 524 1069 q 510 1059 517 1061 q 489 1057 504 1057 l 453 1057 q 430 1060 436 1057 q 417 1069 424 1063 l 304 1183 z "},"Đ":{"ha":1094,"x_min":96,"x_max":1008,"o":"m 1008 485 q 947 240 1008 351 q 779 65 886 129 q 540 0 672 0 l 253 0 q 238 6 244 0 q 232 21 232 13 l 232 436 l 121 436 q 103 444 110 436 q 96 463 96 451 l 96 522 q 103 541 96 533 q 119 549 110 549 l 232 549 l 232 951 q 238 966 232 960 q 253 972 244 972 l 540 972 q 781 907 674 972 q 948 730 888 842 q 1008 485 1008 618 m 538 129 q 714 176 636 129 q 835 306 792 224 q 879 489 879 388 q 836 669 879 589 q 715 797 793 750 q 539 843 638 843 l 363 843 l 363 549 l 563 549 q 581 541 574 549 q 588 522 588 533 l 588 463 q 581 444 588 451 q 563 436 574 436 l 363 436 l 363 129 l 538 129 z "},"Ě":{"ha":826,"x_min":156,"x_max":732,"o":"m 708 125 q 724 119 717 125 q 732 104 732 113 l 732 21 q 726 6 732 13 q 711 0 721 0 l 178 0 q 162 6 168 0 q 156 21 156 13 l 156 951 q 162 966 156 960 q 178 972 168 972 l 711 972 q 726 966 719 972 q 732 951 732 960 l 732 868 q 726 853 732 860 q 711 847 719 847 l 288 847 l 288 540 l 654 540 q 669 535 663 540 q 675 521 675 529 l 675 444 q 669 429 675 435 q 654 424 663 424 l 288 424 l 288 125 l 708 125 m 286 1183 q 276 1201 276 1193 q 282 1210 276 1207 q 294 1214 288 1214 l 342 1214 q 376 1210 365 1214 q 396 1197 388 1207 l 449 1133 l 503 1197 q 523 1210 513 1207 q 557 1214 533 1214 l 607 1214 q 619 1200 619 1214 q 613 1183 619 1190 l 506 1069 q 492 1059 499 1061 q 471 1057 486 1057 l 435 1057 q 412 1060 418 1057 q 399 1069 406 1063 l 286 1183 z "},"Ė":{"ha":826,"x_min":156,"x_max":732,"o":"m 708 125 q 724 119 717 125 q 732 104 732 113 l 732 21 q 726 6 732 13 q 711 0 721 0 l 178 0 q 162 6 168 0 q 156 21 156 13 l 156 951 q 162 966 156 960 q 178 972 168 972 l 711 972 q 726 966 719 972 q 732 951 732 960 l 732 868 q 726 853 732 860 q 711 847 719 847 l 288 847 l 288 540 l 654 540 q 669 535 663 540 q 675 521 675 529 l 675 444 q 669 429 675 435 q 654 424 663 424 l 288 424 l 288 125 l 708 125 m 361 1126 q 385 1187 361 1163 q 444 1211 410 1211 q 503 1187 479 1211 q 528 1126 528 1163 q 503 1068 528 1092 q 444 1044 479 1044 q 385 1068 410 1044 q 361 1126 361 1092 z "},"Ē":{"ha":826,"x_min":156,"x_max":732,"o":"m 708 125 q 724 119 717 125 q 732 104 732 113 l 732 21 q 726 6 732 13 q 711 0 721 0 l 178 0 q 162 6 168 0 q 156 21 156 13 l 156 951 q 162 966 156 960 q 178 972 168 972 l 711 972 q 726 966 719 972 q 732 951 732 960 l 732 868 q 726 853 732 860 q 711 847 719 847 l 288 847 l 288 540 l 654 540 q 669 535 663 540 q 675 521 675 529 l 675 444 q 669 429 675 435 q 654 424 663 424 l 288 424 l 288 125 l 708 125 m 249 1133 q 256 1152 249 1144 q 272 1160 263 1160 l 618 1160 q 636 1152 629 1160 q 643 1133 643 1144 l 643 1088 q 636 1069 643 1076 q 618 1061 629 1061 l 274 1061 q 256 1069 263 1061 q 249 1088 249 1076 l 249 1133 z "},"Ę":{"ha":781,"x_min":156,"x_max":779,"o":"m 708 125 q 724 119 717 125 q 732 104 732 113 l 732 21 q 724 4 732 8 q 692 -49 706 -17 q 678 -106 678 -81 q 728 -154 678 -153 q 754 -149 743 -154 q 761 -147 757 -147 q 774 -153 768 -147 q 779 -165 779 -158 l 779 -207 q 765 -225 779 -221 q 728 -229 749 -229 q 622 -199 656 -229 q 588 -121 588 -168 q 601 -58 588 -90 q 639 0 615 -25 l 178 0 q 162 6 168 0 q 156 21 156 13 l 156 951 q 162 966 156 960 q 178 972 168 972 l 711 972 q 726 966 719 972 q 732 951 732 960 l 732 868 q 726 853 732 860 q 711 847 719 847 l 288 847 l 288 540 l 654 540 q 669 535 663 540 q 675 521 675 529 l 675 444 q 669 429 675 435 q 654 424 663 424 l 288 424 l 288 125 l 708 125 z "},"Ẽ":{"ha":776,"x_min":131,"x_max":707,"o":"m 683 125 q 699 119 692 125 q 707 104 707 113 l 707 21 q 701 6 707 13 q 686 0 696 0 l 153 0 q 137 6 143 0 q 131 21 131 13 l 131 951 q 137 966 131 960 q 153 972 143 972 l 686 972 q 701 966 694 972 q 707 951 707 960 l 707 868 q 701 853 707 860 q 686 847 694 847 l 263 847 l 263 540 l 629 540 q 644 535 638 540 q 650 521 650 529 l 650 444 q 644 429 650 435 q 629 424 638 424 l 263 424 l 263 125 l 683 125 m 583 1232 q 600 1218 596 1232 q 606 1174 606 1197 q 572 1085 606 1117 q 489 1053 538 1053 q 422 1071 453 1053 q 375 1124 392 1089 q 338 1158 356 1158 q 318 1142 325 1158 q 311 1103 311 1126 l 311 1100 q 308 1090 311 1094 q 301 1083 306 1085 l 229 1072 l 225 1071 q 215 1075 219 1071 q 211 1085 211 1079 q 210 1107 210 1092 q 247 1208 210 1169 q 336 1246 285 1246 q 402 1226 371 1246 q 453 1169 433 1207 q 488 1140 471 1140 q 507 1181 507 1140 q 506 1204 507 1196 l 506 1207 q 515 1222 506 1218 l 579 1232 l 583 1232 z "},"Ğ":{"ha":1010,"x_min":85,"x_max":906,"o":"m 85 486 q 160 764 85 650 q 345 933 235 878 q 564 989 456 989 q 707 970 631 989 q 843 900 783 951 q 851 883 851 894 q 846 869 851 875 l 797 810 q 782 803 790 803 q 771 806 779 803 q 574 868 679 868 q 393 818 475 868 q 263 679 311 768 q 215 476 215 590 q 264 290 215 375 q 394 156 313 206 q 574 107 476 107 q 686 119 629 107 q 774 156 743 131 l 774 401 l 594 401 q 580 408 586 401 q 574 422 574 414 l 574 496 q 580 510 574 504 q 594 517 586 517 l 886 517 q 900 510 894 517 q 906 496 906 504 l 906 161 q 904 110 906 115 q 848 49 892 78 q 733 1 804 19 q 576 -17 663 -17 q 328 51 442 -17 q 150 233 215 118 q 85 486 85 349 m 369 1192 q 375 1205 369 1199 q 389 1211 381 1211 l 433 1211 q 446 1206 440 1211 q 453 1194 451 1201 q 480 1150 458 1168 q 529 1132 501 1132 q 576 1150 556 1132 q 604 1194 597 1168 q 610 1206 606 1201 q 622 1211 615 1211 l 672 1211 q 687 1204 681 1211 q 692 1189 693 1197 q 638 1089 683 1129 q 531 1049 592 1049 q 422 1089 468 1049 q 369 1189 376 1129 l 369 1192 z "},"Ģ":{"ha":1010,"x_min":85,"x_max":906,"o":"m 85 486 q 160 764 85 650 q 345 933 235 878 q 564 989 456 989 q 707 970 631 989 q 843 900 783 951 q 851 883 851 894 q 846 869 851 875 l 797 810 q 782 803 790 803 q 771 806 779 803 q 574 868 679 868 q 393 818 475 868 q 263 679 311 768 q 215 476 215 590 q 264 290 215 375 q 394 156 313 206 q 574 107 476 107 q 686 119 629 107 q 774 156 743 131 l 774 401 l 594 401 q 580 408 586 401 q 574 422 574 414 l 574 496 q 580 510 574 504 q 594 517 586 517 l 886 517 q 900 510 894 517 q 906 496 906 504 l 906 161 q 904 110 906 115 q 848 49 892 78 q 733 1 804 19 q 576 -17 663 -17 q 328 51 442 -17 q 150 233 215 118 q 85 486 85 349 m 528 -114 q 545 -96 538 -100 q 574 -92 553 -92 l 618 -92 q 633 -106 633 -92 q 629 -121 633 -112 l 572 -244 q 554 -268 565 -260 q 518 -276 543 -276 l 458 -276 q 435 -261 435 -276 q 442 -244 435 -256 l 528 -114 z "},"Ġ":{"ha":1010,"x_min":85,"x_max":906,"o":"m 85 486 q 160 764 85 650 q 345 933 235 878 q 564 989 456 989 q 707 970 631 989 q 843 900 783 951 q 851 883 851 894 q 846 869 851 875 l 797 810 q 782 803 790 803 q 771 806 779 803 q 574 868 679 868 q 393 818 475 868 q 263 679 311 768 q 215 476 215 590 q 264 290 215 375 q 394 156 313 206 q 574 107 476 107 q 686 119 629 107 q 774 156 743 131 l 774 401 l 594 401 q 580 408 586 401 q 574 422 574 414 l 574 496 q 580 510 574 504 q 594 517 586 517 l 886 517 q 900 510 894 517 q 906 496 906 504 l 906 161 q 904 110 906 115 q 848 49 892 78 q 733 1 804 19 q 576 -17 663 -17 q 328 51 442 -17 q 150 233 215 118 q 85 486 85 349 m 471 1136 q 495 1197 471 1172 q 554 1221 519 1221 q 613 1197 589 1221 q 638 1136 638 1172 q 613 1078 638 1101 q 554 1054 589 1054 q 495 1078 519 1054 q 471 1136 471 1101 z "},"Ħ":{"ha":1146,"x_min":100,"x_max":1046,"o":"m 915 972 q 930 966 924 972 q 936 951 936 960 l 936 799 l 1025 799 q 1040 792 1033 799 q 1046 776 1046 786 l 1046 725 q 1040 710 1046 717 q 1025 704 1033 704 l 936 704 l 936 21 q 930 6 936 13 q 915 0 924 0 l 826 0 q 810 6 817 0 q 803 21 803 13 l 803 408 l 335 408 l 335 21 q 328 6 335 13 q 314 0 322 0 l 225 0 q 209 6 215 0 q 203 21 203 13 l 203 704 l 121 704 q 106 710 113 704 q 100 725 100 717 l 100 776 q 106 792 100 786 q 121 799 113 799 l 203 799 l 203 951 q 209 966 203 960 q 225 972 215 972 l 314 972 q 328 966 322 972 q 335 951 335 960 l 335 799 l 803 799 l 803 951 q 810 966 803 960 q 826 972 817 972 l 915 972 m 803 532 l 803 704 l 335 704 l 335 532 l 803 532 z "},"Ĳ":{"ha":831,"x_min":156,"x_max":717,"o":"m 156 951 q 162 966 156 960 q 178 972 168 972 l 267 972 q 281 966 275 972 q 288 951 288 960 l 288 21 q 281 6 288 13 q 267 0 275 0 l 178 0 q 162 6 168 0 q 156 21 156 13 l 156 951 m 347 96 q 355 113 347 107 q 374 118 363 119 q 414 115 401 115 q 536 160 488 115 q 585 303 585 206 l 585 958 q 591 968 585 964 q 607 972 597 972 l 696 972 q 710 968 704 972 q 717 958 717 964 l 715 300 q 628 65 715 139 q 413 -10 540 -10 q 365 -7 396 -10 q 352 0 357 -6 q 347 13 347 6 l 347 96 z "},"İ":{"ha":428,"x_min":131,"x_max":297,"o":"m 147 951 q 153 966 147 960 q 169 972 160 972 l 258 972 q 273 966 267 972 q 279 951 279 960 l 279 21 q 273 6 279 13 q 258 0 267 0 l 169 0 q 153 6 160 0 q 147 21 147 13 l 147 951 m 131 1107 q 155 1167 131 1143 q 214 1192 179 1192 q 273 1167 249 1192 q 297 1107 297 1143 q 273 1049 297 1072 q 214 1025 249 1025 q 155 1049 179 1025 q 131 1107 131 1072 z "},"Ī":{"ha":406,"x_min":7,"x_max":401,"o":"m 135 951 q 141 966 135 960 q 157 972 147 972 l 246 972 q 260 966 254 972 q 267 951 267 960 l 267 21 q 260 6 267 13 q 246 0 254 0 l 157 0 q 141 6 147 0 q 135 21 135 13 l 135 951 m 7 1131 q 14 1149 7 1142 q 31 1157 21 1157 l 376 1157 q 394 1149 388 1157 q 401 1131 401 1142 l 401 1085 q 394 1066 401 1074 q 376 1058 388 1058 l 32 1058 q 14 1066 21 1058 q 7 1085 7 1074 l 7 1131 z "},"Į":{"ha":347,"x_min":85,"x_max":276,"o":"m 101 951 q 108 966 101 960 q 124 972 114 972 l 213 972 q 227 966 221 972 q 233 951 233 960 l 233 21 q 227 6 233 13 q 213 0 221 0 q 186 -49 197 -22 q 175 -99 175 -76 q 225 -147 175 -146 q 251 -142 240 -147 q 258 -140 254 -140 q 271 -146 265 -140 q 276 -158 276 -151 l 276 -200 q 263 -218 276 -214 q 225 -222 246 -222 q 119 -191 154 -222 q 85 -112 85 -160 q 97 -54 85 -85 q 131 0 110 -24 l 124 0 q 108 6 114 0 q 101 21 101 13 l 101 951 z "},"Ĩ":{"ha":393,"x_min":-6,"x_max":390,"o":"m 131 951 q 137 966 131 960 q 153 972 143 972 l 242 972 q 256 966 250 972 q 263 951 263 960 l 263 21 q 256 6 263 13 q 242 0 250 0 l 153 0 q 137 6 143 0 q 131 21 131 13 l 131 951 m 368 1233 q 385 1219 381 1233 q 390 1175 390 1199 q 356 1086 390 1118 q 274 1054 322 1054 q 207 1072 238 1054 q 160 1125 176 1090 q 122 1160 140 1160 q 103 1144 110 1160 q 96 1104 96 1128 l 96 1101 q 93 1091 96 1096 q 86 1085 90 1086 l 14 1074 l 10 1072 q 0 1076 4 1072 q -4 1086 -4 1081 q -6 1108 -6 1093 q 32 1209 -6 1171 q 121 1247 69 1247 q 187 1228 156 1247 q 238 1171 218 1208 q 272 1142 256 1142 q 292 1182 292 1142 q 290 1206 292 1197 l 290 1208 q 300 1224 290 1219 l 364 1233 l 368 1233 z "},"Ķ":{"ha":908,"x_min":156,"x_max":856,"o":"m 839 46 q 850 24 850 35 q 840 6 850 13 q 817 0 831 0 l 732 0 q 704 6 714 0 q 688 19 694 11 q 679 29 682 26 l 288 468 l 288 21 q 281 6 288 13 q 267 0 275 0 l 178 0 q 162 6 168 0 q 156 21 156 13 l 156 951 q 162 966 156 960 q 178 972 168 972 l 267 972 q 281 966 275 972 q 288 951 288 960 l 288 521 l 700 957 q 736 972 715 972 l 824 972 q 847 965 838 972 q 856 947 856 958 q 849 932 856 939 l 436 490 l 839 46 m 444 -114 q 462 -96 454 -100 q 490 -92 469 -92 l 535 -92 q 550 -106 550 -92 q 546 -121 550 -112 l 489 -244 q 471 -268 482 -260 q 435 -276 460 -276 l 375 -276 q 351 -261 351 -276 q 358 -244 351 -256 l 444 -114 z "},"Ĺ":{"ha":669,"x_min":68,"x_max":649,"o":"m 628 125 q 643 119 638 125 q 649 104 649 113 l 649 21 q 643 6 649 13 q 628 0 638 0 l 90 0 q 74 6 81 0 q 68 21 68 13 l 68 951 q 74 966 68 960 q 90 972 81 972 l 179 972 q 194 966 188 972 q 200 951 200 960 l 200 125 l 628 125 m 157 1183 q 178 1208 168 1200 q 211 1215 188 1215 l 307 1215 q 325 1210 318 1215 q 332 1199 332 1206 q 324 1183 332 1192 l 213 1085 q 150 1058 183 1058 l 106 1058 q 90 1072 90 1058 q 97 1092 90 1082 l 157 1183 z "},"Ľ":{"ha":757,"x_min":156,"x_max":736,"o":"m 715 125 q 731 119 725 125 q 736 104 736 113 l 736 21 q 731 6 736 13 q 715 0 725 0 l 178 0 q 162 6 168 0 q 156 21 156 13 l 156 951 q 162 966 156 960 q 178 972 168 972 l 267 972 q 281 966 275 972 q 288 951 288 960 l 288 125 l 715 125 m 244 1183 q 265 1208 256 1200 q 299 1215 275 1215 l 394 1215 q 413 1210 406 1215 q 419 1199 419 1206 q 411 1183 419 1192 l 300 1085 q 238 1058 271 1058 l 193 1058 q 178 1072 178 1058 q 185 1092 178 1082 l 244 1183 z "},"Ļ":{"ha":758,"x_min":156,"x_max":736,"o":"m 715 125 q 731 119 725 125 q 736 104 736 113 l 736 21 q 731 6 736 13 q 715 0 725 0 l 178 0 q 162 6 168 0 q 156 21 156 13 l 156 951 q 162 966 156 960 q 178 972 168 972 l 267 972 q 281 966 275 972 q 288 951 288 960 l 288 125 l 715 125 m 417 -114 q 434 -96 426 -100 q 463 -92 442 -92 l 507 -92 q 522 -106 522 -92 q 518 -121 522 -112 l 461 -244 q 443 -268 454 -260 q 407 -276 432 -276 l 347 -276 q 324 -261 324 -276 q 331 -244 324 -256 l 417 -114 z "},"Ł":{"ha":892,"x_min":89,"x_max":871,"o":"m 850 125 q 865 119 860 125 q 871 104 871 113 l 871 21 q 865 6 871 13 q 850 0 860 0 l 313 0 q 297 6 303 0 q 290 21 290 13 l 290 421 l 226 346 q 193 325 208 325 l 117 325 q 98 332 107 325 q 94 346 89 339 l 290 575 l 290 951 q 297 966 290 960 q 313 972 303 972 l 401 972 q 416 966 410 972 q 422 951 422 960 l 422 728 l 478 793 q 487 806 482 797 q 500 814 492 814 l 589 814 q 607 807 599 814 q 610 793 615 800 l 422 575 l 422 125 l 850 125 z "},"Ń":{"ha":1107,"x_min":156,"x_max":951,"o":"m 931 972 q 945 966 939 972 q 951 951 951 960 l 951 21 q 945 6 951 13 q 931 0 939 0 l 879 0 q 851 10 864 0 q 832 28 839 19 l 288 735 l 288 21 q 281 6 288 13 q 267 0 275 0 l 176 0 q 162 6 168 0 q 156 21 156 13 l 156 951 q 162 966 156 960 q 176 972 168 972 l 229 972 q 252 967 243 972 q 274 946 261 961 l 819 250 l 819 951 q 826 966 819 960 q 842 972 832 972 l 931 972 m 551 1183 q 572 1208 563 1200 q 606 1215 582 1215 l 701 1215 q 719 1210 713 1215 q 726 1199 726 1206 q 718 1183 726 1192 l 607 1085 q 544 1058 578 1058 l 500 1058 q 485 1072 485 1058 q 492 1092 485 1082 l 551 1183 z "},"Ň":{"ha":1107,"x_min":156,"x_max":951,"o":"m 931 972 q 945 966 939 972 q 951 951 951 960 l 951 21 q 945 6 951 13 q 931 0 939 0 l 879 0 q 851 10 864 0 q 832 28 839 19 l 288 735 l 288 21 q 281 6 288 13 q 267 0 275 0 l 176 0 q 162 6 168 0 q 156 21 156 13 l 156 951 q 162 966 156 960 q 176 972 168 972 l 229 972 q 252 967 243 972 q 274 946 261 961 l 819 250 l 819 951 q 826 966 819 960 q 842 972 832 972 l 931 972 m 393 1185 q 383 1203 383 1194 q 389 1212 383 1208 q 401 1215 394 1215 l 449 1215 q 483 1212 472 1215 q 503 1199 494 1208 l 556 1135 l 610 1199 q 630 1212 619 1208 q 664 1215 640 1215 l 714 1215 q 726 1201 726 1215 q 719 1185 726 1192 l 613 1071 q 599 1060 606 1063 q 578 1058 593 1058 l 542 1058 q 519 1061 525 1058 q 506 1071 513 1064 l 393 1185 z "},"Ņ":{"ha":1107,"x_min":156,"x_max":951,"o":"m 931 972 q 945 966 939 972 q 951 951 951 960 l 951 21 q 945 6 951 13 q 931 0 939 0 l 879 0 q 851 10 864 0 q 832 28 839 19 l 288 735 l 288 21 q 281 6 288 13 q 267 0 275 0 l 176 0 q 162 6 168 0 q 156 21 156 13 l 156 951 q 162 966 156 960 q 176 972 168 972 l 229 972 q 252 967 243 972 q 274 946 261 961 l 819 250 l 819 951 q 826 966 819 960 q 842 972 832 972 l 931 972 m 542 -114 q 559 -96 551 -100 q 588 -92 567 -92 l 632 -92 q 647 -106 647 -92 q 643 -121 647 -112 l 586 -244 q 568 -268 579 -260 q 532 -276 557 -276 l 472 -276 q 449 -261 449 -276 q 456 -244 449 -256 l 542 -114 z "},"Ö":{"ha":1101,"x_min":60,"x_max":1042,"o":"m 551 -6 q 305 60 418 -6 q 126 240 192 126 q 60 486 60 353 q 126 733 60 621 q 306 912 193 846 q 551 978 418 978 q 797 912 685 978 q 976 733 910 846 q 1042 486 1042 619 q 976 240 1042 353 q 797 60 910 126 q 551 -6 685 -6 m 192 486 q 240 300 192 385 q 372 165 289 215 q 551 115 454 115 q 731 165 649 115 q 860 300 813 215 q 908 486 908 385 q 860 673 908 588 q 731 808 813 758 q 551 857 649 857 q 372 808 454 857 q 240 673 289 758 q 192 486 192 588 m 379 1192 q 426 1173 407 1192 q 444 1126 444 1154 q 426 1081 444 1100 q 379 1063 407 1063 q 334 1081 353 1063 q 315 1126 315 1100 q 334 1173 315 1154 q 379 1192 353 1192 m 550 1126 q 568 1173 550 1154 q 614 1192 586 1192 q 660 1173 640 1192 q 679 1126 679 1154 q 660 1081 679 1100 q 614 1063 640 1063 q 569 1081 588 1063 q 550 1126 550 1100 z "},"Ő":{"ha":1151,"x_min":85,"x_max":1067,"o":"m 576 -6 q 330 60 443 -6 q 151 240 217 126 q 85 486 85 353 q 151 733 85 621 q 331 912 218 846 q 576 978 443 978 q 822 912 710 978 q 1001 733 935 846 q 1067 486 1067 619 q 1001 240 1067 353 q 822 60 935 126 q 576 -6 710 -6 m 217 486 q 265 300 217 385 q 397 165 314 215 q 576 115 479 115 q 756 165 674 115 q 885 300 838 215 q 933 486 933 385 q 885 673 933 588 q 756 808 838 758 q 576 857 674 857 q 397 808 479 857 q 265 673 314 758 q 217 486 217 588 m 494 1211 q 513 1235 501 1226 q 549 1243 524 1243 l 581 1243 q 604 1228 604 1243 q 597 1211 604 1222 l 511 1081 q 494 1063 501 1067 q 465 1058 486 1058 l 449 1058 q 433 1072 433 1058 q 438 1088 433 1079 l 494 1211 m 661 1214 q 679 1238 668 1229 q 715 1246 690 1246 l 747 1246 q 771 1231 771 1246 q 764 1214 771 1225 l 678 1083 q 660 1065 668 1069 q 632 1061 653 1061 l 615 1061 q 600 1075 600 1061 q 604 1090 600 1082 l 661 1214 z "},"Ō":{"ha":1151,"x_min":85,"x_max":1067,"o":"m 576 -6 q 330 60 443 -6 q 151 240 217 126 q 85 486 85 353 q 151 733 85 621 q 331 912 218 846 q 576 978 443 978 q 822 912 710 978 q 1001 733 935 846 q 1067 486 1067 619 q 1001 240 1067 353 q 822 60 935 126 q 576 -6 710 -6 m 217 486 q 265 300 217 385 q 397 165 314 215 q 576 115 479 115 q 756 165 674 115 q 885 300 838 215 q 933 486 933 385 q 885 673 933 588 q 756 808 838 758 q 576 857 674 857 q 397 808 479 857 q 265 673 314 758 q 217 486 217 588 m 379 1142 q 386 1160 379 1153 q 403 1168 393 1168 l 749 1168 q 767 1160 760 1168 q 774 1142 774 1153 l 774 1096 q 767 1077 774 1085 q 749 1069 760 1069 l 404 1069 q 386 1077 393 1069 q 379 1096 379 1085 l 379 1142 z "},"Œ":{"ha":1289,"x_min":85,"x_max":1194,"o":"m 576 -6 q 330 60 443 -6 q 151 240 217 126 q 85 486 85 353 q 151 733 85 621 q 331 912 218 846 q 576 978 443 978 q 643 972 617 978 l 1174 972 q 1188 966 1182 972 q 1194 951 1194 960 l 1194 868 q 1188 853 1194 860 q 1174 847 1182 847 l 750 847 l 750 540 l 1117 540 q 1131 535 1125 540 q 1138 521 1138 529 l 1138 444 q 1131 429 1138 435 q 1117 424 1125 424 l 750 424 l 750 125 l 1171 125 q 1187 119 1179 125 q 1194 104 1194 113 l 1194 21 q 1189 6 1194 13 q 1174 0 1183 0 l 640 0 q 576 -6 617 -6 m 217 486 q 265 300 217 385 q 397 165 314 215 q 576 115 479 115 q 618 118 593 115 l 618 854 q 576 857 593 857 q 397 808 479 857 q 265 673 314 758 q 217 486 217 588 z "},"Þ":{"ha":826,"x_min":156,"x_max":769,"o":"m 461 806 q 618 762 547 806 q 729 644 689 718 q 769 481 769 569 q 727 323 769 396 q 612 206 685 250 q 454 163 539 163 l 288 163 l 288 21 q 281 6 288 13 q 267 0 275 0 l 178 0 q 162 6 168 0 q 156 21 156 13 l 156 951 q 162 966 156 960 q 178 972 168 972 l 267 972 q 281 966 275 972 q 288 951 288 960 l 288 806 l 461 806 m 450 285 q 588 343 533 285 q 643 489 643 401 q 588 633 643 575 q 450 690 533 690 l 288 690 l 288 285 l 450 285 z "},"Ŕ":{"ha":892,"x_min":156,"x_max":790,"o":"m 783 31 q 785 24 785 28 q 780 7 785 14 q 767 0 775 0 l 676 0 q 660 6 668 0 q 649 18 651 11 l 500 331 q 475 329 492 329 l 286 329 l 286 21 q 281 6 286 13 q 265 0 275 0 l 176 0 q 162 6 168 0 q 156 21 156 13 l 156 951 q 162 966 156 960 q 176 972 168 972 l 482 972 q 638 928 568 972 q 749 810 708 885 q 790 647 790 736 q 745 483 790 558 q 624 368 700 408 l 783 31 m 471 451 q 609 510 554 451 q 664 656 664 568 q 609 799 664 742 q 471 857 554 857 l 286 857 l 286 451 l 471 451 m 439 1176 q 460 1201 450 1193 q 493 1208 469 1208 l 589 1208 q 607 1203 600 1208 q 614 1192 614 1199 q 606 1176 614 1185 l 494 1078 q 432 1051 465 1051 l 388 1051 q 372 1065 372 1051 q 379 1085 372 1075 l 439 1176 z "},"Ř":{"ha":892,"x_min":156,"x_max":790,"o":"m 783 31 q 785 24 785 28 q 780 7 785 14 q 767 0 775 0 l 676 0 q 660 6 668 0 q 649 18 651 11 l 500 331 q 475 329 492 329 l 286 329 l 286 21 q 281 6 286 13 q 265 0 275 0 l 176 0 q 162 6 168 0 q 156 21 156 13 l 156 951 q 162 966 156 960 q 176 972 168 972 l 482 972 q 638 928 568 972 q 749 810 708 885 q 790 647 790 736 q 745 483 790 558 q 624 368 700 408 l 783 31 m 271 1182 q 261 1200 261 1192 q 267 1209 261 1206 q 279 1213 272 1213 l 326 1213 q 361 1209 350 1213 q 381 1196 372 1206 l 433 1132 l 488 1196 q 508 1209 497 1206 q 542 1213 518 1213 l 592 1213 q 604 1199 604 1213 q 597 1182 604 1189 l 490 1068 q 477 1058 483 1060 q 456 1056 471 1056 l 419 1056 q 397 1058 403 1056 q 383 1068 390 1061 l 271 1182 m 471 451 q 609 510 554 451 q 664 656 664 568 q 609 799 664 742 q 471 857 554 857 l 286 857 l 286 451 l 471 451 z "},"Ŗ":{"ha":890,"x_min":156,"x_max":790,"o":"m 783 31 q 785 24 785 28 q 780 7 785 14 q 767 0 775 0 l 676 0 q 660 6 668 0 q 649 18 651 11 l 500 331 q 475 329 492 329 l 286 329 l 286 21 q 281 6 286 13 q 265 0 275 0 l 176 0 q 162 6 168 0 q 156 21 156 13 l 156 951 q 162 966 156 960 q 176 972 168 972 l 482 972 q 638 928 568 972 q 749 810 708 885 q 790 647 790 736 q 745 483 790 558 q 624 368 700 408 l 783 31 m 471 451 q 609 510 554 451 q 664 656 664 568 q 609 799 664 742 q 471 857 554 857 l 286 857 l 286 451 l 471 451 m 422 -114 q 440 -96 432 -100 q 468 -92 447 -92 l 513 -92 q 528 -106 528 -92 q 524 -121 528 -112 l 467 -244 q 449 -268 460 -260 q 413 -276 438 -276 l 353 -276 q 329 -261 329 -276 q 336 -244 329 -256 l 422 -114 z "},"Ś":{"ha":765,"x_min":85,"x_max":692,"o":"m 399 -14 q 218 31 306 -14 q 88 165 131 76 q 85 176 85 174 q 97 194 85 189 l 178 235 q 185 236 181 236 q 203 222 197 236 q 281 134 226 165 q 397 103 335 103 q 516 141 467 103 q 565 249 565 179 q 540 329 565 296 q 478 385 515 363 q 379 436 442 407 q 282 486 313 467 q 165 587 208 531 q 121 724 121 643 q 158 857 121 797 q 261 951 196 917 q 403 985 326 985 q 574 938 499 985 q 688 814 650 890 q 689 806 689 811 q 678 786 689 790 l 600 754 q 593 753 597 753 q 574 765 579 753 q 503 842 549 815 q 407 868 458 868 q 295 828 343 868 q 247 721 247 788 q 279 635 247 674 q 360 572 311 597 l 421 543 q 568 467 515 500 q 656 383 621 435 q 692 251 692 331 q 649 112 692 172 q 540 19 607 51 q 399 -14 472 -14 m 408 1183 q 429 1208 419 1200 q 463 1215 439 1215 l 558 1215 q 576 1210 569 1215 q 583 1199 583 1206 q 575 1183 583 1192 l 464 1085 q 401 1058 435 1058 l 357 1058 q 342 1072 342 1058 q 349 1092 342 1082 l 408 1183 z "},"Š":{"ha":765,"x_min":85,"x_max":692,"o":"m 399 -14 q 218 31 306 -14 q 88 165 131 76 q 85 176 85 174 q 97 194 85 189 l 178 235 q 185 236 181 236 q 203 222 197 236 q 281 134 226 165 q 397 103 335 103 q 516 141 467 103 q 565 249 565 179 q 540 329 565 296 q 478 385 515 363 q 379 436 442 407 q 282 486 313 467 q 165 587 208 531 q 121 724 121 643 q 158 857 121 797 q 261 951 196 917 q 403 985 326 985 q 574 938 499 985 q 688 814 650 890 q 689 806 689 811 q 678 786 689 790 l 600 754 q 593 753 597 753 q 574 765 579 753 q 503 842 549 815 q 407 868 458 868 q 295 828 343 868 q 247 721 247 788 q 279 635 247 674 q 360 572 311 597 l 421 543 q 568 467 515 500 q 656 383 621 435 q 692 251 692 331 q 649 112 692 172 q 540 19 607 51 q 399 -14 472 -14 m 258 1185 q 249 1203 249 1194 q 254 1212 249 1208 q 267 1215 260 1215 l 314 1215 q 349 1212 338 1215 q 368 1199 360 1208 l 421 1135 l 475 1199 q 495 1212 485 1208 q 529 1215 506 1215 l 579 1215 q 592 1201 592 1215 q 585 1185 592 1192 l 478 1071 q 465 1060 471 1063 q 443 1058 458 1058 l 407 1058 q 384 1061 390 1058 q 371 1071 378 1064 l 258 1185 z "},"Ş":{"ha":767,"x_min":86,"x_max":693,"o":"m 89 165 q 86 176 86 174 q 99 194 86 189 l 179 235 q 186 236 182 236 q 204 222 199 236 q 282 134 228 165 q 399 103 336 103 q 517 141 468 103 q 567 249 567 179 q 542 329 567 296 q 480 385 517 363 q 381 436 443 407 q 283 486 314 467 q 166 587 210 531 q 122 724 122 643 q 160 857 122 797 q 263 951 197 917 q 404 985 328 985 q 576 938 500 985 q 689 814 651 890 q 690 806 690 811 q 679 786 690 790 l 601 754 q 594 753 599 753 q 575 765 581 753 q 505 842 550 815 q 408 868 460 868 q 297 828 344 868 q 249 721 249 788 q 281 635 249 674 q 361 572 313 597 l 422 543 q 569 467 517 500 q 658 383 622 435 q 693 251 693 331 q 655 117 693 176 q 554 25 617 58 q 422 -12 492 -8 l 422 -61 q 506 -99 481 -72 q 532 -167 532 -125 q 518 -219 532 -192 q 473 -265 503 -247 q 404 -282 443 -282 q 350 -269 375 -282 q 308 -229 325 -256 q 307 -221 307 -226 q 315 -203 307 -210 l 339 -190 q 347 -189 342 -189 q 363 -196 356 -189 q 407 -219 378 -219 q 438 -210 424 -219 q 458 -185 453 -200 q 461 -172 461 -176 q 449 -145 461 -157 q 411 -128 436 -133 l 350 -115 q 332 -103 338 -112 q 326 -85 326 -94 l 326 -7 q 188 51 251 8 q 89 165 124 94 z "},"Ș":{"ha":765,"x_min":85,"x_max":692,"o":"m 399 -14 q 218 31 306 -14 q 88 165 131 76 q 85 176 85 174 q 97 194 85 189 l 178 235 q 185 236 181 236 q 203 222 197 236 q 281 134 226 165 q 397 103 335 103 q 516 141 467 103 q 565 249 565 179 q 540 329 565 296 q 478 385 515 363 q 379 436 442 407 q 282 486 313 467 q 165 587 208 531 q 121 724 121 643 q 158 857 121 797 q 261 951 196 917 q 403 985 326 985 q 574 938 499 985 q 688 814 650 890 q 689 806 689 811 q 678 786 689 790 l 600 754 q 593 753 597 753 q 574 765 579 753 q 503 842 549 815 q 407 868 458 868 q 295 828 343 868 q 247 721 247 788 q 279 635 247 674 q 360 572 311 597 l 421 543 q 568 467 515 500 q 656 383 621 435 q 692 251 692 331 q 649 112 692 172 q 540 19 607 51 q 399 -14 472 -14 m 339 -114 q 356 -96 349 -100 q 385 -92 364 -92 l 429 -92 q 444 -106 444 -92 q 440 -121 444 -112 l 383 -244 q 365 -268 376 -260 q 329 -276 354 -276 l 269 -276 q 246 -261 246 -276 q 253 -244 246 -256 l 339 -114 z "},"Ť":{"ha":718,"x_min":25,"x_max":693,"o":"m 674 972 q 688 966 682 972 q 693 951 693 960 l 693 868 q 688 853 693 860 q 674 847 682 847 l 425 847 l 425 21 q 419 6 425 13 q 404 0 414 0 l 317 0 q 300 6 307 0 q 293 21 293 13 l 293 847 l 44 847 q 31 853 36 847 q 25 868 25 860 l 25 951 q 31 966 25 960 q 44 972 36 972 l 674 972 m 200 1161 q 190 1179 190 1171 q 196 1188 190 1185 q 208 1192 201 1192 l 256 1192 q 290 1188 279 1192 q 310 1175 301 1185 l 363 1111 l 417 1175 q 437 1188 426 1185 q 471 1192 447 1192 l 521 1192 q 533 1178 533 1192 q 526 1161 533 1168 l 419 1047 q 406 1037 413 1039 q 385 1035 400 1035 l 349 1035 q 326 1038 332 1035 q 313 1047 319 1040 l 200 1161 z "},"Ţ":{"ha":668,"x_min":0,"x_max":668,"o":"m 649 972 q 663 966 657 972 q 668 951 668 960 l 668 868 q 663 853 668 860 q 649 847 657 847 l 400 847 l 400 21 q 399 13 400 15 l 399 -57 q 483 -94 457 -68 q 508 -162 508 -121 q 494 -215 508 -187 q 449 -260 479 -243 q 381 -278 419 -278 q 326 -265 351 -278 q 285 -225 301 -251 q 283 -217 283 -222 q 292 -199 283 -206 l 315 -186 q 324 -185 318 -185 q 339 -192 332 -185 q 383 -215 354 -215 q 415 -206 400 -215 q 435 -181 429 -196 q 438 -168 438 -172 q 425 -141 438 -153 q 388 -124 413 -129 l 326 -111 q 308 -99 314 -108 q 303 -81 303 -90 l 303 0 l 292 0 q 275 6 282 0 q 268 21 268 13 l 268 847 l 19 847 q 6 853 11 847 q 0 868 0 860 l 0 951 q 6 966 0 960 q 19 972 11 972 l 649 972 z "},"Ț":{"ha":718,"x_min":25,"x_max":693,"o":"m 674 972 q 688 966 682 972 q 693 951 693 960 l 693 868 q 688 853 693 860 q 674 847 682 847 l 425 847 l 425 21 q 419 6 425 13 q 404 0 414 0 l 317 0 q 300 6 307 0 q 293 21 293 13 l 293 847 l 44 847 q 31 853 36 847 q 25 868 25 860 l 25 951 q 31 966 25 960 q 44 972 36 972 l 674 972 m 325 -114 q 342 -96 335 -100 q 371 -92 350 -92 l 415 -92 q 431 -106 431 -92 q 426 -121 431 -112 l 369 -244 q 351 -268 363 -260 q 315 -276 340 -276 l 256 -276 q 232 -261 232 -276 q 239 -244 232 -256 l 325 -114 z "},"Ü":{"ha":979,"x_min":118,"x_max":861,"o":"m 840 972 q 855 966 849 972 q 861 951 861 960 l 861 333 q 808 160 858 239 q 673 36 757 82 q 489 -10 589 -10 q 308 35 392 -10 q 174 158 225 81 q 118 328 122 236 l 118 951 q 124 966 118 960 q 139 972 131 972 l 229 972 q 244 966 238 972 q 250 951 250 960 l 250 343 q 283 226 251 279 q 369 142 315 174 q 489 111 424 111 q 610 142 556 111 q 697 226 665 174 q 729 343 729 279 l 729 951 q 735 966 729 960 q 750 972 742 972 l 840 972 m 340 1188 q 387 1169 368 1188 q 406 1122 406 1150 q 387 1077 406 1096 q 340 1058 368 1058 q 295 1077 314 1058 q 276 1122 276 1096 q 295 1169 276 1150 q 340 1188 314 1188 m 511 1122 q 529 1169 511 1150 q 575 1188 547 1188 q 621 1169 601 1188 q 640 1122 640 1150 q 621 1077 640 1096 q 575 1058 601 1058 q 530 1077 549 1058 q 511 1122 511 1096 z "},"Ű":{"ha":1029,"x_min":143,"x_max":886,"o":"m 865 972 q 880 966 874 972 q 886 951 886 960 l 886 333 q 835 161 886 240 q 699 36 785 82 q 514 -10 614 -10 q 333 35 417 -10 q 199 158 250 81 q 143 328 147 236 l 143 951 q 149 966 143 960 q 164 972 156 972 l 254 972 q 269 966 263 972 q 275 951 275 960 l 275 343 q 307 227 275 281 q 394 142 339 174 q 514 111 449 111 q 637 142 582 111 q 723 226 692 174 q 754 343 754 279 l 754 951 q 760 966 754 960 q 775 972 767 972 l 865 972 m 446 1211 q 464 1235 453 1226 q 500 1243 475 1243 l 532 1243 q 556 1228 556 1243 q 549 1211 556 1222 l 463 1081 q 445 1063 453 1067 q 417 1058 438 1058 l 400 1058 q 385 1072 385 1058 q 389 1088 385 1079 l 446 1211 m 613 1214 q 631 1238 619 1229 q 667 1246 642 1246 l 699 1246 q 722 1231 722 1246 q 715 1214 722 1225 l 629 1083 q 612 1065 619 1069 q 583 1061 604 1061 l 567 1061 q 551 1075 551 1061 q 556 1090 551 1082 l 613 1214 z "},"Ū":{"ha":1029,"x_min":143,"x_max":886,"o":"m 865 972 q 880 966 874 972 q 886 951 886 960 l 886 333 q 835 161 886 240 q 699 36 785 82 q 514 -10 614 -10 q 333 35 417 -10 q 199 158 250 81 q 143 328 147 236 l 143 951 q 149 966 143 960 q 164 972 156 972 l 254 972 q 269 966 263 972 q 275 951 275 960 l 275 343 q 307 227 275 281 q 394 142 339 174 q 514 111 449 111 q 637 142 582 111 q 723 226 692 174 q 754 343 754 279 l 754 951 q 760 966 754 960 q 775 972 767 972 l 865 972 m 315 1131 q 322 1149 315 1142 q 339 1157 329 1157 l 685 1157 q 703 1149 696 1157 q 710 1131 710 1142 l 710 1085 q 703 1066 710 1074 q 685 1058 696 1058 l 340 1058 q 322 1066 329 1058 q 315 1085 315 1074 l 315 1131 z "},"Ų":{"ha":1035,"x_min":146,"x_max":889,"o":"m 868 972 q 883 966 876 972 q 889 951 889 960 l 889 333 q 847 175 889 249 q 731 53 804 101 q 568 -7 657 4 q 544 -53 554 -28 q 533 -100 533 -79 q 585 -149 533 -147 q 611 -143 600 -149 q 618 -142 614 -142 q 631 -147 625 -142 q 636 -160 636 -153 l 636 -201 q 622 -219 636 -215 q 585 -224 606 -224 q 479 -193 514 -224 q 444 -115 444 -162 q 485 -8 444 -60 q 319 45 394 -1 q 197 166 243 92 q 146 328 150 240 l 146 951 q 152 966 146 960 q 167 972 158 972 l 257 972 q 272 966 265 972 q 278 951 278 960 l 278 343 q 310 227 278 281 q 397 142 342 174 q 517 111 451 111 q 640 142 585 111 q 726 226 694 174 q 757 343 757 279 l 757 951 q 763 966 757 960 q 778 972 769 972 l 868 972 z "},"Ů":{"ha":1029,"x_min":143,"x_max":886,"o":"m 865 972 q 880 966 874 972 q 886 951 886 960 l 886 333 q 835 161 886 240 q 699 36 785 82 q 514 -10 614 -10 q 333 35 417 -10 q 199 158 250 81 q 143 328 147 236 l 143 951 q 149 966 143 960 q 164 972 156 972 l 254 972 q 269 966 263 972 q 275 951 275 960 l 275 343 q 307 227 275 281 q 394 142 339 174 q 514 111 449 111 q 637 142 582 111 q 723 226 692 174 q 754 343 754 279 l 754 951 q 760 966 754 960 q 775 972 767 972 l 865 972 m 371 1151 q 413 1253 371 1211 q 515 1296 456 1296 q 621 1253 578 1296 q 664 1151 664 1211 q 621 1046 664 1089 q 515 1003 578 1003 q 413 1046 456 1003 q 371 1151 371 1089 m 447 1151 q 467 1099 447 1121 q 515 1078 488 1078 q 565 1099 544 1078 q 585 1151 585 1121 q 562 1203 585 1185 q 515 1222 539 1222 q 467 1201 488 1222 q 447 1151 447 1179 z "},"Ũ":{"ha":979,"x_min":118,"x_max":861,"o":"m 840 972 q 855 966 849 972 q 861 951 861 960 l 861 333 q 808 160 858 239 q 673 36 757 82 q 489 -10 589 -10 q 308 35 392 -10 q 174 158 225 81 q 118 328 122 236 l 118 951 q 124 966 118 960 q 139 972 131 972 l 229 972 q 244 966 238 972 q 250 951 250 960 l 250 343 q 283 226 251 279 q 369 142 315 174 q 489 111 424 111 q 610 142 556 111 q 697 226 665 174 q 729 343 729 279 l 729 951 q 735 966 729 960 q 750 972 742 972 l 840 972 m 658 1215 q 675 1201 671 1215 q 681 1157 681 1181 q 647 1068 681 1100 q 564 1036 613 1036 q 497 1054 528 1036 q 450 1107 467 1072 q 413 1142 431 1142 q 393 1126 400 1142 q 386 1086 386 1110 l 386 1083 q 383 1073 386 1078 q 376 1067 381 1068 l 304 1056 l 300 1054 q 290 1058 294 1054 q 286 1068 286 1063 q 285 1090 285 1075 q 322 1191 285 1153 q 411 1229 360 1229 q 477 1210 446 1229 q 528 1153 508 1190 q 563 1124 546 1124 q 582 1164 582 1124 q 581 1188 582 1179 l 581 1190 q 590 1206 581 1201 l 654 1215 l 658 1215 z "},"Ẃ":{"ha":1292,"x_min":64,"x_max":1231,"o":"m 1210 974 q 1225 967 1219 974 q 1228 953 1231 961 l 972 19 q 958 2 968 4 q 936 0 949 0 l 858 0 q 843 6 850 0 q 833 21 836 13 l 646 733 l 458 18 q 449 5 457 10 q 433 0 442 0 l 358 0 q 321 22 328 0 l 64 953 l 64 957 q 83 974 64 974 l 176 974 q 207 953 201 974 l 393 215 l 578 940 q 608 972 588 972 l 682 972 q 701 965 692 972 q 713 946 710 958 l 900 217 l 1085 953 q 1115 974 1090 974 l 1210 974 m 676 1183 q 697 1208 688 1200 q 731 1215 707 1215 l 826 1215 q 844 1210 838 1215 q 851 1199 851 1206 q 843 1183 851 1192 l 732 1085 q 669 1058 703 1058 l 625 1058 q 610 1072 610 1058 q 617 1092 610 1082 l 676 1183 z "},"Ŵ":{"ha":1292,"x_min":64,"x_max":1231,"o":"m 1210 974 q 1225 967 1219 974 q 1228 953 1231 961 l 972 19 q 958 2 968 4 q 936 0 949 0 l 858 0 q 843 6 850 0 q 833 21 836 13 l 646 733 l 458 18 q 449 5 457 10 q 433 0 442 0 l 358 0 q 321 22 328 0 l 64 953 l 64 957 q 83 974 64 974 l 176 974 q 207 953 201 974 l 393 215 l 578 940 q 608 972 588 972 l 682 972 q 701 965 692 972 q 713 946 710 958 l 900 217 l 1085 953 q 1115 974 1090 974 l 1210 974 m 589 1203 q 602 1213 596 1211 q 624 1215 608 1215 l 660 1215 q 683 1213 676 1215 q 696 1203 689 1210 l 808 1089 q 818 1071 818 1079 q 813 1062 818 1065 q 800 1058 807 1058 l 753 1058 q 718 1062 729 1058 q 699 1075 707 1065 l 646 1139 l 592 1075 q 572 1062 582 1065 q 538 1058 561 1058 l 488 1058 q 475 1072 475 1058 q 482 1089 475 1082 l 589 1203 z "},"Ẅ":{"ha":1292,"x_min":64,"x_max":1231,"o":"m 1210 974 q 1225 967 1219 974 q 1228 953 1231 961 l 972 19 q 958 2 968 4 q 936 0 949 0 l 858 0 q 843 6 850 0 q 833 21 836 13 l 646 733 l 458 18 q 449 5 457 10 q 433 0 442 0 l 358 0 q 321 22 328 0 l 64 953 l 64 957 q 83 974 64 974 l 176 974 q 207 953 201 974 l 393 215 l 578 940 q 608 972 588 972 l 682 972 q 701 965 692 972 q 713 946 710 958 l 900 217 l 1085 953 q 1115 974 1090 974 l 1210 974 m 447 1122 q 466 1169 447 1150 q 511 1188 485 1188 q 558 1169 539 1188 q 576 1122 576 1150 q 558 1077 576 1096 q 511 1058 539 1058 q 466 1077 485 1058 q 447 1122 447 1096 m 711 1122 q 729 1169 711 1150 q 775 1188 747 1188 q 821 1169 801 1188 q 840 1122 840 1150 q 821 1077 840 1096 q 775 1058 801 1058 q 730 1077 749 1058 q 711 1122 711 1096 z "},"Ẁ":{"ha":1292,"x_min":64,"x_max":1231,"o":"m 1210 974 q 1225 967 1219 974 q 1228 953 1231 961 l 972 19 q 958 2 968 4 q 936 0 949 0 l 858 0 q 843 6 850 0 q 833 21 836 13 l 646 733 l 458 18 q 449 5 457 10 q 433 0 442 0 l 358 0 q 321 22 328 0 l 64 953 l 64 957 q 83 974 64 974 l 176 974 q 207 953 201 974 l 393 215 l 578 940 q 608 972 588 972 l 682 972 q 701 965 692 972 q 713 946 710 958 l 900 217 l 1085 953 q 1115 974 1090 974 l 1210 974 m 447 1182 q 439 1197 439 1190 q 446 1209 439 1204 q 464 1214 453 1214 l 560 1214 q 593 1206 583 1214 q 614 1182 603 1199 l 674 1090 q 681 1071 681 1081 q 665 1057 681 1057 l 621 1057 q 558 1083 588 1057 l 447 1182 z "},"Ŷ":{"ha":781,"x_min":13,"x_max":769,"o":"m 749 967 q 764 961 758 967 q 769 949 769 956 q 765 935 769 943 l 458 476 l 458 22 q 452 7 458 13 q 438 1 446 1 l 349 1 q 333 7 339 1 q 326 22 326 13 l 326 476 l 17 935 q 13 949 13 942 q 18 961 13 956 q 33 967 24 967 l 122 967 q 148 962 138 967 q 169 939 158 957 l 392 596 l 613 939 q 635 961 624 956 q 660 967 646 967 l 749 967 m 333 1203 q 347 1213 340 1211 q 368 1215 353 1215 l 404 1215 q 427 1213 421 1215 q 440 1203 433 1210 l 553 1089 q 563 1071 563 1079 q 557 1062 563 1065 q 544 1058 551 1058 l 497 1058 q 463 1062 474 1058 q 443 1075 451 1065 l 390 1139 l 336 1075 q 316 1062 326 1065 q 282 1058 306 1058 l 232 1058 q 219 1072 219 1058 q 226 1089 219 1082 l 333 1203 z "},"Ỳ":{"ha":781,"x_min":13,"x_max":769,"o":"m 749 967 q 764 961 758 967 q 769 949 769 956 q 765 935 769 943 l 458 476 l 458 22 q 452 7 458 13 q 438 1 446 1 l 349 1 q 333 7 339 1 q 326 22 326 13 l 326 476 l 17 935 q 13 949 13 942 q 18 961 13 956 q 33 967 24 967 l 122 967 q 148 962 138 967 q 169 939 158 957 l 392 596 l 613 939 q 635 961 624 956 q 660 967 646 967 l 749 967 m 219 1183 q 211 1199 211 1192 q 218 1210 211 1206 q 236 1215 225 1215 l 332 1215 q 365 1208 356 1215 q 386 1183 375 1200 l 446 1092 q 453 1072 453 1082 q 438 1058 453 1058 l 393 1058 q 331 1085 360 1058 l 219 1183 z "},"Ỹ":{"ha":731,"x_min":-12,"x_max":744,"o":"m 724 967 q 739 961 733 967 q 744 949 744 956 q 740 935 744 943 l 433 476 l 433 22 q 427 7 433 13 q 413 1 421 1 l 324 1 q 308 7 314 1 q 301 22 301 13 l 301 476 l -8 935 q -12 949 -12 942 q -7 961 -12 956 q 8 967 -1 967 l 97 967 q 124 962 114 967 q 144 939 135 957 l 367 596 l 588 939 q 608 962 597 957 q 635 967 619 967 l 724 967 m 535 1213 q 551 1199 547 1213 q 557 1154 557 1178 q 523 1065 557 1097 q 440 1033 489 1033 q 374 1051 404 1033 q 326 1104 343 1069 q 289 1139 307 1139 q 269 1123 276 1139 q 263 1083 263 1107 l 263 1081 q 260 1070 263 1075 q 253 1064 257 1065 l 181 1053 l 176 1051 q 167 1056 171 1051 q 163 1065 163 1060 q 161 1088 161 1072 q 199 1188 161 1150 q 288 1226 236 1226 q 353 1207 322 1226 q 404 1150 385 1188 q 439 1121 422 1121 q 458 1161 458 1121 q 457 1185 458 1176 l 457 1188 q 467 1203 457 1199 l 531 1213 l 535 1213 z "},"Ź":{"ha":753,"x_min":56,"x_max":694,"o":"m 674 125 q 688 119 682 125 q 694 104 694 113 l 694 22 q 688 6 694 13 q 672 0 682 0 l 88 0 q 64 7 72 0 q 56 25 56 14 q 61 46 56 32 l 464 847 l 78 847 q 63 853 69 847 q 57 868 57 860 l 57 950 q 63 966 57 960 q 78 972 69 972 l 622 972 q 646 965 638 972 q 654 947 654 958 q 649 926 654 940 l 247 125 l 674 125 m 372 1183 q 393 1208 383 1200 q 426 1215 403 1215 l 522 1215 q 540 1210 533 1215 q 547 1199 547 1206 q 539 1183 547 1192 l 428 1085 q 365 1058 399 1058 l 321 1058 q 306 1072 306 1058 q 313 1092 306 1082 l 372 1183 z "},"Ž":{"ha":753,"x_min":56,"x_max":694,"o":"m 674 125 q 688 119 682 125 q 694 104 694 113 l 694 22 q 688 6 694 13 q 672 0 682 0 l 88 0 q 64 7 72 0 q 56 25 56 14 q 61 46 56 32 l 464 847 l 78 847 q 63 853 69 847 q 57 868 57 860 l 57 950 q 63 966 57 960 q 78 972 69 972 l 622 972 q 646 965 638 972 q 654 947 654 958 q 649 926 654 940 l 247 125 l 674 125 m 194 1185 q 185 1203 185 1194 q 190 1212 185 1208 q 203 1215 196 1215 l 250 1215 q 285 1212 274 1215 q 304 1199 296 1208 l 357 1135 l 411 1199 q 431 1212 421 1208 q 465 1215 442 1215 l 515 1215 q 528 1201 528 1215 q 521 1185 528 1192 l 414 1071 q 401 1060 407 1063 q 379 1058 394 1058 l 343 1058 q 320 1061 326 1058 q 307 1071 314 1064 l 194 1185 z "},"Ż":{"ha":753,"x_min":56,"x_max":694,"o":"m 674 125 q 688 119 682 125 q 694 104 694 113 l 694 22 q 688 6 694 13 q 672 0 682 0 l 88 0 q 64 7 72 0 q 56 25 56 14 q 61 46 56 32 l 464 847 l 78 847 q 63 853 69 847 q 57 868 57 860 l 57 950 q 63 966 57 960 q 78 972 69 972 l 622 972 q 646 965 638 972 q 654 947 654 958 q 649 926 654 940 l 247 125 l 674 125 m 276 1132 q 301 1192 276 1168 q 360 1217 325 1217 q 419 1192 394 1217 q 443 1132 443 1168 q 419 1074 443 1097 q 360 1050 394 1050 q 301 1074 325 1050 q 276 1132 276 1097 z "},"ă":{"ha":726,"x_min":72,"x_max":619,"o":"m 506 508 q 509 516 506 513 q 518 519 513 519 l 608 519 q 615 516 611 519 q 619 508 619 513 l 619 21 q 600 4 619 4 l 521 4 q 504 21 504 4 l 506 82 q 424 21 472 44 q 325 -3 376 -3 q 198 35 256 -1 q 106 134 140 72 q 72 267 72 196 q 106 397 72 338 q 198 490 140 456 q 325 526 256 525 q 435 500 386 526 q 508 432 483 474 l 506 508 m 175 829 q 181 842 175 836 q 194 849 186 849 l 239 849 q 251 844 246 849 q 258 832 257 839 q 285 788 264 806 q 335 769 307 769 q 382 788 361 769 q 410 832 403 806 q 416 844 411 839 q 428 849 421 849 l 478 849 q 492 842 486 849 q 497 826 499 835 q 443 726 489 767 q 336 686 397 686 q 228 726 274 686 q 175 826 182 767 l 175 829 m 188 265 q 208 187 188 224 q 265 128 229 150 q 342 106 300 106 q 421 128 385 106 q 478 187 457 150 q 499 265 499 224 q 453 374 499 329 q 342 418 407 418 q 233 374 278 418 q 188 265 188 329 z "},"ä":{"ha":704,"x_min":63,"x_max":610,"o":"m 496 508 q 499 516 496 513 q 508 519 503 519 l 599 519 q 606 516 601 519 q 610 508 610 513 l 610 21 q 590 4 610 4 l 511 4 q 494 21 494 4 l 496 82 q 415 21 463 44 q 315 -3 367 -3 q 188 35 246 -1 q 97 134 131 72 q 63 267 63 196 q 97 397 63 338 q 188 490 131 456 q 315 526 246 525 q 425 500 376 526 q 499 432 474 474 l 496 508 m 178 265 q 199 187 178 224 q 255 128 219 150 q 332 106 290 106 q 411 128 375 106 q 468 187 447 150 q 489 265 489 224 q 443 374 489 329 q 332 418 397 418 q 223 374 268 418 q 178 265 178 329 m 206 794 q 252 776 233 794 q 271 729 271 757 q 252 684 271 703 q 206 665 233 665 q 160 684 179 665 q 142 729 142 703 q 160 776 142 757 q 206 794 179 794 m 376 729 q 394 776 376 757 q 440 794 413 794 q 486 776 467 794 q 506 729 506 757 q 486 684 506 703 q 440 665 467 665 q 395 684 414 665 q 376 729 376 703 z "},"ā":{"ha":726,"x_min":72,"x_max":619,"o":"m 506 508 q 509 516 506 513 q 518 519 513 519 l 608 519 q 615 516 611 519 q 619 508 619 513 l 619 21 q 600 4 619 4 l 521 4 q 504 21 504 4 l 506 82 q 424 21 472 44 q 325 -3 376 -3 q 198 35 256 -1 q 106 134 140 72 q 72 267 72 196 q 106 397 72 338 q 198 490 140 456 q 325 526 256 525 q 435 500 386 526 q 508 432 483 474 l 506 508 m 139 804 q 146 823 139 815 q 163 831 153 831 l 508 831 q 526 823 519 831 q 533 804 533 815 l 533 758 q 526 740 533 747 q 508 732 519 732 l 164 732 q 146 740 153 732 q 139 758 139 747 l 139 804 m 188 265 q 208 187 188 224 q 265 128 229 150 q 342 106 300 106 q 421 128 385 106 q 478 187 457 150 q 499 265 499 224 q 453 374 499 329 q 342 418 407 418 q 233 374 278 418 q 188 265 188 329 z "},"ą":{"ha":685,"x_min":72,"x_max":669,"o":"m 506 508 q 509 516 506 513 q 518 519 513 519 l 608 519 q 615 516 611 519 q 619 508 619 513 l 619 24 l 619 22 l 619 21 q 607 6 619 8 q 580 -45 592 -18 q 568 -96 568 -72 q 618 -144 568 -143 q 644 -139 633 -144 q 651 -137 647 -137 q 664 -143 658 -137 q 669 -156 669 -149 l 669 -197 q 656 -215 669 -211 q 618 -219 639 -219 q 513 -189 547 -219 q 479 -111 479 -158 q 491 -51 479 -82 q 525 4 503 -21 l 521 4 q 504 21 504 4 l 506 82 q 424 21 472 44 q 325 -3 376 -3 q 198 35 256 -1 q 106 134 140 72 q 72 267 72 196 q 106 397 72 338 q 198 490 140 456 q 325 526 256 525 q 435 500 386 526 q 508 432 483 474 l 506 508 m 188 265 q 208 187 188 224 q 265 128 229 150 q 342 106 300 106 q 421 128 385 106 q 478 187 457 150 q 499 265 499 224 q 453 374 499 329 q 342 418 407 418 q 233 374 278 418 q 188 265 188 329 z "},"æ":{"ha":1076,"x_min":74,"x_max":1015,"o":"m 343 106 q 422 128 386 106 q 479 187 458 150 q 500 265 500 224 q 454 374 500 329 q 343 418 408 418 q 234 374 279 418 q 189 265 189 329 q 210 187 189 224 q 266 128 231 150 q 343 106 301 106 m 74 267 q 108 397 74 338 q 199 490 142 456 q 326 526 257 525 q 458 490 393 526 q 544 397 524 454 q 613 478 571 446 q 708 519 654 510 q 765 525 735 525 q 901 485 844 525 q 987 378 958 446 q 1008 228 1015 311 q 1002 216 1007 221 q 990 211 997 211 l 638 211 q 678 133 640 168 q 774 97 717 97 q 831 108 800 97 q 886 138 863 118 l 907 154 q 919 158 911 158 q 935 151 931 158 q 971 100 947 138 q 976 85 976 89 q 971 74 976 79 q 894 22 943 46 q 779 -3 844 -3 q 700 8 744 -3 q 621 44 653 22 l 621 21 q 601 4 621 4 l 522 4 q 506 21 506 4 l 507 82 q 426 21 474 44 q 326 -3 378 -3 q 199 35 257 -1 q 108 134 142 72 q 74 267 74 196 m 906 308 q 856 397 894 364 q 765 429 818 429 q 669 393 708 429 q 625 307 629 357 l 906 308 z "},"ć":{"ha":565,"x_min":71,"x_max":497,"o":"m 494 74 q 497 65 497 71 q 493 54 497 58 q 329 -3 421 -3 q 285 1 308 -3 q 157 63 213 13 q 82 185 101 114 q 71 260 71 229 q 75 311 71 282 q 138 440 88 383 q 257 515 188 496 q 333 526 292 526 q 469 488 403 526 q 474 467 481 479 l 436 404 q 426 397 433 399 q 414 399 419 396 q 336 421 379 421 q 232 375 272 421 q 192 260 192 329 q 234 151 192 196 q 338 106 276 106 q 428 133 382 106 q 438 136 433 136 q 451 129 446 136 l 494 74 m 294 822 q 315 847 306 839 q 349 854 325 854 l 444 854 q 463 849 456 854 q 469 838 469 844 q 461 822 469 831 l 350 724 q 288 697 321 697 l 243 697 q 228 711 228 697 q 235 731 228 721 l 294 822 z "},"č":{"ha":565,"x_min":71,"x_max":497,"o":"m 494 74 q 497 65 497 71 q 493 54 497 58 q 329 -3 421 -3 q 285 1 308 -3 q 157 63 213 13 q 82 185 101 114 q 71 260 71 229 q 75 311 71 282 q 138 440 88 383 q 257 515 188 496 q 333 526 292 526 q 469 488 403 526 q 474 467 481 479 l 436 404 q 426 397 433 399 q 414 399 419 396 q 336 421 379 421 q 232 375 272 421 q 192 260 192 329 q 234 151 192 196 q 338 106 276 106 q 428 133 382 106 q 438 136 433 136 q 451 129 446 136 l 494 74 m 144 814 q 135 832 135 824 q 140 841 135 838 q 153 844 146 844 l 200 844 q 235 841 224 844 q 254 828 246 838 l 307 764 l 361 828 q 381 841 371 838 q 415 844 392 844 l 465 844 q 478 831 478 844 q 471 814 478 821 l 364 700 q 351 690 357 692 q 329 688 344 688 l 293 688 q 270 690 276 688 q 257 700 264 693 l 144 814 z "},"ċ":{"ha":565,"x_min":71,"x_max":497,"o":"m 494 74 q 497 65 497 71 q 493 54 497 58 q 329 -3 421 -3 q 285 1 308 -3 q 157 63 213 13 q 82 185 101 114 q 71 260 71 229 q 75 311 71 282 q 138 440 88 383 q 257 515 188 496 q 333 526 292 526 q 469 488 403 526 q 474 467 481 479 l 436 404 q 426 397 433 399 q 414 399 419 396 q 336 421 379 421 q 232 375 272 421 q 192 260 192 329 q 234 151 192 196 q 338 106 276 106 q 428 133 382 106 q 438 136 433 136 q 451 129 446 136 l 494 74 m 231 764 q 255 824 231 800 q 314 849 279 849 q 373 824 349 849 q 397 764 397 800 q 373 706 397 729 q 314 682 349 682 q 255 706 279 682 q 231 764 231 729 z "},"ď":{"ha":631,"x_min":72,"x_max":790,"o":"m 328 526 q 436 499 389 526 q 510 435 483 472 l 508 957 q 514 970 508 964 q 526 976 519 976 l 604 976 q 618 970 613 976 q 624 957 624 964 l 624 21 q 618 9 624 14 q 604 4 613 4 l 526 4 q 514 9 519 4 q 508 21 508 14 l 513 82 q 430 21 479 44 q 328 -3 381 -3 q 200 33 258 -1 q 107 127 142 68 q 72 257 72 186 q 107 394 72 332 q 200 491 142 456 q 328 526 258 526 m 194 256 q 240 148 194 194 q 347 101 286 101 q 455 147 410 101 q 500 256 500 193 q 455 371 500 324 q 347 418 410 418 q 240 371 285 418 q 194 256 194 324 m 685 943 q 690 967 683 958 q 722 975 697 975 l 754 975 q 781 967 771 975 q 788 943 790 958 l 772 813 q 766 794 771 799 q 739 790 761 790 l 722 790 q 703 798 711 790 q 694 819 696 806 l 685 943 z "},"đ":{"ha":749,"x_min":72,"x_max":706,"o":"m 328 526 q 436 499 389 526 q 510 435 483 472 l 508 750 l 336 750 q 318 758 325 750 q 311 776 311 765 l 311 822 q 318 841 311 833 q 335 849 325 849 l 508 849 l 508 957 q 514 970 508 964 q 526 976 519 976 l 604 976 q 618 970 613 976 q 624 957 624 964 l 624 849 l 681 849 q 699 841 692 849 q 706 822 706 833 l 706 776 q 699 758 706 765 q 681 750 692 750 l 624 750 l 624 21 q 618 9 624 14 q 604 4 613 4 l 526 4 q 514 9 519 4 q 508 21 508 14 l 513 82 q 430 21 479 44 q 328 -3 381 -3 q 200 33 258 -1 q 107 127 142 68 q 72 257 72 186 q 107 394 72 332 q 200 491 142 456 q 328 526 258 526 m 194 256 q 240 148 194 194 q 347 101 286 101 q 455 147 410 101 q 500 256 500 193 q 455 371 500 324 q 347 418 410 418 q 240 371 285 418 q 194 256 194 324 z "},"ě":{"ha":636,"x_min":72,"x_max":575,"o":"m 260 8 q 123 101 174 31 q 72 261 72 171 q 81 331 72 296 q 147 456 97 404 q 268 519 196 507 q 325 525 294 525 q 461 485 404 525 q 547 378 518 446 q 568 228 575 311 q 562 216 567 221 q 550 211 557 211 l 197 211 q 238 133 200 168 q 333 97 276 97 q 391 108 360 97 q 446 138 422 118 l 467 154 q 479 158 471 158 q 494 151 490 158 q 531 100 507 138 q 536 85 536 89 q 531 74 536 79 q 453 22 503 46 q 339 -3 404 -3 q 260 8 304 -3 m 158 810 q 149 828 149 819 q 154 837 149 833 q 167 840 160 840 l 214 840 q 249 837 238 840 q 268 824 260 833 l 321 760 l 375 824 q 395 837 385 833 q 429 840 406 840 l 479 840 q 492 826 492 840 q 485 810 492 817 l 378 696 q 365 685 371 688 q 343 683 358 683 l 307 683 q 284 686 290 683 q 271 696 278 689 l 158 810 m 465 308 q 416 397 454 364 q 325 429 378 429 q 228 393 268 429 q 185 307 189 357 l 465 308 z "},"ė":{"ha":636,"x_min":72,"x_max":575,"o":"m 260 8 q 123 101 174 31 q 72 261 72 171 q 81 331 72 296 q 147 456 97 404 q 268 519 196 507 q 325 525 294 525 q 461 485 404 525 q 547 378 518 446 q 568 228 575 311 q 562 216 567 221 q 550 211 557 211 l 197 211 q 238 133 200 168 q 333 97 276 97 q 391 108 360 97 q 446 138 422 118 l 467 154 q 479 158 471 158 q 494 151 490 158 q 531 100 507 138 q 536 85 536 89 q 531 74 536 79 q 453 22 503 46 q 339 -3 404 -3 q 260 8 304 -3 m 465 308 q 416 397 454 364 q 325 429 378 429 q 228 393 268 429 q 185 307 189 357 l 465 308 m 239 754 q 263 815 239 790 q 322 839 288 839 q 381 815 357 839 q 406 754 406 790 q 381 696 406 719 q 322 672 357 672 q 263 696 288 672 q 239 754 239 719 z "},"ē":{"ha":636,"x_min":72,"x_max":575,"o":"m 260 8 q 123 101 174 31 q 72 261 72 171 q 81 331 72 296 q 147 456 97 404 q 268 519 196 507 q 325 525 294 525 q 461 485 404 525 q 547 378 518 446 q 568 228 575 311 q 562 216 567 221 q 550 211 557 211 l 197 211 q 238 133 200 168 q 333 97 276 97 q 391 108 360 97 q 446 138 422 118 l 467 154 q 479 158 471 158 q 494 151 490 158 q 531 100 507 138 q 536 85 536 89 q 531 74 536 79 q 453 22 503 46 q 339 -3 404 -3 q 260 8 304 -3 m 131 804 q 138 823 131 815 q 154 831 144 831 l 500 831 q 518 823 511 831 q 525 804 525 815 l 525 758 q 518 740 525 747 q 500 732 511 732 l 156 732 q 138 740 144 732 q 131 758 131 747 l 131 804 m 465 308 q 416 397 454 364 q 325 429 378 429 q 228 393 268 429 q 185 307 189 357 l 465 308 z "},"ę":{"ha":647,"x_min":74,"x_max":579,"o":"m 261 8 q 124 101 175 31 q 74 261 74 171 q 82 331 74 296 q 148 456 99 404 q 269 519 197 507 q 326 525 296 525 q 463 485 406 525 q 548 378 519 446 q 569 228 576 311 q 563 216 568 221 q 551 211 558 211 l 199 211 q 240 133 201 168 q 335 97 278 97 q 392 108 361 97 q 447 138 424 118 l 468 154 q 481 158 472 158 q 496 151 492 158 q 532 100 508 138 q 538 85 538 89 q 532 74 538 79 l 528 69 q 524 64 528 68 q 492 13 507 44 q 478 -46 478 -19 q 528 -94 478 -93 q 554 -89 543 -94 q 561 -87 557 -87 q 574 -93 568 -87 q 579 -106 579 -99 l 579 -147 q 565 -165 579 -161 q 528 -169 549 -169 q 423 -139 457 -169 q 389 -61 389 -108 q 403 4 389 -25 q 342 -3 371 -3 q 261 8 308 -3 m 467 308 q 417 397 456 364 q 326 429 379 429 q 230 393 269 429 q 186 307 190 357 l 467 308 z "},"ẽ":{"ha":608,"x_min":58,"x_max":561,"o":"m 246 8 q 109 101 160 31 q 58 261 58 171 q 67 331 58 296 q 133 456 83 404 q 254 519 182 507 q 311 525 281 525 q 447 485 390 525 q 533 378 504 446 q 554 228 561 311 q 548 216 553 221 q 536 211 543 211 l 183 211 q 224 133 186 168 q 319 97 263 97 q 377 108 346 97 q 432 138 408 118 l 453 154 q 465 158 457 158 q 481 151 476 158 q 517 100 493 138 q 522 85 522 89 q 517 74 522 79 q 440 22 489 46 q 325 -3 390 -3 q 246 8 290 -3 m 453 308 q 405 397 442 364 q 317 429 368 429 q 223 393 261 429 q 181 307 185 357 l 453 308 m 474 832 q 490 818 486 832 q 496 774 496 797 q 462 685 496 717 q 379 653 428 653 q 313 671 343 653 q 265 724 282 689 q 228 758 246 758 q 208 742 215 758 q 201 703 201 726 l 201 700 q 199 690 201 694 q 192 683 196 685 l 119 672 l 115 671 q 106 675 110 671 q 101 685 101 679 q 100 707 100 692 q 138 808 100 769 q 226 846 175 846 q 292 826 261 846 q 343 769 324 807 q 378 740 361 740 q 397 781 397 740 q 396 804 397 796 l 396 807 q 406 822 396 818 l 469 832 l 474 832 z "},"ğ":{"ha":654,"x_min":57,"x_max":621,"o":"m 604 519 q 616 515 611 519 q 621 503 621 510 l 621 15 q 560 -200 621 -119 q 363 -281 500 -281 q 296 -276 332 -281 q 282 -268 288 -274 q 276 -254 276 -262 l 278 -185 q 286 -168 278 -175 q 306 -164 294 -161 q 353 -167 322 -167 q 472 -119 440 -167 q 504 17 504 -71 l 506 89 q 415 19 464 42 q 314 -4 365 -4 q 188 31 247 -4 q 93 128 129 67 q 57 264 57 190 q 92 395 57 335 q 188 492 128 456 q 318 528 247 528 q 500 438 419 528 l 497 503 l 497 504 q 502 515 497 511 q 513 519 507 519 l 604 519 m 172 815 q 178 828 172 822 q 192 835 183 835 l 236 835 q 249 830 243 835 q 256 818 254 825 q 283 774 261 792 q 332 756 304 756 q 379 774 358 756 q 407 818 400 792 q 413 830 408 825 q 425 835 418 835 l 475 835 q 490 828 483 835 q 494 813 496 821 q 440 713 486 753 q 333 672 394 672 q 225 713 271 672 q 172 813 179 753 l 172 815 m 178 263 q 223 153 178 199 q 332 108 268 108 q 442 155 396 108 q 489 265 489 201 q 442 374 489 329 q 332 419 396 419 q 224 372 269 419 q 178 263 178 325 z "},"ģ":{"ha":654,"x_min":57,"x_max":621,"o":"m 604 519 q 616 515 611 519 q 621 503 621 510 l 621 15 q 560 -200 621 -119 q 363 -281 500 -281 q 296 -276 332 -281 q 282 -268 288 -274 q 276 -254 276 -262 l 278 -185 q 286 -168 278 -175 q 306 -164 294 -161 q 353 -167 322 -167 q 472 -119 440 -167 q 504 17 504 -71 l 506 89 q 415 19 464 42 q 314 -4 365 -4 q 188 31 247 -4 q 93 128 129 67 q 57 264 57 190 q 92 395 57 335 q 188 492 128 456 q 318 528 247 528 q 500 438 419 528 l 497 503 l 497 504 q 502 515 497 511 q 513 519 507 519 l 604 519 m 178 263 q 223 153 178 199 q 332 108 268 108 q 442 155 396 108 q 489 265 489 201 q 442 374 489 329 q 332 419 396 419 q 224 372 269 419 q 178 263 178 325 m 267 922 q 273 937 267 931 q 288 943 279 943 l 351 943 q 366 937 360 943 q 372 922 372 931 l 372 672 q 366 658 372 664 q 351 651 360 651 l 288 651 q 273 658 279 651 q 267 672 267 664 l 267 922 z "},"ġ":{"ha":654,"x_min":57,"x_max":621,"o":"m 604 519 q 616 515 611 519 q 621 503 621 510 l 621 15 q 560 -200 621 -119 q 363 -281 500 -281 q 296 -276 332 -281 q 282 -268 288 -274 q 276 -254 276 -262 l 278 -185 q 286 -168 278 -175 q 306 -164 294 -161 q 353 -167 322 -167 q 472 -119 440 -167 q 504 17 504 -71 l 506 89 q 415 19 464 42 q 314 -4 365 -4 q 188 31 247 -4 q 93 128 129 67 q 57 264 57 190 q 92 395 57 335 q 188 492 128 456 q 318 528 247 528 q 500 438 419 528 l 497 503 l 497 504 q 502 515 497 511 q 513 519 507 519 l 604 519 m 178 263 q 223 153 178 199 q 332 108 268 108 q 442 155 396 108 q 489 265 489 201 q 442 374 489 329 q 332 419 396 419 q 224 372 269 419 q 178 263 178 325 m 233 776 q 258 837 233 813 q 317 861 282 861 q 376 837 351 861 q 400 776 400 813 q 376 718 400 742 q 317 694 351 694 q 258 718 282 694 q 233 776 233 742 z "},"ħ":{"ha":740,"x_min":43,"x_max":635,"o":"m 633 28 q 626 11 633 18 q 608 4 618 4 l 532 4 q 516 10 522 4 q 510 26 510 17 l 510 269 q 476 378 510 342 q 393 415 442 415 q 323 396 357 415 q 267 340 289 376 q 246 258 246 304 l 246 29 q 239 10 246 15 q 218 4 232 4 l 146 4 q 130 10 136 4 q 124 26 124 17 l 124 711 l 68 711 q 50 719 57 711 q 43 738 43 726 l 43 769 q 50 788 43 781 q 67 796 57 796 l 124 796 l 124 957 q 129 971 124 965 q 142 976 135 976 l 225 976 q 238 971 232 976 q 243 957 243 965 l 243 796 l 413 796 q 431 788 424 796 q 438 769 438 781 l 438 738 q 431 719 438 726 q 413 711 424 711 l 243 711 l 242 447 q 317 506 272 486 q 414 526 363 526 q 522 503 471 526 q 603 434 572 479 q 635 329 635 389 l 633 28 z "},"ı":{"ha":303,"x_min":99,"x_max":224,"o":"m 125 4 q 106 11 114 4 q 99 29 99 18 l 99 494 q 106 513 99 506 q 125 519 114 519 l 197 519 q 216 513 208 519 q 224 494 224 506 l 224 31 q 217 12 224 19 q 200 4 210 4 l 125 4 z "},"ĳ":{"ha":650,"x_min":93,"x_max":554,"o":"m 171 801 q 228 778 204 801 q 251 722 251 754 q 228 666 251 689 q 171 643 204 643 q 116 666 139 643 q 93 722 93 689 q 116 778 93 754 q 171 801 139 801 m 113 494 q 120 513 113 506 q 139 519 128 519 l 211 519 q 230 513 222 519 q 238 494 238 506 l 238 31 q 231 12 238 19 q 214 4 224 4 l 139 4 q 120 11 128 4 q 113 29 113 18 l 113 494 m 313 -278 q 318 -264 314 -269 q 329 -260 322 -258 q 399 -206 382 -264 q 415 -62 415 -149 l 415 494 q 422 513 415 506 q 439 519 429 519 l 510 519 q 528 513 521 519 q 535 494 535 506 l 535 -35 q 477 -306 535 -235 q 329 -385 419 -378 l 326 -385 q 311 -378 318 -385 q 306 -364 304 -372 l 313 -278 m 396 722 q 419 778 396 754 q 474 801 442 801 q 531 777 507 801 q 554 719 554 753 q 531 665 554 688 q 476 643 508 643 q 419 666 443 643 q 396 722 396 689 z "},"ī":{"ha":307,"x_min":-40,"x_max":354,"o":"m -40 653 q -33 672 -40 664 q -17 679 -26 679 l 329 679 q 347 672 340 679 q 354 653 354 664 l 354 607 q 347 588 354 596 q 329 581 340 581 l -15 581 q -33 588 -26 581 q -40 607 -40 596 l -40 653 m 94 494 q 102 513 94 506 q 121 519 110 519 l 193 519 q 212 513 204 519 q 219 494 219 506 l 219 31 q 213 12 219 19 q 196 4 206 4 l 121 4 q 102 11 110 4 q 94 29 94 18 l 94 494 z "},"į":{"ha":250,"x_min":35,"x_max":226,"o":"m 226 -201 q 213 -219 226 -215 q 175 -224 196 -224 q 70 -193 104 -224 q 36 -115 36 -162 q 49 -53 36 -85 q 86 4 63 -21 l 81 4 q 62 11 69 4 q 54 29 54 18 l 54 494 q 62 513 54 506 q 81 519 69 519 l 153 519 q 172 513 164 519 q 179 494 179 506 l 179 31 q 176 18 179 26 q 171 10 176 18 q 140 -42 154 -10 q 125 -100 125 -74 q 175 -149 125 -147 q 201 -143 190 -149 q 208 -142 204 -142 q 221 -147 215 -142 q 226 -160 226 -153 l 226 -201 m 35 722 q 58 778 35 754 q 113 801 81 801 q 169 778 146 801 q 193 722 193 754 q 169 666 193 689 q 113 643 146 643 q 58 666 81 643 q 35 722 35 689 z "},"ĩ":{"ha":303,"x_min":-40,"x_max":356,"o":"m 125 4 q 106 11 114 4 q 99 29 99 18 l 99 494 q 106 513 99 506 q 125 519 114 519 l 197 519 q 216 513 208 519 q 224 494 224 506 l 224 31 q 217 12 224 19 q 200 4 210 4 l 125 4 m 333 817 q 350 803 346 817 q 356 758 356 782 q 322 669 356 701 q 239 638 288 638 q 172 656 203 638 q 125 708 142 674 q 88 743 106 743 q 68 727 75 743 q 61 688 61 711 l 61 685 q 58 674 61 679 q 51 668 56 669 l -21 657 l -25 656 q -35 660 -31 656 q -39 669 -39 664 q -40 692 -40 676 q -3 792 -40 754 q 86 831 35 831 q 152 811 121 831 q 203 754 183 792 q 238 725 221 725 q 257 765 257 725 q 256 789 257 781 l 256 792 q 265 807 256 803 l 329 817 l 333 817 z "},"ȷ":{"ha":344,"x_min":13,"x_max":243,"o":"m 243 -35 q 185 -306 243 -235 q 38 -385 128 -378 l 35 -385 q 19 -378 26 -385 q 14 -364 13 -372 l 21 -278 q 26 -264 22 -269 q 38 -260 31 -258 q 107 -206 90 -264 q 124 -62 124 -149 l 124 494 q 131 513 124 506 q 147 519 138 519 l 218 519 q 236 513 229 519 q 243 494 243 506 l 243 -35 z "},"ķ":{"ha":611,"x_min":113,"x_max":578,"o":"m 572 32 q 578 19 578 26 q 572 9 578 14 q 561 4 567 4 l 468 4 l 461 4 q 432 15 442 4 l 265 228 l 233 199 l 235 29 q 228 12 235 19 q 210 4 221 4 l 139 4 q 120 11 128 4 q 113 29 113 18 l 113 950 q 120 969 113 961 q 139 976 128 976 l 210 976 q 228 969 221 976 q 235 950 235 961 l 233 353 l 383 503 q 404 517 394 514 q 432 519 414 519 l 536 519 q 556 507 556 519 q 549 492 556 499 l 353 308 l 572 32 m 281 -114 q 298 -96 290 -100 q 326 -92 306 -92 l 371 -92 q 386 -106 386 -92 q 382 -121 386 -112 l 325 -244 q 307 -268 318 -260 q 271 -276 296 -276 l 211 -276 q 188 -261 188 -276 q 194 -244 188 -256 l 281 -114 z "},"ĺ":{"ha":293,"x_min":22,"x_max":275,"o":"m 47 4 q 30 12 38 4 q 22 29 22 19 l 22 951 q 30 969 22 961 q 47 976 38 976 l 122 976 q 140 969 132 976 q 147 951 147 961 l 147 31 q 140 13 147 21 q 125 4 133 4 l 47 4 m 100 1182 q 121 1206 111 1199 q 154 1214 131 1214 l 250 1214 q 268 1209 261 1214 q 275 1197 275 1204 q 267 1182 275 1190 l 156 1083 q 93 1057 126 1057 l 49 1057 q 33 1071 33 1057 q 40 1090 33 1081 l 100 1182 z "},"ľ":{"ha":232,"x_min":114,"x_max":389,"o":"m 139 4 q 122 12 129 4 q 114 29 114 19 l 114 951 q 122 969 114 961 q 139 976 129 976 l 214 976 q 231 969 224 976 q 239 951 239 961 l 239 31 q 232 13 239 21 q 217 4 225 4 l 139 4 m 283 956 q 290 970 283 964 q 304 976 296 976 l 368 976 q 383 970 376 976 q 389 956 389 964 l 389 706 q 383 691 389 697 q 368 685 376 685 l 304 685 q 290 691 296 685 q 283 706 283 697 l 283 956 z "},"ļ":{"ha":353,"x_min":75,"x_max":279,"o":"m 179 4 q 162 12 169 4 q 154 29 154 19 l 154 951 q 162 969 154 961 q 179 976 169 976 l 254 976 q 272 969 264 976 q 279 951 279 961 l 279 31 q 272 13 279 21 q 257 4 265 4 l 179 4 m 168 -114 q 185 -96 178 -100 q 214 -92 193 -92 l 258 -92 q 274 -106 274 -92 q 269 -121 274 -112 l 213 -244 q 194 -268 206 -260 q 158 -276 183 -276 l 99 -276 q 75 -261 75 -276 q 82 -244 75 -256 l 168 -114 z "},"ł":{"ha":503,"x_min":19,"x_max":546,"o":"m 215 4 q 198 12 206 4 q 190 29 190 19 l 190 385 l 157 346 q 124 325 139 325 l 47 325 q 28 332 38 325 q 25 346 19 339 l 190 539 l 190 951 q 198 969 190 961 q 215 976 206 976 l 290 976 q 308 969 300 976 q 315 951 315 961 l 315 685 l 408 793 q 417 806 413 797 q 431 814 422 814 l 519 814 q 538 807 529 814 q 540 793 546 800 l 315 531 l 315 31 q 308 13 315 21 q 293 4 301 4 l 215 4 z "},"ń":{"ha":710,"x_min":113,"x_max":604,"o":"m 604 29 q 596 10 604 17 q 575 4 588 4 l 504 4 q 489 12 496 4 q 482 29 482 19 l 482 290 q 451 392 482 357 q 374 426 419 426 q 306 407 339 426 q 253 350 274 388 q 233 264 233 313 l 235 31 q 203 4 235 4 l 136 4 q 119 11 126 4 q 113 28 113 18 l 113 499 q 119 514 113 508 q 136 519 126 519 l 206 519 q 222 514 215 519 q 226 499 228 508 l 222 439 q 294 506 247 482 q 396 529 342 529 q 540 476 479 529 q 603 328 601 424 l 604 29 m 340 818 q 361 842 351 835 q 394 850 371 850 l 490 850 q 508 845 501 850 q 515 833 515 840 q 507 818 515 826 l 396 719 q 333 693 367 693 l 289 693 q 274 707 274 693 q 281 726 274 717 l 340 818 z "},"ň":{"ha":710,"x_min":113,"x_max":604,"o":"m 604 29 q 596 10 604 17 q 575 4 588 4 l 504 4 q 489 12 496 4 q 482 29 482 19 l 482 290 q 451 392 482 357 q 374 426 419 426 q 306 407 339 426 q 253 350 274 388 q 233 264 233 313 l 235 31 q 203 4 235 4 l 136 4 q 119 11 126 4 q 113 28 113 18 l 113 499 q 119 514 113 508 q 136 519 126 519 l 206 519 q 222 514 215 519 q 226 499 228 508 l 222 439 q 294 506 247 482 q 396 529 342 529 q 540 476 479 529 q 603 328 601 424 l 604 29 m 206 822 q 196 840 196 832 q 201 849 196 846 q 214 853 207 853 l 261 853 q 296 849 285 853 q 315 836 307 846 l 368 772 l 422 836 q 442 849 432 846 q 476 853 453 853 l 526 853 q 539 839 539 853 q 532 822 539 829 l 425 708 q 412 698 418 700 q 390 696 406 696 l 354 696 q 331 699 338 696 q 318 708 325 701 l 206 822 z "},"ņ":{"ha":713,"x_min":114,"x_max":606,"o":"m 606 29 q 597 10 606 17 q 576 4 589 4 l 506 4 q 490 12 497 4 q 483 29 483 19 l 483 290 q 452 392 483 357 q 375 426 421 426 q 308 407 340 426 q 255 350 275 388 q 235 264 235 313 l 236 31 q 204 4 236 4 l 138 4 q 121 11 128 4 q 114 28 114 18 l 114 499 q 121 514 114 508 q 138 519 128 519 l 207 519 q 223 514 217 519 q 228 499 229 508 l 224 439 q 296 506 249 482 q 397 529 343 529 q 542 476 481 529 q 604 328 603 424 l 606 29 m 300 -114 q 317 -96 310 -100 q 346 -92 325 -92 l 390 -92 q 406 -106 406 -92 q 401 -121 406 -112 l 344 -244 q 326 -268 338 -260 q 290 -276 315 -276 l 231 -276 q 207 -261 207 -276 q 214 -244 207 -256 l 300 -114 z "},"ö":{"ha":644,"x_min":58,"x_max":586,"o":"m 322 -3 q 190 33 250 -3 q 94 129 129 68 q 58 263 58 190 q 94 395 58 335 q 190 491 129 456 q 322 526 250 526 q 455 491 394 526 q 551 395 515 456 q 586 263 586 335 q 551 129 586 190 q 455 33 515 68 q 322 -3 394 -3 m 172 263 q 215 153 172 199 q 319 108 258 108 q 426 153 382 108 q 469 263 469 199 q 445 349 469 314 q 385 400 421 383 q 319 417 350 417 q 216 371 260 417 q 172 263 172 325 m 175 800 q 222 781 203 800 q 240 735 240 763 q 222 690 240 708 q 175 671 203 671 q 130 690 149 671 q 111 735 111 708 q 130 781 111 763 q 175 800 149 800 m 346 735 q 364 781 346 763 q 410 800 382 800 q 456 781 436 800 q 475 735 475 763 q 456 690 475 708 q 410 671 436 671 q 365 690 383 671 q 346 735 346 708 z "},"ő":{"ha":669,"x_min":72,"x_max":600,"o":"m 336 -3 q 203 33 264 -3 q 108 129 143 68 q 72 263 72 190 q 108 395 72 335 q 203 491 143 456 q 336 526 264 526 q 469 491 408 526 q 565 395 529 456 q 600 263 600 335 q 565 129 600 190 q 469 33 529 68 q 336 -3 408 -3 m 186 263 q 229 153 186 199 q 333 108 272 108 q 440 153 396 108 q 483 263 483 199 q 459 349 483 314 q 399 400 435 383 q 333 417 364 417 q 230 371 274 417 q 186 263 186 325 m 265 804 q 283 828 272 819 q 319 836 294 836 l 351 836 q 375 821 375 836 q 368 804 375 815 l 282 674 q 265 656 272 660 q 236 651 257 651 l 219 651 q 204 665 204 651 q 208 681 204 672 l 265 804 m 432 807 q 450 831 439 822 q 486 839 461 839 l 518 839 q 542 824 542 839 q 535 807 542 818 l 449 676 q 431 658 439 663 q 403 654 424 654 l 386 654 q 371 668 371 654 q 375 683 371 675 l 432 807 z "},"ō":{"ha":672,"x_min":72,"x_max":600,"o":"m 336 -3 q 203 33 264 -3 q 108 129 143 68 q 72 263 72 190 q 108 395 72 335 q 203 491 143 456 q 336 526 264 526 q 469 491 408 526 q 565 395 529 456 q 600 263 600 335 q 565 129 600 190 q 469 33 529 68 q 336 -3 408 -3 m 139 803 q 146 822 139 814 q 163 829 153 829 l 508 829 q 526 822 519 829 q 533 803 533 814 l 533 757 q 526 738 533 746 q 508 731 519 731 l 164 731 q 146 738 153 731 q 139 757 139 746 l 139 803 m 186 263 q 229 153 186 199 q 333 108 272 108 q 440 153 396 108 q 483 263 483 199 q 459 349 483 314 q 399 400 435 383 q 333 417 364 417 q 230 371 274 417 q 186 263 186 325 z "},"œ":{"ha":1051,"x_min":71,"x_max":990,"o":"m 335 -3 q 202 33 263 -3 q 106 129 142 68 q 71 263 71 190 q 106 395 71 335 q 202 491 142 456 q 335 526 263 526 q 449 501 396 526 q 539 429 503 475 q 683 519 597 506 q 740 525 710 525 q 876 485 819 525 q 962 378 933 446 q 983 228 990 311 q 977 216 982 221 q 965 211 972 211 l 613 211 q 653 133 615 168 q 749 97 692 97 q 806 108 775 97 q 861 138 838 118 l 882 154 q 894 158 886 158 q 910 151 906 158 q 946 100 922 138 q 951 85 951 89 q 946 74 951 79 q 869 22 918 46 q 754 -3 819 -3 q 675 8 719 -3 q 542 97 590 31 q 450 24 504 50 q 335 -3 396 -3 m 185 263 q 228 153 185 199 q 332 108 271 108 q 438 153 394 108 q 482 263 482 199 q 458 349 482 314 q 398 400 433 383 q 332 417 363 417 q 228 371 272 417 q 185 263 185 325 m 881 308 q 831 397 869 364 q 740 429 793 429 q 644 393 683 429 q 600 307 604 357 l 881 308 z "},"þ":{"ha":740,"x_min":114,"x_max":668,"o":"m 668 263 q 633 132 668 193 q 540 34 599 71 q 411 -3 481 -3 q 232 79 304 -1 l 231 -356 q 225 -369 231 -364 q 211 -375 219 -375 l 132 -375 q 119 -369 125 -375 q 114 -356 114 -364 l 115 917 q 121 929 115 924 q 133 935 126 935 l 208 935 q 222 929 217 935 q 228 917 228 924 l 228 440 q 308 502 258 478 q 407 526 357 526 q 539 491 479 526 q 633 395 599 456 q 668 263 668 335 m 242 263 q 287 153 242 200 q 394 107 332 107 q 501 153 457 107 q 546 263 546 200 q 501 370 546 325 q 394 415 457 415 q 287 370 332 415 q 242 263 242 325 z "},"ŕ":{"ha":464,"x_min":113,"x_max":438,"o":"m 421 519 q 438 501 438 515 q 435 488 438 496 q 411 424 418 436 q 392 411 404 411 q 370 413 385 411 q 339 415 356 415 q 272 388 297 415 q 243 335 247 360 l 243 29 q 214 4 243 4 l 149 4 q 133 11 139 4 q 126 28 126 18 l 126 496 q 133 513 126 506 q 149 519 139 519 l 217 519 q 233 513 226 519 q 239 496 240 506 l 235 444 q 298 506 260 485 q 376 526 336 526 q 421 519 397 526 m 179 831 q 200 855 190 847 q 233 863 210 863 l 329 863 q 347 858 340 863 q 354 846 354 853 q 346 831 354 839 l 235 732 q 172 706 206 706 l 128 706 q 113 719 113 706 q 119 739 113 729 l 179 831 z "},"ř":{"ha":428,"x_min":56,"x_max":401,"o":"m 385 519 q 401 501 401 515 q 399 488 401 496 q 375 424 382 436 q 356 411 368 411 q 334 413 349 411 q 303 415 319 415 q 236 388 261 415 q 207 335 211 360 l 207 29 q 178 4 207 4 l 113 4 q 97 11 103 4 q 90 28 90 18 l 90 496 q 97 513 90 506 q 113 519 103 519 l 181 519 q 197 513 190 519 q 203 496 204 506 l 199 444 q 262 506 224 485 q 340 526 300 526 q 385 519 361 526 m 65 821 q 56 839 56 831 q 61 848 56 844 q 74 851 67 851 l 121 851 q 156 848 144 851 q 175 835 167 844 l 228 771 l 282 835 q 302 848 292 844 q 336 851 313 851 l 386 851 q 399 838 399 851 q 392 821 399 828 l 285 707 q 272 697 278 699 q 250 694 265 694 l 214 694 q 191 697 197 694 q 178 707 185 700 l 65 821 z "},"ŗ":{"ha":501,"x_min":79,"x_max":475,"o":"m 458 519 q 475 501 475 515 q 472 488 475 496 q 449 424 456 436 q 429 411 442 411 q 408 413 422 411 q 376 415 393 415 q 310 388 335 415 q 281 335 285 360 l 281 29 q 251 4 281 4 l 186 4 q 170 11 176 4 q 164 28 164 18 l 164 496 q 170 513 164 506 q 186 519 176 519 l 254 519 q 271 513 264 519 q 276 496 278 506 l 272 444 q 335 506 297 485 q 414 526 374 526 q 458 519 435 526 m 172 -114 q 190 -96 182 -100 q 218 -92 197 -92 l 263 -92 q 278 -106 278 -92 q 274 -121 278 -112 l 217 -244 q 199 -268 210 -260 q 163 -276 188 -276 l 103 -276 q 79 -261 79 -276 q 86 -244 79 -256 l 172 -114 z "},"ś":{"ha":539,"x_min":76,"x_max":479,"o":"m 311 306 q 433 245 388 285 q 475 135 479 206 q 415 34 471 71 q 283 -3 360 -3 q 178 17 229 -3 q 92 76 126 38 q 76 111 76 96 q 86 125 76 121 l 132 143 q 161 151 149 151 q 189 136 178 151 q 232 103 206 114 q 286 93 258 93 q 336 106 315 93 q 357 142 357 119 q 331 185 357 167 q 224 229 306 203 q 122 290 153 253 q 92 372 92 328 q 100 421 92 399 q 159 494 114 463 q 279 526 204 526 q 390 501 339 526 q 467 429 442 476 q 469 419 469 421 q 456 403 469 410 l 417 386 q 383 378 396 378 q 360 389 367 378 q 324 421 347 410 q 276 432 301 432 q 225 417 246 432 q 204 374 204 403 q 229 336 204 350 q 311 306 254 322 m 256 831 q 276 855 267 847 q 310 863 286 863 l 406 863 q 424 858 417 863 q 431 846 431 853 q 422 831 431 839 l 311 732 q 249 706 282 706 l 204 706 q 189 719 189 706 q 196 739 189 729 l 256 831 z "},"š":{"ha":528,"x_min":76,"x_max":479,"o":"m 311 306 q 433 245 388 285 q 475 135 479 206 q 415 34 471 71 q 283 -3 360 -3 q 178 17 229 -3 q 92 76 126 38 q 76 111 76 96 q 86 125 76 121 l 132 143 q 161 151 149 151 q 189 136 178 151 q 232 103 206 114 q 286 93 258 93 q 336 106 315 93 q 357 142 357 119 q 331 185 357 167 q 224 229 306 203 q 122 290 153 253 q 92 372 92 328 q 100 421 92 399 q 159 494 114 463 q 279 526 204 526 q 390 501 339 526 q 467 429 442 476 q 469 419 469 421 q 456 403 469 410 l 417 386 q 383 378 396 378 q 360 389 367 378 q 324 421 347 410 q 276 432 301 432 q 225 417 246 432 q 204 374 204 403 q 229 336 204 350 q 311 306 254 322 m 113 825 q 103 843 103 835 q 108 852 103 849 q 121 856 114 856 l 168 856 q 203 852 192 856 q 222 839 214 849 l 275 775 l 329 839 q 349 852 339 849 q 383 856 360 856 l 433 856 q 446 842 446 856 q 439 825 446 832 l 332 711 q 319 701 325 703 q 297 699 313 699 l 261 699 q 238 701 244 699 q 225 711 232 704 l 113 825 z "},"ş":{"ha":542,"x_min":78,"x_max":476,"o":"m 313 306 q 476 144 476 261 q 435 49 476 88 q 332 1 394 11 l 332 -43 q 416 -81 390 -54 q 442 -149 442 -107 q 428 -201 442 -174 q 383 -247 413 -229 q 314 -264 353 -264 q 260 -251 285 -264 q 218 -211 235 -237 q 217 -203 217 -208 q 225 -185 217 -192 l 249 -172 q 257 -171 251 -171 q 272 -178 265 -171 q 317 -201 288 -201 q 348 -192 333 -201 q 368 -167 363 -182 q 371 -154 371 -158 q 358 -127 371 -139 q 321 -110 346 -115 l 260 -97 q 242 -85 247 -94 q 236 -67 236 -76 l 236 1 q 93 76 149 15 q 78 111 78 96 q 88 125 78 121 l 133 143 q 163 151 150 151 q 190 136 179 151 q 233 103 207 114 q 288 93 260 93 q 338 106 317 93 q 358 142 358 119 q 333 185 358 167 q 225 229 307 203 q 124 290 154 253 q 93 372 93 328 q 101 421 93 399 q 160 494 115 463 q 281 526 206 526 q 392 501 340 526 q 468 429 443 476 q 471 419 471 421 q 457 403 471 410 l 418 386 q 385 378 397 378 q 361 389 368 378 q 326 421 349 410 q 278 432 303 432 q 226 417 247 432 q 206 374 206 403 q 231 336 206 350 q 313 306 256 322 z "},"ș":{"ha":539,"x_min":76,"x_max":479,"o":"m 311 306 q 433 245 388 285 q 475 135 479 206 q 415 34 471 71 q 283 -3 360 -3 q 178 17 229 -3 q 92 76 126 38 q 76 111 76 96 q 86 125 76 121 l 132 143 q 161 151 149 151 q 189 136 178 151 q 232 103 206 114 q 286 93 258 93 q 336 106 315 93 q 357 142 357 119 q 331 185 357 167 q 224 229 306 203 q 122 290 153 253 q 92 372 92 328 q 100 421 92 399 q 159 494 114 463 q 279 526 204 526 q 390 501 339 526 q 467 429 442 476 q 469 419 469 421 q 456 403 469 410 l 417 386 q 383 378 396 378 q 360 389 367 378 q 324 421 347 410 q 276 432 301 432 q 225 417 246 432 q 204 374 204 403 q 229 336 204 350 q 311 306 254 322 m 247 -114 q 265 -96 257 -100 q 293 -92 272 -92 l 338 -92 q 353 -106 353 -92 q 349 -121 353 -112 l 292 -244 q 274 -268 285 -260 q 238 -276 263 -276 l 178 -276 q 154 -261 154 -276 q 161 -244 154 -256 l 247 -114 z "},"ß":{"ha":772,"x_min":69,"x_max":731,"o":"m 494 515 q 677 403 624 474 q 731 251 731 332 q 692 101 731 163 q 589 11 653 40 q 447 -18 525 -18 q 283 15 363 -18 q 273 26 276 18 q 274 43 269 35 l 304 110 q 315 121 307 118 q 332 119 324 124 q 446 93 393 93 q 565 140 521 93 q 608 251 608 186 q 565 350 608 308 q 415 424 522 392 q 378 451 390 432 q 365 494 365 469 q 390 564 365 532 l 414 594 q 490 703 468 658 q 500 744 500 722 q 454 827 500 793 q 349 861 408 861 q 256 831 290 861 q 210 764 222 801 q 197 697 197 726 l 197 21 q 191 6 197 13 q 176 0 185 0 l 90 0 q 76 6 82 0 q 69 21 69 13 l 69 697 q 99 831 69 767 q 190 938 129 896 q 340 979 251 979 q 478 948 419 979 q 568 871 536 917 q 608 782 600 825 q 611 744 611 768 q 590 652 611 692 q 529 563 569 613 q 494 515 507 535 z "},"ť":{"ha":238,"x_min":51,"x_max":415,"o":"m 275 214 q 290 133 275 158 q 324 103 306 107 q 372 99 342 99 q 394 90 389 101 q 399 38 400 78 q 395 16 399 24 q 378 6 392 8 q 321 -1 353 -1 q 206 43 253 -1 q 158 201 158 88 l 158 421 l 72 421 q 58 427 64 421 q 51 443 51 433 l 51 499 q 58 513 51 507 q 72 519 64 519 l 158 519 l 158 776 q 165 794 158 788 q 182 800 172 800 l 258 800 q 276 794 269 800 q 282 776 282 788 l 282 519 l 394 519 q 409 513 403 519 q 415 499 415 507 l 415 443 q 409 428 415 435 q 394 421 403 421 l 275 421 l 275 214 m 221 1017 q 242 1041 232 1033 q 275 1049 251 1049 l 371 1049 q 389 1044 382 1049 q 396 1032 396 1039 q 388 1017 396 1025 l 276 918 q 214 892 247 892 l 169 892 q 154 906 154 892 q 161 925 154 915 l 221 1017 z "},"ţ":{"ha":439,"x_min":38,"x_max":406,"o":"m 261 214 q 276 133 261 158 q 310 103 292 107 q 358 99 328 99 q 381 90 375 101 q 385 38 386 78 q 381 16 385 24 q 364 6 378 8 q 296 -1 326 -3 l 296 -54 q 380 -92 354 -65 q 406 -160 406 -118 q 392 -212 406 -185 q 347 -258 376 -240 q 278 -275 317 -275 q 224 -262 249 -275 q 182 -222 199 -249 q 181 -214 181 -219 q 189 -196 181 -203 l 213 -183 q 221 -182 215 -182 q 236 -189 229 -182 q 281 -212 251 -212 q 312 -203 297 -212 q 332 -178 326 -193 q 335 -165 335 -169 q 322 -138 335 -150 q 285 -121 310 -126 l 224 -108 q 206 -97 211 -106 q 200 -78 200 -87 l 200 29 l 201 35 q 144 201 144 85 l 144 421 l 58 421 q 44 427 50 421 q 38 443 38 433 l 38 499 q 44 513 38 507 q 58 519 50 519 l 144 519 l 144 776 q 151 794 144 788 q 168 800 158 800 l 244 800 q 262 794 256 800 q 268 776 268 788 l 268 519 l 381 519 q 395 513 389 519 q 401 499 401 507 l 401 443 q 395 428 401 435 q 381 421 389 421 l 261 421 l 261 214 z "},"ț":{"ha":468,"x_min":51,"x_max":415,"o":"m 275 214 q 290 133 275 158 q 324 103 306 107 q 372 99 342 99 q 394 90 389 101 q 399 38 400 78 q 395 16 399 24 q 378 6 392 8 q 321 -1 353 -1 q 206 43 253 -1 q 158 201 158 88 l 158 421 l 72 421 q 58 427 64 421 q 51 443 51 433 l 51 499 q 58 513 51 507 q 72 519 64 519 l 158 519 l 158 776 q 165 794 158 788 q 182 800 172 800 l 258 800 q 276 794 269 800 q 282 776 282 788 l 282 519 l 394 519 q 409 513 403 519 q 415 499 415 507 l 415 443 q 409 428 415 435 q 394 421 403 421 l 275 421 l 275 214 m 247 -114 q 265 -96 257 -100 q 293 -92 272 -92 l 338 -92 q 353 -106 353 -92 q 349 -121 353 -112 l 292 -244 q 274 -268 285 -260 q 238 -276 263 -276 l 178 -276 q 154 -261 154 -276 q 161 -244 154 -256 l 247 -114 z "},"ü":{"ha":682,"x_min":92,"x_max":583,"o":"m 560 519 q 576 513 568 519 q 583 496 583 506 l 583 25 q 576 10 583 17 q 560 4 568 4 l 490 4 q 474 10 481 4 q 469 25 468 15 l 474 86 q 403 18 450 42 q 301 -6 356 -6 q 200 17 247 -6 q 123 85 153 40 q 93 196 93 131 l 92 494 q 100 513 92 507 q 121 519 108 519 l 190 519 q 206 512 199 519 q 214 494 214 504 l 214 235 q 247 129 214 165 q 325 93 279 93 q 392 113 360 93 q 443 171 424 133 q 463 260 463 208 l 460 493 q 492 519 460 519 l 560 519 m 129 732 q 149 781 129 761 q 196 800 168 800 q 244 781 224 800 q 264 732 264 761 q 244 685 264 704 q 196 665 224 665 q 149 685 168 665 q 129 732 129 704 m 374 732 q 393 781 374 761 q 440 800 413 800 q 488 781 468 800 q 508 732 508 761 q 488 685 508 704 q 440 665 468 665 q 393 685 413 665 q 374 732 374 704 z "},"ű":{"ha":679,"x_min":106,"x_max":597,"o":"m 574 519 q 590 513 582 519 q 597 496 597 506 l 597 25 q 590 10 597 17 q 574 4 582 4 l 504 4 q 488 10 494 4 q 483 25 482 15 l 488 86 q 417 18 464 42 q 315 -6 371 -6 q 214 17 261 -6 q 137 85 167 40 q 107 196 107 131 l 106 494 q 114 513 106 507 q 135 519 122 519 l 204 519 q 220 512 213 519 q 228 494 228 504 l 228 235 q 260 129 228 165 q 339 93 293 93 q 406 113 374 93 q 457 171 438 133 q 476 260 476 208 l 474 493 q 506 519 474 519 l 574 519 m 272 806 q 290 829 279 821 q 326 838 301 838 l 358 838 q 382 822 382 838 q 375 806 382 817 l 289 675 q 272 657 279 661 q 243 653 264 653 l 226 653 q 211 667 211 653 q 215 682 211 674 l 272 806 m 439 808 q 457 832 446 824 q 493 840 468 840 l 525 840 q 549 825 549 840 q 542 808 549 819 l 456 678 q 438 660 446 664 q 410 656 431 656 l 393 656 q 378 669 378 656 q 382 685 378 676 l 439 808 z "},"ū":{"ha":710,"x_min":106,"x_max":597,"o":"m 574 519 q 590 513 582 519 q 597 496 597 506 l 597 25 q 590 10 597 17 q 574 4 582 4 l 504 4 q 488 10 494 4 q 483 25 482 15 l 488 86 q 417 18 464 42 q 315 -6 371 -6 q 214 17 261 -6 q 137 85 167 40 q 107 196 107 131 l 106 494 q 114 513 106 507 q 135 519 122 519 l 204 519 q 220 512 213 519 q 228 494 228 504 l 228 235 q 260 129 228 165 q 339 93 293 93 q 406 113 374 93 q 457 171 438 133 q 476 260 476 208 l 474 493 q 506 519 474 519 l 574 519 m 161 778 q 168 797 161 789 q 185 804 175 804 l 531 804 q 549 797 542 804 q 556 778 556 789 l 556 732 q 549 713 556 721 q 531 706 542 706 l 186 706 q 168 713 175 706 q 161 732 161 721 l 161 778 z "},"ų":{"ha":665,"x_min":106,"x_max":646,"o":"m 574 519 q 590 513 582 519 q 597 496 597 506 l 597 25 q 596 18 597 21 q 590 8 597 17 q 559 -43 574 -11 q 544 -101 544 -75 q 594 -150 544 -149 q 621 -144 610 -150 q 628 -143 624 -143 q 640 -149 635 -143 q 646 -161 646 -154 l 646 -203 q 632 -221 646 -217 q 594 -225 615 -225 q 488 -194 522 -225 q 454 -117 454 -164 q 468 -53 454 -86 q 506 4 482 -21 l 504 4 q 488 10 494 4 q 483 25 482 15 l 488 86 q 417 18 464 42 q 315 -6 371 -6 q 214 17 261 -6 q 137 85 167 40 q 107 196 107 131 l 106 494 q 114 513 106 507 q 135 519 122 519 l 204 519 q 220 512 213 519 q 228 494 228 504 l 228 235 q 260 129 228 165 q 339 93 293 93 q 406 113 374 93 q 457 171 438 133 q 476 260 476 208 l 474 493 q 506 519 474 519 l 574 519 z "},"ů":{"ha":710,"x_min":106,"x_max":597,"o":"m 574 519 q 590 513 582 519 q 597 496 597 506 l 597 25 q 590 10 597 17 q 574 4 582 4 l 504 4 q 488 10 494 4 q 483 25 482 15 l 488 86 q 417 18 464 42 q 315 -6 371 -6 q 214 17 261 -6 q 137 85 167 40 q 107 196 107 131 l 106 494 q 114 513 106 507 q 135 519 122 519 l 204 519 q 220 512 213 519 q 228 494 228 504 l 228 235 q 260 129 228 165 q 339 93 293 93 q 406 113 374 93 q 457 171 438 133 q 476 260 476 208 l 474 493 q 506 519 474 519 l 574 519 m 210 765 q 252 867 210 825 q 354 910 294 910 q 460 867 417 910 q 503 765 503 825 q 460 660 503 703 q 354 617 417 617 q 252 660 294 617 q 210 765 210 703 m 286 765 q 306 713 286 735 q 354 692 326 692 q 403 713 383 692 q 424 765 424 735 q 401 817 424 799 q 354 836 378 836 q 306 815 326 836 q 286 765 286 793 z "},"ũ":{"ha":682,"x_min":92,"x_max":583,"o":"m 560 519 q 576 513 568 519 q 583 496 583 506 l 583 25 q 576 10 583 17 q 560 4 568 4 l 490 4 q 474 10 481 4 q 469 25 468 15 l 474 86 q 403 18 450 42 q 301 -6 356 -6 q 200 17 247 -6 q 123 85 153 40 q 93 196 93 131 l 92 494 q 100 513 92 507 q 121 519 108 519 l 190 519 q 206 512 199 519 q 214 494 214 504 l 214 235 q 247 129 214 165 q 325 93 279 93 q 392 113 360 93 q 443 171 424 133 q 463 260 463 208 l 460 493 q 492 519 460 519 l 560 519 m 499 808 q 515 794 511 808 q 521 750 521 774 q 487 661 521 693 q 404 629 453 629 q 338 647 368 629 q 290 700 307 665 q 253 735 271 735 q 233 719 240 735 q 226 679 226 703 l 226 676 q 224 666 226 671 q 217 660 221 661 l 144 649 l 140 647 q 131 651 135 647 q 126 661 126 656 q 125 683 125 668 q 163 784 125 746 q 251 822 200 822 q 317 803 286 822 q 368 746 349 783 q 403 717 386 717 q 422 757 422 717 q 421 781 422 772 l 421 783 q 431 799 421 794 l 494 808 l 499 808 z "},"ẃ":{"ha":917,"x_min":58,"x_max":858,"o":"m 833 519 q 851 515 844 519 q 858 500 858 510 q 856 486 858 492 l 689 25 q 678 10 686 17 q 660 4 671 4 l 600 4 q 583 10 590 4 q 574 25 576 17 l 458 329 l 343 25 q 333 10 340 17 q 317 4 326 4 l 257 4 q 238 10 246 4 q 228 25 231 17 l 61 486 q 58 500 58 492 q 66 515 58 510 q 83 519 74 519 l 154 519 q 178 514 171 519 q 189 494 186 508 l 283 167 l 417 504 q 439 519 422 519 l 481 519 q 501 506 496 519 l 633 167 l 728 494 q 739 513 731 507 q 764 519 747 519 l 833 519 m 444 821 q 465 845 456 838 q 499 853 475 853 l 594 853 q 613 848 606 853 q 619 836 619 843 q 611 821 619 829 l 500 722 q 438 696 471 696 l 393 696 q 378 710 378 696 q 385 729 378 719 l 444 821 z "},"ŵ":{"ha":917,"x_min":58,"x_max":858,"o":"m 833 519 q 851 515 844 519 q 858 500 858 510 q 856 486 858 492 l 689 25 q 678 10 686 17 q 660 4 671 4 l 600 4 q 583 10 590 4 q 574 25 576 17 l 458 329 l 343 25 q 333 10 340 17 q 317 4 326 4 l 257 4 q 238 10 246 4 q 228 25 231 17 l 61 486 q 58 500 58 492 q 66 515 58 510 q 83 519 74 519 l 154 519 q 178 514 171 519 q 189 494 186 508 l 283 167 l 417 504 q 439 519 422 519 l 481 519 q 501 506 496 519 l 633 167 l 728 494 q 739 513 731 507 q 764 519 747 519 l 833 519 m 407 835 q 420 845 414 843 q 442 847 426 847 l 478 847 q 501 844 494 847 q 514 835 507 842 l 626 721 q 636 703 636 711 q 631 694 636 697 q 618 690 625 690 l 571 690 q 536 694 547 690 q 517 707 525 697 l 464 771 l 410 707 q 390 694 400 697 q 356 690 379 690 l 306 690 q 293 704 293 690 q 300 721 293 714 l 407 835 z "},"ẅ":{"ha":917,"x_min":58,"x_max":858,"o":"m 833 519 q 851 515 844 519 q 858 500 858 510 q 856 486 858 492 l 689 25 q 678 10 686 17 q 660 4 671 4 l 600 4 q 583 10 590 4 q 574 25 576 17 l 458 329 l 343 25 q 333 10 340 17 q 317 4 326 4 l 257 4 q 238 10 246 4 q 228 25 231 17 l 61 486 q 58 500 58 492 q 66 515 58 510 q 83 519 74 519 l 154 519 q 178 514 171 519 q 189 494 186 508 l 283 167 l 417 504 q 439 519 422 519 l 481 519 q 501 506 496 519 l 633 167 l 728 494 q 739 513 731 507 q 764 519 747 519 l 833 519 m 261 750 q 280 797 261 778 q 325 815 299 815 q 372 797 353 815 q 390 750 390 778 q 372 705 390 724 q 325 686 353 686 q 280 705 299 686 q 261 750 261 724 m 525 750 q 543 797 525 778 q 589 815 561 815 q 635 797 615 815 q 654 750 654 778 q 635 705 654 724 q 589 686 615 686 q 544 705 563 686 q 525 750 525 724 z "},"ẁ":{"ha":917,"x_min":58,"x_max":858,"o":"m 833 519 q 851 515 844 519 q 858 500 858 510 q 856 486 858 492 l 689 25 q 678 10 686 17 q 660 4 671 4 l 600 4 q 583 10 590 4 q 574 25 576 17 l 458 329 l 343 25 q 333 10 340 17 q 317 4 326 4 l 257 4 q 238 10 246 4 q 228 25 231 17 l 61 486 q 58 500 58 492 q 66 515 58 510 q 83 519 74 519 l 154 519 q 178 514 171 519 q 189 494 186 508 l 283 167 l 417 504 q 439 519 422 519 l 481 519 q 501 506 496 519 l 633 167 l 728 494 q 739 513 731 507 q 764 519 747 519 l 833 519 m 265 800 q 257 815 257 808 q 264 827 257 822 q 282 832 271 832 l 378 832 q 411 824 401 832 q 432 800 421 817 l 492 708 q 499 689 499 699 q 483 675 499 675 l 439 675 q 376 701 406 675 l 265 800 z "},"ŷ":{"ha":575,"x_min":31,"x_max":544,"o":"m 515 519 q 537 509 529 519 q 540 488 544 499 l 228 -328 q 217 -342 225 -336 q 199 -347 208 -347 l 135 -347 q 115 -336 122 -347 q 111 -314 107 -325 l 247 42 l 33 488 q 31 499 31 496 q 37 513 31 507 q 53 519 43 519 l 135 519 q 158 506 153 519 l 297 197 l 414 506 q 436 519 419 519 l 515 519 m 226 810 q 240 820 233 818 q 261 822 246 822 l 297 822 q 320 819 314 822 q 333 810 326 817 l 446 696 q 456 678 456 686 q 450 669 456 672 q 438 665 444 665 l 390 665 q 356 669 367 665 q 336 682 344 672 l 283 746 l 229 682 q 209 669 219 672 q 175 665 199 665 l 125 665 q 113 679 113 665 q 119 696 113 689 l 226 810 z "},"ỳ":{"ha":575,"x_min":31,"x_max":544,"o":"m 515 519 q 537 509 529 519 q 540 488 544 499 l 228 -328 q 217 -342 225 -336 q 199 -347 208 -347 l 135 -347 q 115 -336 122 -347 q 111 -314 107 -325 l 247 42 l 33 488 q 31 499 31 496 q 37 513 31 507 q 53 519 43 519 l 135 519 q 158 506 153 519 l 297 197 l 414 506 q 436 519 419 519 l 515 519 m 126 788 q 118 803 118 796 q 125 815 118 810 q 143 819 132 819 l 239 819 q 272 812 263 819 q 293 788 282 804 l 353 696 q 360 676 360 686 q 344 663 360 663 l 300 663 q 238 689 267 663 l 126 788 z "},"ỹ":{"ha":547,"x_min":17,"x_max":532,"o":"m 501 519 q 524 509 515 519 q 526 488 532 499 l 214 -328 q 203 -342 211 -336 q 185 -347 194 -347 l 121 -347 q 101 -336 108 -347 q 97 -314 93 -325 l 233 42 l 19 488 q 17 499 17 496 q 23 513 17 507 q 39 519 29 519 l 121 519 q 144 506 139 519 l 283 197 l 400 506 q 422 519 404 519 l 501 519 m 431 807 q 447 793 443 807 q 453 749 453 772 q 419 660 453 692 q 336 628 385 628 q 269 646 300 628 q 222 699 239 664 q 185 733 203 733 q 165 717 172 733 q 158 678 158 701 l 158 675 q 156 665 158 669 q 149 658 153 660 l 76 647 l 72 646 q 63 650 67 646 q 58 660 58 654 q 57 682 57 667 q 94 783 57 744 q 183 821 132 821 q 249 801 218 821 q 300 744 281 782 q 335 715 318 715 q 354 756 354 715 q 353 779 354 771 l 353 782 q 363 797 353 793 l 426 807 l 431 807 z "},"ź":{"ha":542,"x_min":64,"x_max":486,"o":"m 82 4 q 69 13 74 4 q 69 31 65 22 l 301 415 l 83 415 q 70 423 76 415 q 64 438 64 431 l 64 503 q 83 522 64 522 l 458 519 q 472 510 468 519 q 469 493 476 500 l 242 113 l 464 113 q 480 106 475 113 q 485 93 485 100 l 486 25 q 480 9 486 14 q 467 4 474 4 l 82 4 m 261 786 q 282 810 272 803 q 315 818 292 818 l 411 818 q 429 813 422 818 q 436 801 436 808 q 428 786 436 794 l 317 688 q 254 661 288 661 l 210 661 q 194 675 194 661 q 201 694 194 685 l 261 786 z "},"ž":{"ha":542,"x_min":64,"x_max":486,"o":"m 82 4 q 69 13 74 4 q 69 31 65 22 l 301 415 l 83 415 q 70 423 76 415 q 64 438 64 431 l 64 503 q 83 522 64 522 l 458 519 q 472 510 468 519 q 469 493 476 500 l 242 113 l 464 113 q 480 106 475 113 q 485 93 485 100 l 486 25 q 480 9 486 14 q 467 4 474 4 l 82 4 m 125 778 q 115 796 115 788 q 121 805 115 801 q 133 808 126 808 l 181 808 q 215 805 204 808 q 235 792 226 801 l 288 728 l 342 792 q 362 805 351 801 q 396 808 372 808 l 446 808 q 458 794 458 808 q 451 778 458 785 l 344 664 q 331 653 338 656 q 310 651 325 651 l 274 651 q 251 654 257 651 q 238 664 244 657 l 125 778 z "},"ż":{"ha":542,"x_min":64,"x_max":486,"o":"m 82 4 q 69 13 74 4 q 69 31 65 22 l 301 415 l 83 415 q 70 423 76 415 q 64 438 64 431 l 64 503 q 83 522 64 522 l 458 519 q 472 510 468 519 q 469 493 476 500 l 242 113 l 464 113 q 480 106 475 113 q 485 93 485 100 l 486 25 q 480 9 486 14 q 467 4 474 4 l 82 4 m 185 725 q 209 785 185 761 q 268 810 233 810 q 327 785 303 810 q 351 725 351 761 q 327 667 351 690 q 268 643 303 643 q 209 667 233 643 q 185 725 185 690 z "},"⁄":{"ha":79,"x_min":-194,"x_max":301,"o":"m 181 915 q 191 929 183 924 q 208 935 199 935 l 286 935 q 298 929 294 935 q 299 915 301 924 l -75 -17 q -85 -31 -78 -25 q -100 -36 -92 -36 l -178 -36 q -191 -31 -187 -36 q -192 -17 -194 -25 l 181 915 z "},"&":{"ha":951,"x_min":118,"x_max":929,"o":"m 450 -14 q 276 26 351 -14 q 159 135 200 67 q 118 283 118 203 q 167 440 118 365 q 317 581 217 515 q 250 671 272 632 q 218 783 218 724 q 273 919 218 863 q 426 978 328 976 q 578 919 519 978 q 636 771 636 860 q 479 553 636 650 l 726 297 q 782 457 753 340 q 791 474 786 468 q 808 482 796 481 l 881 483 l 883 483 q 899 476 893 483 q 901 458 904 468 q 808 210 874 325 l 922 96 q 929 81 929 89 q 918 60 929 71 l 872 11 q 858 4 865 4 q 838 17 847 4 l 746 114 q 450 -14 624 -14 m 242 283 q 272 185 242 226 q 348 123 301 144 q 446 101 394 101 q 563 128 506 101 q 657 203 619 154 l 386 485 q 285 399 328 444 q 242 283 242 353 m 326 789 q 346 718 324 756 q 408 646 368 681 q 424 650 411 643 q 447 664 438 657 q 463 674 457 671 q 508 722 492 699 q 525 774 525 744 q 497 847 525 821 q 428 872 468 872 q 362 850 392 872 q 326 789 332 828 z "},"¶":{"ha":908,"x_min":21,"x_max":892,"o":"m 21 721 q 55 882 21 808 q 149 999 89 956 q 282 1042 208 1042 l 871 1042 q 885 1035 879 1042 q 892 1019 892 1029 l 892 969 q 885 953 892 960 q 871 947 879 947 l 801 947 l 801 -343 q 796 -356 801 -350 q 783 -361 790 -361 l 732 -361 q 719 -356 725 -361 q 714 -343 714 -350 l 714 947 l 481 947 l 481 -343 q 476 -356 481 -350 q 464 -361 471 -361 l 413 -361 q 399 -356 404 -361 q 393 -343 393 -350 l 393 410 l 288 410 q 154 452 215 410 q 57 566 93 494 q 21 721 21 638 z "},"§":{"ha":725,"x_min":56,"x_max":658,"o":"m 58 -203 q 56 -193 56 -194 q 60 -183 56 -187 q 68 -178 64 -179 l 143 -139 q 151 -136 149 -136 q 169 -149 163 -136 q 245 -228 193 -200 q 357 -256 297 -256 q 479 -217 429 -256 q 524 -111 529 -178 q 493 -35 521 -68 q 426 20 465 -3 q 322 75 388 43 q 287 93 307 83 q 244 115 267 103 q 126 211 161 161 q 92 321 92 261 q 126 435 92 383 q 224 521 161 488 q 125 617 158 560 q 92 739 92 675 q 125 859 92 803 q 222 950 158 915 q 371 985 286 985 q 535 942 461 985 q 646 831 608 899 q 647 822 647 828 q 636 804 647 808 l 561 774 q 553 772 558 772 q 535 783 540 772 q 466 851 510 828 q 374 875 422 875 q 263 838 310 875 q 217 740 217 801 q 275 635 217 678 q 439 542 333 592 q 550 483 517 507 q 630 407 601 450 q 658 314 658 364 q 633 222 658 265 q 570 150 607 179 q 501 110 533 121 q 607 13 565 74 q 649 -118 649 -47 q 606 -249 649 -192 q 497 -337 564 -306 q 358 -368 431 -368 q 181 -325 260 -368 q 58 -203 101 -282 m 338 456 q 283 437 313 454 q 233 392 254 419 q 213 333 213 365 q 399 176 213 240 q 442 190 411 176 q 498 231 472 203 q 524 306 524 260 q 481 381 524 350 q 338 456 439 411 z "},"©":{"ha":1103,"x_min":61,"x_max":1043,"o":"m 553 -6 q 306 60 419 -6 q 127 240 193 126 q 61 486 61 353 q 128 733 61 621 q 307 912 194 846 q 553 978 419 978 q 799 912 686 978 q 977 733 911 846 q 1043 486 1043 619 q 977 240 1043 353 q 799 60 911 126 q 553 -6 686 -6 m 175 486 q 226 291 175 381 q 363 149 276 201 q 553 96 450 96 q 740 149 654 96 q 877 291 826 201 q 928 486 928 381 q 877 683 928 593 q 740 824 826 772 q 553 876 654 876 q 363 824 450 876 q 226 683 276 772 q 175 486 175 593 m 313 536 q 375 665 325 610 q 496 740 425 721 q 569 751 536 751 q 708 711 643 751 q 714 703 713 708 q 713 692 715 697 l 675 629 q 665 622 672 624 q 653 624 658 619 q 574 646 613 646 q 470 600 510 646 q 431 483 431 554 q 472 375 431 421 q 576 329 514 329 q 667 358 622 329 q 676 361 672 361 q 690 354 685 361 l 733 299 q 736 290 736 293 q 731 279 736 285 q 568 222 661 222 q 522 226 546 222 q 396 288 451 238 q 321 410 340 339 q 310 488 310 449 q 313 536 310 500 z "},"®":{"ha":1104,"x_min":61,"x_max":1043,"o":"m 553 -6 q 306 60 419 -6 q 127 240 193 126 q 61 486 61 353 q 128 733 61 621 q 307 912 194 846 q 553 978 419 978 q 799 912 686 978 q 977 733 911 846 q 1043 486 1043 619 q 977 240 1043 353 q 799 60 911 126 q 553 -6 686 -6 m 175 486 q 226 291 175 381 q 363 149 276 201 q 553 96 450 96 q 740 149 654 96 q 877 291 826 201 q 928 486 928 381 q 877 683 928 593 q 740 824 826 772 q 553 876 654 876 q 363 824 450 876 q 226 683 276 772 q 175 486 175 593 m 386 738 q 391 750 386 744 q 403 756 396 756 l 536 756 q 667 727 613 756 q 750 653 722 699 q 778 553 778 607 q 752 454 778 501 q 676 375 726 407 l 735 261 l 736 257 q 732 244 736 250 q 721 238 728 238 l 647 238 q 635 242 642 238 q 625 254 629 246 l 583 344 q 540 343 576 343 l 492 343 l 492 256 q 488 242 492 247 q 476 238 483 238 l 403 238 q 391 242 396 238 q 386 256 386 247 l 386 738 m 542 442 q 639 474 604 442 q 674 550 674 506 q 638 628 674 596 q 540 661 603 661 l 492 661 l 492 442 l 542 442 z "},"°":{"ha":392,"x_min":31,"x_max":361,"o":"m 196 663 q 79 711 128 663 q 31 829 31 760 q 79 947 31 899 q 196 994 128 994 q 313 947 265 994 q 361 829 361 899 q 313 711 361 760 q 196 663 264 663 m 108 829 q 133 765 108 792 q 194 739 158 739 q 256 765 231 739 q 282 829 282 792 q 253 897 282 874 q 194 919 225 919 q 134 892 160 919 q 108 829 108 865 z "},"|":{"ha":290,"x_min":93,"x_max":197,"o":"m 93 1021 q 99 1035 93 1029 q 115 1042 106 1042 l 176 1042 q 191 1035 185 1042 q 197 1021 197 1029 l 197 -368 q 191 -383 197 -376 q 176 -389 185 -389 l 115 -389 q 99 -383 106 -389 q 93 -368 93 -376 l 93 1021 z "},"¦":{"ha":521,"x_min":208,"x_max":313,"o":"m 208 1021 q 215 1035 208 1029 q 231 1042 221 1042 l 292 1042 q 306 1035 300 1042 q 313 1021 313 1029 l 313 508 q 306 494 313 500 q 292 488 300 488 l 231 488 q 215 494 221 488 q 208 508 208 500 l 208 1021 m 208 149 q 215 163 208 157 q 231 169 221 169 l 292 169 q 306 163 300 169 q 313 149 313 157 l 313 -364 q 306 -378 313 -372 q 292 -385 300 -385 l 231 -385 q 215 -378 221 -385 q 208 -364 208 -372 l 208 149 z "},"†":{"ha":514,"x_min":56,"x_max":458,"o":"m 197 951 q 203 966 197 960 q 219 972 210 972 l 294 972 q 309 966 303 972 q 315 951 315 960 l 315 843 l 438 843 q 452 837 446 843 q 458 821 458 831 l 458 774 q 452 759 458 765 q 438 753 446 753 l 315 753 l 315 229 q 309 215 315 221 q 294 208 303 208 l 219 208 q 203 215 210 208 q 197 229 197 221 l 197 753 l 76 753 q 62 759 68 753 q 56 774 56 765 l 56 821 q 62 837 56 831 q 76 843 68 843 l 197 843 l 197 951 z "},"‡":{"ha":514,"x_min":56,"x_max":458,"o":"m 197 951 q 203 966 197 960 q 219 972 210 972 l 294 972 q 309 966 303 972 q 315 951 315 960 l 315 843 l 438 843 q 452 837 446 843 q 458 821 458 831 l 458 774 q 452 759 458 765 q 438 753 446 753 l 315 753 l 315 669 l 438 669 q 452 663 446 669 q 458 647 458 657 l 458 600 q 452 585 458 592 q 438 579 446 579 l 315 579 l 315 229 q 309 215 315 221 q 294 208 303 208 l 219 208 q 203 215 210 208 q 197 229 197 221 l 197 579 l 76 579 q 62 585 68 579 q 56 600 56 592 l 56 647 q 62 663 56 657 q 76 669 68 669 l 197 669 l 197 753 l 76 753 q 62 759 68 753 q 56 774 56 765 l 56 821 q 62 837 56 831 q 76 843 68 843 l 197 843 l 197 951 z "},"¢":{"ha":490,"x_min":28,"x_max":454,"o":"m 451 251 q 454 243 454 246 q 449 232 454 238 q 319 176 393 188 l 319 121 q 313 106 319 113 q 299 100 307 100 l 253 100 q 237 106 243 100 q 231 121 231 113 l 231 181 q 110 244 163 194 q 39 361 57 294 q 28 440 28 401 q 31 489 28 453 q 93 618 43 563 q 214 693 143 674 l 231 697 l 231 774 q 237 788 231 782 q 253 794 243 794 l 299 794 q 313 788 307 794 q 319 774 319 782 l 319 701 q 426 664 375 696 q 431 643 438 654 l 393 582 q 371 576 383 568 q 319 596 350 589 l 319 285 q 383 310 354 290 q 394 314 390 314 q 408 307 401 314 l 451 251 m 149 435 q 171 353 149 390 q 231 297 193 315 l 231 585 q 171 527 193 567 q 149 435 149 488 z "},"¤":{"ha":735,"x_min":92,"x_max":643,"o":"m 372 221 q 254 254 310 221 l 181 167 q 165 158 175 158 q 151 164 157 158 l 101 204 q 94 221 94 211 q 99 233 94 228 l 178 331 q 146 447 146 382 q 176 561 146 508 l 96 657 q 92 671 92 664 q 99 688 92 681 l 149 728 q 163 733 154 733 q 178 725 172 733 l 251 639 q 372 674 306 674 q 485 643 432 674 l 554 725 q 569 733 561 733 q 583 728 578 733 l 633 688 q 640 671 640 681 q 636 657 640 664 l 563 569 q 599 447 599 514 q 563 325 599 378 l 639 233 q 643 221 643 228 q 636 204 643 211 l 586 164 q 572 158 581 158 q 556 167 564 158 l 485 250 q 372 221 431 221 m 246 447 q 282 355 246 393 q 369 317 318 317 q 459 355 422 317 q 496 447 496 393 q 475 519 496 490 q 425 563 454 549 q 369 576 396 576 q 282 538 318 576 q 246 447 246 500 m 557 167 l 450 292 l 557 167 z "},"$":{"ha":697,"x_min":50,"x_max":657,"o":"m 310 1074 q 317 1088 310 1082 q 333 1094 324 1094 l 388 1094 q 403 1088 397 1094 q 408 1074 408 1082 l 408 982 q 554 927 490 972 q 653 814 618 882 q 654 806 654 811 q 643 786 654 790 l 565 754 q 558 753 563 753 q 539 765 544 753 q 485 831 519 807 q 408 864 450 856 l 408 533 q 542 462 492 494 q 625 378 593 429 q 657 251 657 326 q 622 124 657 181 q 531 33 588 67 q 408 -11 474 -1 l 408 -93 q 403 -108 408 -101 q 388 -114 397 -114 l 333 -114 q 317 -108 324 -114 q 310 -93 310 -101 l 310 -10 q 159 44 229 0 q 53 165 89 89 q 50 176 50 174 q 63 194 50 189 l 143 235 q 150 236 146 236 q 168 222 163 236 q 224 149 186 178 q 310 110 263 119 l 310 453 q 247 486 271 471 q 130 587 174 531 q 86 724 86 643 q 149 890 86 819 q 310 979 213 961 l 310 1074 m 213 721 q 240 642 213 678 q 310 581 267 607 l 310 857 q 240 806 267 842 q 213 721 213 771 m 408 108 q 497 156 463 121 q 531 247 531 192 q 499 338 531 301 q 408 406 468 374 l 408 108 z "},"€":{"ha":883,"x_min":7,"x_max":807,"o":"m 799 97 q 801 85 801 89 q 788 61 801 67 q 551 -8 671 -8 q 367 37 453 -8 q 219 164 281 82 q 132 351 157 246 l 33 351 q 15 358 22 351 q 7 375 7 365 l 7 422 q 14 441 7 433 q 32 449 21 449 l 118 449 q 117 488 117 461 l 118 519 l 33 519 q 15 526 22 519 q 7 543 7 533 l 7 590 q 14 609 7 601 q 32 617 21 617 l 131 617 q 218 806 156 724 q 369 935 281 889 q 556 981 457 981 q 796 911 678 981 q 805 899 803 907 q 803 883 807 890 q 761 837 778 854 q 738 817 744 819 q 722 818 731 814 q 561 861 644 861 q 379 794 458 861 q 268 617 300 728 l 497 617 q 515 609 508 617 q 522 590 522 601 l 522 546 q 515 527 522 535 q 497 519 508 519 l 253 519 q 251 488 251 508 q 253 449 251 461 l 497 449 q 515 441 508 449 q 522 422 522 433 l 522 378 q 515 359 522 367 q 497 351 508 351 l 271 351 q 383 178 304 243 q 563 114 461 114 q 722 157 642 114 q 733 161 729 161 q 757 144 742 161 q 799 97 772 128 z "},"£":{"ha":665,"x_min":71,"x_max":618,"o":"m 82 450 q 89 469 82 461 q 107 476 96 476 l 160 476 q 145 515 156 492 q 129 550 135 538 q 92 638 106 601 q 76 706 79 674 l 75 729 q 110 861 75 803 q 204 951 144 919 q 339 983 264 983 q 501 938 429 983 q 617 808 572 893 l 618 796 q 604 771 618 778 l 522 736 q 511 735 519 735 q 486 751 493 735 q 425 835 467 807 q 336 864 383 864 q 238 827 279 864 q 196 731 196 790 q 204 678 196 707 q 240 578 210 658 q 275 476 269 504 l 451 476 q 469 469 463 476 q 476 450 476 461 l 476 404 q 469 385 476 393 q 451 378 463 378 l 285 381 q 268 248 285 299 q 210 113 251 197 l 568 113 q 586 105 579 113 q 593 86 593 97 l 593 26 q 586 8 593 15 q 568 0 579 0 l 92 0 q 78 6 83 0 q 72 21 72 13 q 72 65 72 50 q 71 89 71 81 q 75 108 71 100 q 153 261 131 200 q 171 378 176 322 l 107 378 q 89 385 96 378 q 82 404 82 393 l 82 450 z "},"¥":{"ha":799,"x_min":21,"x_max":778,"o":"m 757 967 q 772 961 767 967 q 778 949 778 956 q 774 935 778 943 l 483 501 l 635 501 q 653 494 646 501 q 660 475 660 486 l 660 431 q 653 412 660 419 q 635 404 646 404 l 467 404 l 467 333 l 635 333 q 653 326 646 333 q 660 307 660 318 l 660 263 q 653 244 660 251 q 635 236 646 236 l 467 236 l 467 22 q 460 7 467 13 q 446 1 454 1 l 357 1 q 341 7 347 1 q 335 22 335 13 l 335 236 l 171 236 q 152 243 160 236 q 144 260 144 250 l 144 307 q 151 326 144 318 q 169 333 158 333 l 335 333 l 335 404 l 171 404 q 152 411 160 404 q 144 428 144 418 l 144 475 q 151 494 144 486 q 169 501 158 501 l 318 501 l 25 935 q 21 949 21 942 q 26 961 21 956 q 42 967 32 967 l 131 967 q 156 961 146 967 q 178 939 167 956 l 400 596 l 621 939 q 643 961 632 956 q 668 967 654 967 l 757 967 z "},"+":{"ha":543,"x_min":43,"x_max":499,"o":"m 43 489 q 49 507 43 500 q 67 514 56 514 l 215 514 l 215 667 q 223 685 215 678 q 240 692 231 692 l 300 692 q 319 685 313 692 q 326 668 326 679 l 326 514 l 474 514 q 492 507 485 514 q 499 489 499 500 l 499 429 q 492 410 499 418 q 474 403 485 403 l 326 403 l 326 261 q 319 243 326 250 q 301 236 313 236 l 242 236 q 223 243 231 236 q 215 261 215 250 l 215 403 l 68 403 q 50 410 57 403 q 43 429 43 418 l 43 489 z "},"−":{"ha":567,"x_min":56,"x_max":511,"o":"m 56 489 q 62 507 56 500 q 79 514 68 514 l 486 514 q 504 507 497 514 q 511 489 511 500 l 511 429 q 504 410 511 418 q 486 403 497 403 l 81 403 q 63 410 69 403 q 56 429 56 418 l 56 489 z "},"×":{"ha":571,"x_min":94,"x_max":478,"o":"m 144 644 q 163 651 151 651 q 179 644 172 651 l 283 540 l 392 647 q 410 656 400 656 q 426 647 421 656 l 469 606 q 478 588 478 597 q 471 571 478 578 l 363 461 l 467 357 q 474 340 474 351 q 467 322 474 329 l 424 279 q 406 272 417 272 q 388 279 397 272 l 283 383 l 183 282 q 167 275 176 275 q 149 282 158 275 l 106 325 q 97 344 97 333 q 104 361 97 354 l 206 461 l 101 565 q 94 583 94 575 q 101 601 94 592 l 144 644 z "},"÷":{"ha":594,"x_min":69,"x_max":525,"o":"m 69 489 q 76 507 69 500 q 93 514 82 514 l 500 514 q 518 507 511 514 q 525 489 525 500 l 525 429 q 518 410 525 418 q 500 403 511 403 l 94 403 q 76 410 83 403 q 69 429 69 418 l 69 489 m 219 235 q 241 288 219 267 q 293 308 263 308 q 344 287 324 308 q 365 235 365 265 q 344 183 365 204 q 293 163 324 163 q 241 183 263 163 q 219 235 219 204 m 219 674 q 241 726 219 704 q 293 747 263 747 q 344 726 324 747 q 365 674 365 704 q 344 624 365 644 q 293 603 324 603 q 241 624 263 603 q 219 674 219 644 z "},"=":{"ha":668,"x_min":106,"x_max":561,"o":"m 106 496 q 112 514 106 507 q 129 521 118 521 l 536 521 q 554 514 547 521 q 561 496 561 507 l 561 436 q 554 417 561 425 q 536 410 547 410 l 131 410 q 113 417 119 410 q 106 436 106 425 l 106 496 m 106 275 q 112 293 106 286 q 129 300 118 300 l 536 300 q 554 293 547 300 q 561 275 561 286 l 561 215 q 554 197 561 204 q 536 189 547 189 l 131 189 q 113 197 119 189 q 106 215 106 204 l 106 275 z "},"≠":{"ha":567,"x_min":56,"x_max":511,"o":"m 56 607 q 62 625 56 618 q 79 632 68 632 l 319 632 l 382 763 q 404 778 389 778 q 415 775 407 778 l 442 763 q 456 748 451 757 q 456 729 460 739 l 408 632 l 486 632 q 504 625 497 632 q 511 607 511 618 l 511 547 q 504 528 511 536 q 486 521 497 521 l 356 521 l 303 411 l 486 411 q 504 404 497 411 q 511 386 511 397 l 511 326 q 504 308 511 315 q 486 300 497 300 l 250 300 l 200 196 q 176 181 193 181 l 165 183 l 139 196 q 124 217 124 204 l 126 228 l 161 300 l 81 300 q 63 308 69 300 q 56 326 56 315 l 56 386 q 62 404 56 397 q 79 411 68 411 l 214 411 l 267 521 l 81 521 q 63 528 69 521 q 56 547 56 536 l 56 607 z "},"≥":{"ha":474,"x_min":8,"x_max":464,"o":"m 8 826 q 15 852 8 842 q 32 857 22 863 l 439 668 q 457 657 451 663 q 464 640 463 651 l 464 558 q 440 525 464 538 l 33 336 q 28 335 32 335 q 15 344 19 335 q 10 367 10 354 l 10 440 q 35 474 10 464 l 338 596 l 33 719 q 8 753 8 729 l 8 826 m 8 233 q 15 251 8 244 q 32 258 21 258 l 439 258 q 457 251 450 258 q 464 233 464 244 l 464 174 q 457 155 464 163 q 439 147 450 147 l 33 147 q 15 155 22 147 q 8 174 8 163 l 8 233 z "},"≤":{"ha":474,"x_min":8,"x_max":464,"o":"m 464 753 q 439 719 464 729 l 135 596 l 438 474 q 463 440 463 464 l 463 367 q 456 341 463 351 q 439 336 449 331 l 32 525 q 8 558 8 538 l 8 640 q 15 657 10 651 q 33 668 21 663 l 440 857 q 446 858 442 858 q 459 849 454 858 q 464 826 464 839 l 464 753 m 8 233 q 15 251 8 244 q 33 258 22 258 l 440 258 q 458 251 451 258 q 464 233 464 244 l 464 174 q 457 155 464 163 q 439 147 450 147 l 33 147 q 15 155 22 147 q 8 174 8 163 l 8 233 z "},"±":{"ha":676,"x_min":110,"x_max":567,"o":"m 110 233 q 116 251 110 244 q 133 258 122 258 l 540 258 q 558 251 551 258 q 565 233 565 244 l 565 174 q 558 155 565 163 q 540 147 551 147 l 135 147 q 117 155 124 147 q 110 174 110 163 l 110 233 m 111 586 q 117 604 111 597 q 135 611 124 611 l 283 611 l 283 764 q 291 782 283 775 q 308 789 299 789 l 368 789 q 388 783 381 789 q 394 765 394 776 l 394 611 l 542 611 q 560 604 553 611 q 567 586 567 597 l 567 526 q 560 508 567 515 q 542 500 553 500 l 394 500 l 394 358 q 388 340 394 347 q 369 333 381 333 l 310 333 q 291 340 299 333 q 283 358 283 347 l 283 500 l 136 500 q 118 508 125 500 q 111 526 111 515 l 111 586 z "},"≈":{"ha":558,"x_min":28,"x_max":511,"o":"m 489 542 q 505 558 499 547 q 511 579 511 569 l 511 646 q 501 657 511 657 q 489 653 497 657 q 407 633 451 633 q 347 640 376 633 q 268 661 317 647 q 192 682 222 675 q 132 689 161 689 q 50 669 88 689 q 34 653 40 664 q 28 632 28 642 l 28 565 q 38 554 28 554 q 50 558 42 554 q 132 578 88 578 q 192 571 163 578 q 271 550 222 564 q 347 529 317 536 q 407 522 378 522 q 489 542 451 522 m 28 356 q 38 344 28 344 q 50 349 42 344 q 132 368 88 368 q 192 361 163 368 q 271 340 222 354 q 347 319 317 326 q 407 313 378 313 q 489 332 451 313 q 505 349 499 338 q 511 369 511 360 l 511 436 q 501 447 511 447 q 489 443 497 447 q 407 424 451 424 q 347 431 376 424 q 268 451 317 438 q 192 472 222 465 q 132 479 161 479 q 50 460 88 479 q 34 443 40 454 q 28 422 28 432 l 28 356 z "},"~":{"ha":593,"x_min":58,"x_max":542,"o":"m 519 443 q 535 460 529 449 q 542 481 542 471 l 542 547 q 532 558 542 558 q 519 554 528 558 q 438 535 482 535 q 377 542 407 535 q 299 563 347 549 q 222 583 253 576 q 163 590 192 590 q 81 571 118 590 q 65 554 71 565 q 58 533 58 543 l 58 467 q 68 456 58 456 q 81 460 72 456 q 163 479 118 479 q 223 472 193 479 q 301 451 253 465 q 378 431 347 438 q 438 424 408 424 q 519 443 482 424 z "},"¬":{"ha":792,"x_min":38,"x_max":715,"o":"m 38 492 q 44 510 38 503 q 61 517 50 517 l 622 517 q 631 518 625 518 l 690 518 q 708 512 701 518 q 715 494 715 506 l 715 240 q 708 222 715 229 q 690 215 701 215 l 631 215 q 612 222 619 215 q 604 240 604 229 l 604 406 l 63 406 q 44 413 51 406 q 38 432 38 421 l 38 492 z "},"%":{"ha":857,"x_min":35,"x_max":796,"o":"m 593 953 q 619 972 603 972 l 685 972 q 697 967 693 972 q 696 953 700 961 l 219 19 q 194 0 210 0 l 129 0 q 115 6 119 0 q 115 19 111 11 l 593 953 m 35 793 q 59 883 35 842 q 124 948 83 924 q 214 972 165 972 q 303 948 263 972 q 368 883 344 924 q 392 793 392 842 q 340 666 392 718 q 214 614 288 614 q 124 638 165 614 q 59 703 83 661 q 35 793 35 744 m 118 793 q 146 724 118 753 q 213 696 174 696 q 279 724 251 696 q 307 793 307 753 q 276 865 307 840 q 213 890 244 890 q 146 862 174 890 q 118 793 118 833 m 439 179 q 463 269 439 228 q 528 334 488 310 q 618 358 569 358 q 708 334 667 358 q 772 269 749 310 q 796 179 796 228 q 744 52 796 104 q 618 0 692 0 q 528 24 569 0 q 463 89 488 47 q 439 179 439 131 m 522 179 q 550 110 522 139 q 617 82 578 82 q 683 110 656 82 q 711 179 711 139 q 680 251 711 226 q 617 276 649 276 q 550 248 578 276 q 522 179 522 219 z "},"‰":{"ha":1267,"x_min":56,"x_max":1225,"o":"m 614 953 q 640 972 624 972 l 706 972 q 717 967 714 972 q 717 953 721 961 l 240 19 q 215 0 231 0 l 150 0 q 136 6 140 0 q 136 19 132 11 l 614 953 m 56 793 q 80 883 56 842 q 145 948 104 924 q 235 972 186 972 q 324 948 283 972 q 389 883 365 924 q 413 793 413 842 q 360 666 413 718 q 235 614 308 614 q 145 638 186 614 q 80 703 104 661 q 56 793 56 744 m 139 793 q 167 724 139 753 q 233 696 194 696 q 300 724 272 696 q 328 793 328 753 q 297 865 328 840 q 233 890 265 890 q 167 862 194 890 q 139 793 139 833 m 460 179 q 484 269 460 228 q 549 334 508 310 q 639 358 590 358 q 728 334 688 358 q 793 269 769 310 q 817 179 817 228 q 765 52 817 104 q 639 0 713 0 q 549 24 590 0 q 484 89 508 47 q 460 179 460 131 m 543 179 q 571 110 543 139 q 638 82 599 82 q 704 110 676 82 q 732 179 732 139 q 701 251 732 226 q 638 276 669 276 q 571 248 599 276 q 543 179 543 219 m 868 179 q 892 269 868 228 q 958 334 917 310 q 1047 358 999 358 q 1137 334 1096 358 q 1201 269 1178 310 q 1225 179 1225 228 q 1173 52 1225 104 q 1047 0 1121 0 q 958 24 999 0 q 892 89 917 47 q 868 179 868 131 m 951 179 q 979 110 951 139 q 1046 82 1007 82 q 1113 110 1085 82 q 1140 179 1140 139 q 1109 251 1140 226 q 1046 276 1078 276 q 979 248 1007 276 q 951 179 951 219 z "},"̈":{"ha":0,"x_min":114,"x_max":478,"o":"m 178 1192 q 224 1173 206 1192 q 243 1126 243 1154 q 224 1081 243 1100 q 178 1063 206 1063 q 133 1081 151 1063 q 114 1126 114 1100 q 133 1173 114 1154 q 178 1192 151 1192 m 349 1126 q 367 1173 349 1154 q 413 1192 385 1192 q 458 1173 439 1192 q 478 1126 478 1154 q 458 1081 478 1100 q 413 1063 439 1063 q 367 1081 386 1063 q 349 1126 349 1100 z "},"̇":{"ha":0,"x_min":71,"x_max":238,"o":"m 154 1192 q 213 1167 189 1192 q 238 1107 238 1143 q 213 1049 238 1072 q 154 1025 189 1025 q 95 1049 119 1025 q 71 1107 71 1072 q 95 1167 71 1143 q 154 1192 119 1192 z "},"̀":{"ha":0,"x_min":83,"x_max":325,"o":"m 318 1072 q 325 1053 325 1063 q 310 1039 325 1039 l 265 1039 q 203 1065 232 1039 l 92 1164 q 83 1179 83 1172 q 90 1191 83 1186 q 108 1196 97 1196 l 204 1196 q 238 1188 228 1196 q 258 1164 247 1181 l 318 1072 z "},"́":{"ha":0,"x_min":42,"x_max":283,"o":"m 108 1164 q 129 1188 119 1181 q 163 1196 139 1196 l 258 1196 q 276 1191 269 1196 q 283 1179 283 1186 q 275 1164 283 1172 l 164 1065 q 101 1039 135 1039 l 57 1039 q 42 1053 42 1039 q 49 1072 42 1063 l 108 1164 z "},"̋":{"ha":0,"x_min":78,"x_max":415,"o":"m 139 1185 q 157 1208 146 1200 q 193 1217 168 1217 l 225 1217 q 249 1201 249 1217 q 242 1185 249 1196 l 156 1054 q 138 1036 146 1040 q 110 1032 131 1032 l 93 1032 q 78 1046 78 1032 q 82 1061 78 1053 l 139 1185 m 306 1188 q 324 1211 313 1203 q 360 1219 335 1219 l 392 1219 q 415 1204 415 1219 q 408 1188 415 1199 l 322 1057 q 305 1039 313 1043 q 276 1035 297 1035 l 260 1035 q 244 1049 244 1035 q 249 1064 244 1056 l 306 1188 z "},"̂":{"ha":0,"x_min":61,"x_max":404,"o":"m 394 1065 q 404 1047 404 1056 q 399 1038 404 1042 q 386 1035 393 1035 l 339 1035 q 304 1038 315 1035 q 285 1051 293 1042 l 232 1115 l 178 1051 q 158 1038 168 1042 q 124 1035 147 1035 l 74 1035 q 61 1049 61 1035 q 68 1065 61 1058 l 175 1179 q 188 1190 182 1188 q 210 1192 194 1192 l 246 1192 q 269 1189 263 1192 q 282 1179 275 1186 l 394 1065 z "},"̌":{"ha":0,"x_min":61,"x_max":404,"o":"m 71 1161 q 61 1179 61 1171 q 67 1188 61 1185 q 79 1192 72 1192 l 126 1192 q 161 1188 150 1192 q 181 1175 172 1185 l 233 1111 l 288 1175 q 308 1188 297 1185 q 342 1192 318 1192 l 392 1192 q 404 1178 404 1192 q 397 1161 404 1168 l 290 1047 q 277 1037 283 1039 q 256 1035 271 1035 l 219 1035 q 197 1038 203 1035 q 183 1047 190 1040 l 71 1161 z "},"̆":{"ha":0,"x_min":53,"x_max":376,"o":"m 213 1110 q 260 1128 239 1110 q 288 1172 281 1146 q 294 1184 289 1179 q 306 1189 299 1189 l 356 1189 q 370 1182 364 1189 q 375 1167 376 1175 q 321 1067 367 1107 q 214 1026 275 1026 q 106 1067 151 1026 q 53 1167 60 1107 l 53 1169 q 58 1183 53 1176 q 72 1189 64 1189 l 117 1189 q 129 1184 124 1189 q 136 1172 135 1179 q 163 1128 142 1146 q 213 1110 185 1110 z "},"̊":{"ha":0,"x_min":50,"x_max":343,"o":"m 194 975 q 92 1018 135 975 q 50 1124 50 1061 q 92 1226 50 1183 q 194 1268 135 1268 q 300 1226 257 1268 q 343 1124 343 1183 q 300 1018 343 1061 q 194 975 257 975 m 126 1124 q 147 1072 126 1093 q 194 1050 167 1050 q 244 1072 224 1050 q 264 1124 264 1093 q 241 1176 264 1157 q 194 1194 218 1194 q 147 1173 167 1194 q 126 1124 126 1151 z "},"̃":{"ha":0,"x_min":57,"x_max":453,"o":"m 431 1189 q 447 1175 443 1189 q 453 1131 453 1154 q 419 1042 453 1074 q 336 1010 385 1010 q 269 1028 300 1010 q 222 1081 239 1046 q 185 1115 203 1115 q 165 1099 172 1115 q 158 1060 158 1083 l 158 1057 q 156 1047 158 1051 q 149 1040 153 1042 l 76 1029 l 72 1028 q 63 1032 67 1028 q 58 1042 58 1036 q 57 1064 57 1049 q 94 1165 57 1126 q 183 1203 132 1203 q 249 1183 218 1203 q 300 1126 281 1164 q 335 1097 318 1097 q 354 1138 354 1097 q 353 1161 354 1153 l 353 1164 q 363 1179 353 1175 l 426 1189 l 431 1189 z "},"̄":{"ha":0,"x_min":83,"x_max":478,"o":"m 83 1147 q 90 1166 83 1158 q 107 1174 97 1174 l 453 1174 q 471 1166 464 1174 q 478 1147 478 1158 l 478 1101 q 471 1083 478 1090 q 453 1075 464 1075 l 108 1075 q 90 1083 97 1075 q 83 1101 83 1090 l 83 1147 z "},"̒":{"ha":0,"x_min":42,"x_max":147,"o":"m 42 1217 q 48 1231 42 1225 q 63 1238 54 1238 l 126 1238 q 141 1231 135 1238 q 147 1217 147 1225 l 147 967 q 141 952 147 958 q 126 946 135 946 l 63 946 q 48 952 54 946 q 42 967 42 958 l 42 1217 z "},"̦":{"ha":0,"x_min":42,"x_max":213,"o":"m 151 -240 q 133 -264 144 -256 q 97 -272 122 -272 l 65 -272 q 42 -257 42 -272 q 49 -240 42 -251 l 135 -110 q 152 -92 144 -96 q 181 -87 160 -87 l 197 -87 q 213 -101 213 -87 q 208 -117 213 -108 l 151 -240 z "},"̧":{"ha":0,"x_min":40,"x_max":265,"o":"m 138 58 q 151 53 146 58 q 156 40 156 47 l 156 -43 q 240 -81 214 -54 q 265 -149 265 -107 q 251 -201 265 -174 q 206 -247 236 -229 q 138 -264 176 -264 q 83 -251 108 -264 q 42 -211 58 -237 q 40 -203 40 -208 q 49 -185 40 -192 l 72 -172 q 81 -171 75 -171 q 96 -178 89 -171 q 140 -201 111 -201 q 172 -192 157 -201 q 192 -167 186 -182 q 194 -154 194 -158 q 182 -127 194 -139 q 144 -110 169 -115 l 83 -97 q 65 -85 71 -94 q 60 -67 60 -76 l 60 40 q 65 53 60 47 q 78 58 71 58 l 138 58 z "},"̨":{"ha":0,"x_min":60,"x_max":251,"o":"m 251 -200 q 238 -218 251 -214 q 200 -222 221 -222 q 94 -192 129 -222 q 60 -114 60 -161 q 78 -41 60 -78 q 128 22 97 -4 q 133 24 129 24 l 192 24 q 202 21 201 24 q 196 11 203 18 q 165 -40 179 -8 q 150 -99 150 -72 q 200 -147 150 -146 q 226 -142 215 -147 q 233 -140 229 -140 q 246 -146 240 -140 q 251 -158 251 -151 l 251 -200 z "},"¨":{"ha":568,"x_min":111,"x_max":504,"o":"m 175 1192 q 222 1173 203 1192 q 240 1126 240 1154 q 222 1081 240 1100 q 175 1063 203 1063 q 130 1081 149 1063 q 111 1126 111 1100 q 130 1173 111 1154 q 175 1192 149 1192 m 375 1126 q 393 1173 375 1154 q 439 1192 411 1192 q 485 1173 465 1192 q 504 1126 504 1154 q 485 1081 504 1100 q 439 1063 465 1063 q 394 1081 413 1063 q 375 1126 375 1100 z "},"˙":{"ha":313,"x_min":71,"x_max":238,"o":"m 154 1192 q 213 1167 189 1192 q 238 1107 238 1143 q 213 1049 238 1072 q 154 1025 189 1025 q 95 1049 119 1025 q 71 1107 71 1072 q 95 1167 71 1143 q 154 1192 119 1192 z "},"`":{"ha":367,"x_min":83,"x_max":325,"o":"m 318 1072 q 325 1053 325 1063 q 310 1039 325 1039 l 265 1039 q 203 1065 232 1039 l 92 1164 q 83 1179 83 1172 q 90 1191 83 1186 q 108 1196 97 1196 l 204 1196 q 238 1188 228 1196 q 258 1164 247 1181 l 318 1072 z "},"´":{"ha":367,"x_min":42,"x_max":283,"o":"m 108 1164 q 129 1188 119 1181 q 163 1196 139 1196 l 258 1196 q 276 1191 269 1196 q 283 1179 283 1186 q 275 1164 283 1172 l 164 1065 q 101 1039 135 1039 l 57 1039 q 42 1053 42 1039 q 49 1072 42 1063 l 108 1164 z "},"˝":{"ha":472,"x_min":78,"x_max":415,"o":"m 139 1185 q 157 1208 146 1200 q 193 1217 168 1217 l 225 1217 q 249 1201 249 1217 q 242 1185 249 1196 l 156 1054 q 138 1036 146 1040 q 110 1032 131 1032 l 93 1032 q 78 1046 78 1032 q 82 1061 78 1053 l 139 1185 m 306 1188 q 324 1211 313 1203 q 360 1219 335 1219 l 392 1219 q 415 1204 415 1219 q 408 1188 415 1199 l 322 1057 q 305 1039 313 1043 q 276 1035 297 1035 l 260 1035 q 244 1049 244 1035 q 249 1064 244 1056 l 306 1188 z "},"ˆ":{"ha":469,"x_min":61,"x_max":404,"o":"m 394 1065 q 404 1047 404 1056 q 399 1038 404 1042 q 386 1035 393 1035 l 339 1035 q 304 1038 315 1035 q 285 1051 293 1042 l 232 1115 l 178 1051 q 158 1038 168 1042 q 124 1035 147 1035 l 74 1035 q 61 1049 61 1035 q 68 1065 61 1058 l 175 1179 q 188 1190 182 1188 q 210 1192 194 1192 l 246 1192 q 269 1189 263 1192 q 282 1179 275 1186 l 394 1065 z "},"ˇ":{"ha":469,"x_min":61,"x_max":404,"o":"m 71 1161 q 61 1179 61 1171 q 67 1188 61 1185 q 79 1192 72 1192 l 126 1192 q 161 1188 150 1192 q 181 1175 172 1185 l 233 1111 l 288 1175 q 308 1188 297 1185 q 342 1192 318 1192 l 392 1192 q 404 1178 404 1192 q 397 1161 404 1168 l 290 1047 q 277 1037 283 1039 q 256 1035 271 1035 l 219 1035 q 197 1038 203 1035 q 183 1047 190 1040 l 71 1161 z "},"˘":{"ha":428,"x_min":53,"x_max":376,"o":"m 213 1110 q 260 1128 239 1110 q 288 1172 281 1146 q 294 1184 289 1179 q 306 1189 299 1189 l 356 1189 q 370 1182 364 1189 q 375 1167 376 1175 q 321 1067 367 1107 q 214 1026 275 1026 q 106 1067 151 1026 q 53 1167 60 1107 l 53 1169 q 58 1183 53 1176 q 72 1189 64 1189 l 117 1189 q 129 1184 124 1189 q 136 1172 135 1179 q 163 1128 142 1146 q 213 1110 185 1110 z "},"˚":{"ha":393,"x_min":50,"x_max":343,"o":"m 194 975 q 92 1018 135 975 q 50 1124 50 1061 q 92 1226 50 1183 q 194 1268 135 1268 q 300 1226 257 1268 q 343 1124 343 1183 q 300 1018 343 1061 q 194 975 257 975 m 126 1124 q 147 1072 126 1093 q 194 1050 167 1050 q 244 1072 224 1050 q 264 1124 264 1093 q 241 1176 264 1157 q 194 1194 218 1194 q 147 1173 167 1194 q 126 1124 126 1151 z "},"˜":{"ha":513,"x_min":57,"x_max":453,"o":"m 431 1189 q 447 1175 443 1189 q 453 1131 453 1154 q 419 1042 453 1074 q 336 1010 385 1010 q 269 1028 300 1010 q 222 1081 239 1046 q 185 1115 203 1115 q 165 1099 172 1115 q 158 1060 158 1083 l 158 1057 q 156 1047 158 1051 q 149 1040 153 1042 l 76 1029 l 72 1028 q 63 1032 67 1028 q 58 1042 58 1036 q 57 1064 57 1049 q 94 1165 57 1126 q 183 1203 132 1203 q 249 1183 218 1203 q 300 1126 281 1164 q 335 1097 318 1097 q 354 1138 354 1097 q 353 1161 354 1153 l 353 1164 q 363 1179 353 1175 l 426 1189 l 431 1189 z "},"¯":{"ha":561,"x_min":83,"x_max":478,"o":"m 83 1147 q 90 1166 83 1158 q 107 1174 97 1174 l 453 1174 q 471 1166 464 1174 q 478 1147 478 1158 l 478 1101 q 471 1083 478 1090 q 453 1075 464 1075 l 108 1075 q 90 1083 97 1075 q 83 1101 83 1090 l 83 1147 z "},"¸":{"ha":308,"x_min":40,"x_max":265,"o":"m 138 58 q 151 53 146 58 q 156 40 156 47 l 156 -43 q 240 -81 214 -54 q 265 -149 265 -107 q 251 -201 265 -174 q 206 -247 236 -229 q 138 -264 176 -264 q 83 -251 108 -264 q 42 -211 58 -237 q 40 -203 40 -208 q 49 -185 40 -192 l 72 -172 q 81 -171 75 -171 q 96 -178 89 -171 q 140 -201 111 -201 q 172 -192 157 -201 q 192 -167 186 -182 q 194 -154 194 -158 q 182 -127 194 -139 q 144 -110 169 -115 l 83 -97 q 65 -85 71 -94 q 60 -67 60 -76 l 60 40 q 65 53 60 47 q 78 58 71 58 l 138 58 z "},"˛":{"ha":311,"x_min":60,"x_max":251,"o":"m 251 -200 q 238 -218 251 -214 q 200 -222 221 -222 q 94 -192 129 -222 q 60 -114 60 -161 q 78 -41 60 -78 q 128 22 97 -4 q 133 24 129 24 l 192 24 q 202 21 201 24 q 196 11 203 18 q 165 -40 179 -8 q 150 -99 150 -72 q 200 -147 150 -146 q 226 -142 215 -147 q 233 -140 229 -140 q 246 -146 240 -140 q 251 -158 251 -151 l 251 -200 z "}}}
